# Blender v3.0.0 OBJ File: ''
# www.blender.org
mtllib BR_DMR_Mag.mtl
o default:default.001_default:default.016
v 0.076690 -0.041264 0.015546
v -0.067840 -0.041264 0.015546
v 0.076690 -0.041264 0.007012
v -0.067840 -0.041264 0.007015
v -0.067840 -0.041264 0.024077
v -0.067840 -0.041264 0.015546
v 0.076690 -0.041264 0.024080
v 0.076690 -0.041264 0.015546
v 0.079912 -0.033958 0.003220
v 0.079973 -0.034117 0.015546
v 0.076690 -0.041264 0.007012
v 0.076690 -0.041264 0.015546
v 0.079973 -0.034117 0.015546
v 0.073685 -0.022699 0.015546
v 0.073685 -0.022699 0.000374
v 0.069308 -0.020245 0.005698
v 0.069308 -0.020245 0.015546
v -0.075834 0.023920 0.015546
v -0.046242 0.023901 0.015546
v -0.075834 0.023920 0.005717
v -0.046059 0.023901 0.005710
v -0.072107 0.021591 0.000380
v -0.047641 0.021710 0.000374
v -0.026132 -0.012936 0.005698
v -0.027592 -0.014683 0.000374
v -0.012703 -0.020242 0.005698
v -0.012712 -0.022699 0.000374
v 0.069308 -0.020245 0.005698
v 0.076690 -0.041264 0.007012
v -0.067840 -0.041264 0.007015
v 0.079912 -0.033958 0.003220
v -0.072131 -0.033998 0.003220
v -0.072107 -0.021830 0.000374
v 0.073685 -0.022699 0.000374
v -0.012712 -0.022699 0.000374
v -0.027592 -0.014683 0.000374
v -0.047641 0.021710 0.000374
v -0.072107 0.021591 0.000380
v -0.072107 -0.021830 0.030719
v -0.072131 -0.033998 0.027872
v 0.079912 -0.033958 0.027872
v -0.067840 -0.041264 0.024077
v 0.076690 -0.041264 0.024080
v 0.073685 -0.022699 0.030719
v -0.012712 -0.022699 0.030719
v -0.027592 -0.014683 0.030719
v -0.047641 0.021710 0.030719
v -0.072107 0.021591 0.030713
v -0.067840 -0.041264 0.015546
v -0.067840 -0.041264 0.024077
v -0.072162 -0.034040 0.015546
v -0.072131 -0.033998 0.027872
v -0.075831 -0.028435 0.024080
v -0.075831 -0.028435 0.015546
v -0.075834 0.023920 0.015546
v -0.075834 0.023920 0.025376
v -0.072107 0.021591 0.030713
v -0.072107 -0.021830 0.030719
v -0.075831 -0.028435 0.015546
v -0.075831 -0.028435 0.007012
v -0.072162 -0.034040 0.015546
v -0.072131 -0.033998 0.003220
v -0.067840 -0.041264 0.007015
v -0.067840 -0.041264 0.015546
v -0.072107 -0.021830 0.000374
v -0.072107 0.021591 0.000380
v -0.075834 0.023920 0.005717
v -0.075834 0.023920 0.015546
v 0.069308 -0.020245 0.015546
v 0.069308 -0.020245 0.025394
v 0.073685 -0.022699 0.015546
v 0.073685 -0.022699 0.030719
v 0.079912 -0.033958 0.027872
v 0.079973 -0.034117 0.015546
v 0.076690 -0.041264 0.024080
v 0.076690 -0.041264 0.015546
v 0.069308 -0.020245 0.025394
v -0.012712 -0.022699 0.030719
v -0.012703 -0.020242 0.025394
v -0.027592 -0.014683 0.030719
v -0.026132 -0.012936 0.025394
v -0.047641 0.021710 0.030719
v -0.046059 0.023901 0.025382
v -0.072107 0.021591 0.030713
v -0.075834 0.023920 0.025376
v -0.046242 0.023901 0.015546
v -0.075834 0.023920 0.015546
v 0.069195 0.065058 0.025354
v 0.052985 0.064833 0.021334
v 0.052761 0.065076 0.025357
v 0.069195 0.065058 0.005738
v 0.052985 0.064833 0.009758
v 0.067674 0.065060 0.009760
v 0.052985 0.064833 0.021334
v 0.069195 0.065058 0.025354
v 0.067674 0.065060 0.021332
v 0.052985 0.064833 0.009758
v 0.069195 0.065058 0.005738
v 0.052761 0.065076 0.005735
v -0.008103 0.069039 0.020527
v 0.049103 0.069039 0.022904
v 0.049310 0.068795 0.019617
v 0.049103 0.069039 0.008188
v -0.008103 0.069039 0.010566
v 0.049310 0.068795 0.011475
v -0.009578 0.041342 0.010566
v -0.008103 0.069039 0.010566
v -0.009578 0.041342 0.015546
v -0.008103 0.069039 0.015546
v -0.008103 0.069039 0.020527
v 0.049310 0.068795 0.019617
v -0.009578 0.041342 0.020527
v 0.047835 0.041098 0.019617
v 0.069308 -0.020245 0.015546
v 0.069308 -0.020245 0.005698
v 0.069213 0.065055 0.015546
v 0.069195 0.065058 0.005738
v 0.067674 0.065060 0.009760
v 0.066199 0.037363 0.009760
v 0.067690 0.065057 0.015546
v 0.066215 0.037360 0.015546
v 0.066215 0.037360 0.015546
v 0.066199 0.037363 0.021332
v 0.067690 0.065057 0.015546
v 0.067674 0.065060 0.021332
v 0.051510 0.037136 0.021334
v 0.051286 0.037379 0.015546
v 0.047835 0.041098 0.019617
v 0.047628 0.041342 0.015546
v 0.047628 0.041342 0.015546
v 0.051286 0.037379 0.015546
v 0.047835 0.041098 0.011475
v 0.051510 0.037136 0.009758
v 0.066215 0.037360 0.015546
v 0.051286 0.037379 0.015546
v 0.066199 0.037363 0.021332
v 0.051510 0.037136 0.021334
v 0.049310 0.068795 0.019617
v 0.052985 0.064833 0.021334
v 0.047835 0.041098 0.019617
v 0.051510 0.037136 0.021334
v 0.051510 0.037136 0.009758
v 0.052985 0.064833 0.009758
v 0.047835 0.041098 0.011475
v 0.049310 0.068795 0.011475
v 0.052985 0.064833 0.009758
v 0.052761 0.065076 0.005735
v 0.049310 0.068795 0.011475
v 0.049103 0.069039 0.008188
v 0.067690 0.065057 0.015546
v 0.067674 0.065060 0.021332
v 0.069213 0.065055 0.015546
v 0.069195 0.065058 0.025354
v 0.067690 0.065057 0.015546
v 0.069213 0.065055 0.015546
v 0.067674 0.065060 0.009760
v 0.069195 0.065058 0.005738
v 0.047835 0.041098 0.011475
v 0.049310 0.068795 0.011475
v -0.009578 0.041342 0.010566
v -0.008103 0.069039 0.010566
v -0.008103 0.069039 0.015546
v -0.008103 0.069039 0.020527
v -0.009578 0.041342 0.015546
v -0.009578 0.041342 0.020527
v -0.009578 0.041342 0.015546
v 0.047628 0.041342 0.015546
v -0.009578 0.041342 0.010566
v 0.047835 0.041098 0.011475
v 0.047835 0.041098 0.019617
v 0.047628 0.041342 0.015546
v -0.009578 0.041342 0.020527
v -0.009578 0.041342 0.015546
v 0.066199 0.037363 0.021332
v 0.051510 0.037136 0.021334
v 0.067674 0.065060 0.021332
v 0.052985 0.064833 0.021334
v 0.069195 0.065058 0.025354
v 0.069308 -0.020245 0.025394
v 0.069213 0.065055 0.015546
v 0.069308 -0.020245 0.015546
v 0.051510 0.037136 0.009758
v 0.051286 0.037379 0.015546
v 0.066199 0.037363 0.009760
v 0.066215 0.037360 0.015546
v 0.052985 0.064833 0.009758
v 0.051510 0.037136 0.009758
v 0.067674 0.065060 0.009760
v 0.066199 0.037363 0.009760
v 0.049103 0.069039 0.022904
v 0.052761 0.065076 0.025357
v 0.049310 0.068795 0.019617
v 0.052985 0.064833 0.021334
v -0.009627 0.069039 0.015546
v -0.008103 0.069039 0.015546
v -0.009627 0.069039 0.006857
v -0.008103 0.069039 0.010566
v 0.049103 0.069039 0.008188
v 0.049103 0.069039 0.022904
v -0.008103 0.069039 0.020527
v -0.009627 0.069039 0.024236
v -0.008103 0.069039 0.015546
v -0.009627 0.069039 0.015546
v -0.046242 0.023901 0.015546
v -0.046059 0.023901 0.025382
v -0.028095 0.028742 0.015546
v -0.028000 0.028742 0.025382
v -0.012654 0.043643 0.025382
v -0.012660 0.043643 0.015546
v -0.009627 0.069039 0.015546
v -0.012660 0.065043 0.015546
v -0.009627 0.069039 0.024236
v -0.012651 0.065043 0.025382
v -0.012660 0.043643 0.015546
v -0.012654 0.043643 0.025382
v -0.012660 0.043643 0.015546
v -0.012654 0.043643 0.005710
v -0.028095 0.028742 0.015546
v -0.028000 0.028742 0.005710
v -0.046059 0.023901 0.005710
v -0.046242 0.023901 0.015546
v -0.009627 0.069039 0.015546
v -0.009627 0.069039 0.006857
v -0.012660 0.065043 0.015546
v -0.012651 0.065043 0.005710
v -0.012660 0.043643 0.015546
v -0.012654 0.043643 0.005710
v -0.012654 0.043643 0.025382
v 0.069195 0.065058 0.025354
v -0.012651 0.065043 0.025382
v 0.052761 0.065076 0.025357
v 0.049103 0.069039 0.022904
v -0.009627 0.069039 0.024236
v 0.069308 -0.020245 0.025394
v -0.012703 -0.020242 0.025394
v -0.026132 -0.012936 0.025394
v -0.028000 0.028742 0.025382
v -0.046059 0.023901 0.025382
v -0.009627 0.069039 0.006857
v 0.049103 0.069039 0.008188
v -0.012651 0.065043 0.005710
v 0.052761 0.065076 0.005735
v 0.069195 0.065058 0.005738
v -0.012654 0.043643 0.005710
v -0.046059 0.023901 0.005710
v -0.028000 0.028742 0.005710
v -0.026132 -0.012936 0.005698
v -0.012703 -0.020242 0.005698
v 0.069308 -0.020245 0.005698
vt 0.818210 0.012986
vt 0.818164 0.208343
vt 0.826794 0.019052
vt 0.827370 0.202922
vt 0.827537 0.203521
vt 0.818164 0.208343
vt 0.826248 0.019866
vt 0.819484 0.013661
vt 0.836575 0.018653
vt 0.832663 0.003710
vt 0.826794 0.019052
vt 0.818210 0.012986
vt 0.832663 0.003710
vt 0.850179 0.006935
vt 0.847813 0.023736
vt 0.853606 0.022446
vt 0.856928 0.008333
vt 0.905973 0.224622
vt 0.921123 0.188916
vt 0.901560 0.217373
vt 0.911129 0.183895
vt 0.900225 0.211814
vt 0.905654 0.185538
vt 0.871350 0.151046
vt 0.866133 0.155023
vt 0.860582 0.132756
vt 0.853682 0.133493
vt 0.853606 0.022446
vt 0.826794 0.019052
vt 0.827370 0.202922
vt 0.836575 0.018653
vt 0.839078 0.207437
vt 0.854789 0.206208
vt 0.847813 0.023736
vt 0.853682 0.133493
vt 0.866133 0.155023
vt 0.905654 0.185538
vt 0.900225 0.211814
vt 0.854804 0.205917
vt 0.839244 0.207038
vt 0.836560 0.017485
vt 0.827537 0.203521
vt 0.826248 0.019866
vt 0.847995 0.023029
vt 0.853697 0.133662
vt 0.866133 0.155192
vt 0.906034 0.185400
vt 0.900073 0.211307
vt 0.818164 0.208343
vt 0.827537 0.203521
vt 0.829448 0.221888
vt 0.839244 0.207038
vt 0.844264 0.214302
vt 0.840852 0.225681
vt 0.906792 0.226019
vt 0.901302 0.217081
vt 0.900073 0.211307
vt 0.854804 0.205917
vt 0.841337 0.224238
vt 0.843521 0.214240
vt 0.829508 0.220229
vt 0.839078 0.207437
vt 0.827370 0.202922
vt 0.818164 0.208343
vt 0.854789 0.206208
vt 0.900225 0.211814
vt 0.901560 0.217373
vt 0.905973 0.224622
vt 0.856928 0.008333
vt 0.853470 0.025118
vt 0.850179 0.006935
vt 0.847995 0.023029
vt 0.836560 0.017485
vt 0.832086 0.006259
vt 0.826248 0.019866
vt 0.819484 0.013661
vt 0.853470 0.025118
vt 0.853697 0.133662
vt 0.860628 0.132233
vt 0.866133 0.155192
vt 0.871380 0.150892
vt 0.906034 0.185400
vt 0.910219 0.184202
vt 0.900073 0.211307
vt 0.901302 0.217081
vt 0.921123 0.188916
vt 0.906792 0.226019
vt 0.850952 0.191619
vt 0.832375 0.187227
vt 0.832177 0.191834
vt 0.850952 0.191619
vt 0.832375 0.187227
vt 0.849163 0.187043
vt 0.832375 0.187227
vt 0.850952 0.191619
vt 0.849163 0.187043
vt 0.832375 0.187227
vt 0.850952 0.191619
vt 0.832177 0.191834
vt 0.842035 0.126674
vt 0.839897 0.192049
vt 0.843642 0.192264
vt 0.839897 0.192049
vt 0.842035 0.126674
vt 0.843642 0.192264
vt 0.841322 0.177829
vt 0.841034 0.146147
vt 0.847009 0.177783
vt 0.846721 0.146101
vt 0.829766 0.116032
vt 0.828037 0.181591
vt 0.861432 0.115310
vt 0.859718 0.180869
vt 0.843385 0.202600
vt 0.832132 0.202692
vt 0.842535 0.105144
vt 0.831328 0.105236
vt 0.849026 0.150908
vt 0.849299 0.182589
vt 0.842414 0.150954
vt 0.842687 0.182651
vt 0.842687 0.182651
vt 0.849299 0.182589
vt 0.842414 0.150954
vt 0.849026 0.150908
vt 0.840534 0.160107
vt 0.840079 0.153488
vt 0.834331 0.158202
vt 0.833921 0.153549
vt 0.833921 0.153549
vt 0.840079 0.153488
vt 0.834331 0.158202
vt 0.840534 0.160107
vt 0.843218 0.175049
vt 0.844765 0.158064
vt 0.836636 0.174435
vt 0.838153 0.157726
vt 0.828037 0.181591
vt 0.832435 0.185922
vt 0.859718 0.180869
vt 0.864116 0.185215
vt 0.864116 0.185215
vt 0.832435 0.185922
vt 0.859718 0.180869
vt 0.828037 0.181591
vt 0.844643 0.181069
vt 0.845690 0.185553
vt 0.838153 0.181100
vt 0.838971 0.184785
vt 0.849102 0.180439
vt 0.849163 0.187043
vt 0.850846 0.180424
vt 0.850952 0.191619
vt 0.849102 0.180439
vt 0.850846 0.180424
vt 0.849163 0.187043
vt 0.850952 0.191619
vt 0.859718 0.180869
vt 0.828037 0.181591
vt 0.861432 0.115310
vt 0.829766 0.116032
vt 0.846721 0.146101
vt 0.841034 0.146147
vt 0.847009 0.177783
vt 0.841322 0.177829
vt 0.856184 0.126505
vt 0.856078 0.191865
vt 0.850497 0.126505
vt 0.851422 0.192095
vt 0.851422 0.192095
vt 0.856078 0.191865
vt 0.850497 0.126505
vt 0.856184 0.126505
vt 0.863343 0.201970
vt 0.864116 0.185215
vt 0.831662 0.202692
vt 0.832435 0.185922
vt 0.831328 0.105236
vt 0.832132 0.202692
vt 0.842535 0.105144
vt 0.843385 0.202600
vt 0.838153 0.157726
vt 0.844765 0.158064
vt 0.836636 0.174435
vt 0.843218 0.175049
vt 0.832435 0.185922
vt 0.864116 0.185215
vt 0.831662 0.202692
vt 0.863343 0.201970
vt 0.838971 0.184785
vt 0.845690 0.185553
vt 0.838153 0.181100
vt 0.844643 0.181069
vt 0.847707 0.124893
vt 0.847722 0.126628
vt 0.837789 0.124970
vt 0.842035 0.126674
vt 0.839897 0.192049
vt 0.839897 0.192049
vt 0.842035 0.126674
vt 0.837789 0.124970
vt 0.847722 0.126628
vt 0.847707 0.124893
vt 0.843157 0.181484
vt 0.854395 0.181269
vt 0.843097 0.162748
vt 0.854334 0.162610
vt 0.854213 0.138177
vt 0.842975 0.138238
vt 0.843961 0.134353
vt 0.844006 0.138914
vt 0.853879 0.134261
vt 0.855229 0.138822
vt 0.844219 0.163362
vt 0.855441 0.163270
vt 0.842975 0.138238
vt 0.854213 0.138177
vt 0.843097 0.162748
vt 0.854334 0.162610
vt 0.854395 0.181269
vt 0.843157 0.181484
vt 0.843961 0.134353
vt 0.853879 0.134261
vt 0.844006 0.138914
vt 0.855229 0.138822
vt 0.844219 0.163362
vt 0.855441 0.163270
vt 0.940065 0.125876
vt 0.964694 0.031767
vt 0.964663 0.125876
vt 0.964709 0.050657
vt 0.969259 0.054865
vt 0.969259 0.122390
vt 0.866603 0.031629
vt 0.866603 0.125922
vt 0.875005 0.141371
vt 0.922928 0.143521
vt 0.917362 0.164284
vt 0.969259 0.122390
vt 0.969259 0.054865
vt 0.964663 0.125876
vt 0.964709 0.050657
vt 0.964694 0.031767
vt 0.940065 0.125876
vt 0.917362 0.164284
vt 0.922928 0.143521
vt 0.875005 0.141371
vt 0.866603 0.125922
vt 0.866603 0.031629
vn 0.0000 -1.0000 0.0000
vn 0.9787 0.2053 -0.0029
vn 0.9920 -0.1260 0.0000
vn 0.9109 -0.4126 -0.0049
vn 0.9087 -0.4174 0.0000
vn 0.9787 0.2052 -0.0029
vn 0.7095 0.7047 -0.0002
vn 0.5096 0.8461 -0.1563
vn 0.2371 0.8633 -0.4455
vn 0.4890 0.8723 0.0000
vn -0.7069 0.7073 -0.0000
vn 0.0006 1.0000 0.0000
vn -0.6779 0.6974 -0.2326
vn 0.1981 0.8145 -0.5454
vn -0.6880 0.4809 -0.5435
vn 0.5994 0.6730 -0.4334
vn 0.4151 0.3420 -0.8430
vn 0.5825 0.7132 -0.3899
vn 0.1772 0.5100 -0.8417
vn 0.1498 0.8977 -0.4143
vn -0.0000 -0.4607 -0.8876
vn 0.0000 -0.4618 -0.8870
vn -0.0008 -0.3367 -0.9416
vn 0.0001 -0.3481 -0.9375
vn -0.0009 -0.1016 -0.9948
vn 0.0000 -0.2451 -0.9695
vn -0.0014 -0.1752 -0.9845
vn -0.0000 0.0000 -1.0000
vn -0.0001 0.0001 -1.0000
vn -0.0002 0.0001 -1.0000
vn -0.0009 -0.1016 0.9948
vn 0.0001 -0.3481 0.9375
vn -0.0008 -0.3367 0.9416
vn 0.0000 -0.4617 0.8870
vn -0.0000 -0.4607 0.8876
vn 0.0000 -0.2451 0.9695
vn -0.0014 -0.1752 0.9845
vn 0.0000 -0.0000 1.0000
vn -0.0001 0.0001 1.0000
vn -0.0002 0.0001 1.0000
vn -0.8581 -0.5134 0.0000
vn -0.8592 -0.5116 0.0022
vn -0.8474 -0.5309 -0.0001
vn -0.9357 -0.2987 0.1876
vn -0.9285 -0.2518 0.2730
vn -0.9819 -0.1896 -0.0000
vn -0.6778 0.6974 0.2326
vn -0.6880 0.4809 0.5435
vn -1.0000 -0.0000 0.0088
vn -0.9285 -0.2518 -0.2729
vn -0.8474 -0.5309 -0.0000
vn -0.9357 -0.2987 -0.1876
vn -0.8592 -0.5117 -0.0020
vn -1.0000 0.0000 -0.0084
vn -0.6880 0.4809 -0.5434
vn -0.6778 0.6974 -0.2326
vn -0.7069 0.7073 0.0001
vn 0.2371 0.8633 0.4455
vn 0.7095 0.7047 0.0001
vn 0.5096 0.8461 0.1564
vn 0.9787 0.2053 0.0029
vn 0.9109 -0.4126 0.0049
vn 0.5097 0.8460 0.1564
vn 0.1498 0.8978 0.4141
vn 0.1772 0.5100 0.8417
vn 0.5825 0.7132 0.3899
vn 0.4151 0.3419 0.8431
vn 0.5994 0.6729 0.4335
vn 0.1981 0.8145 0.5454
vn -0.6779 0.6974 0.2327
vn 0.0011 0.9982 -0.0602
vn -0.0154 0.9999 -0.0063
vn -0.0154 0.9999 0.0063
vn 0.0011 0.9982 0.0602
vn 0.0031 0.9973 -0.0738
vn 0.0031 0.9973 0.0738
vn 0.9986 -0.0532 0.0000
vn -0.0158 0.0008 -0.9999
vn 1.0000 0.0011 0.0000
vn 1.0000 0.0012 -0.0009
vn 1.0000 0.0012 -0.0000
vn 1.0000 0.0013 -0.0018
vn -0.9986 0.0532 0.0028
vn -0.9986 0.0532 -0.0027
vn -0.9986 0.0532 -0.0028
vn 0.3929 0.9193 0.0234
vn 0.3974 0.9177 0.0013
vn 0.5299 0.8478 0.0226
vn 0.2665 0.9638 -0.0000
vn 0.3974 0.9177 -0.0000
vn 0.5299 0.8478 -0.0226
vn 0.3929 0.9193 -0.0233
vn 0.0013 1.0000 -0.0002
vn -0.0070 0.9998 0.0210
vn 0.4041 -0.0215 -0.9145
vn 0.4041 -0.0215 0.9145
vn 0.7332 0.6800 0.0002
vn 0.7360 0.6770 0.0039
vn 0.0012 1.0000 0.0006
vn 0.0012 1.0000 -0.0005
vn 0.0018 1.0000 0.0002
vn 0.0021 1.0000 -0.0003
vn 0.0010 1.0000 0.0005
vn 0.0019 1.0000 0.0003
vn 0.0020 1.0000 0.0003
vn 0.0021 1.0000 0.0003
vn -0.0158 0.0008 0.9999
vn 0.0000 1.0000 0.0000
vn 0.2664 0.9638 0.0000
vn 0.0026 0.9996 -0.0297
vn 0.5299 0.8477 -0.0226
vn 0.5299 0.8477 0.0226
vn 0.0026 0.9996 0.0298
vn -0.0001 0.0000 -1.0000
vn 1.0000 0.0013 0.0018
vn 1.0000 0.0012 0.0008
vn 0.3930 0.9192 -0.0233
vn 0.3974 0.9176 0.0002
vn -0.0070 0.9998 -0.0210
vn 0.0013 1.0000 0.0002
vn -0.0001 0.0000 1.0000
vn 0.7360 0.6770 -0.0039
vn 0.7332 0.6800 -0.0002
vn -0.2577 0.9662 0.0000
vn -0.2583 0.9661 0.0037
vn -0.4928 0.8702 -0.0000
vn -0.4936 0.8697 0.0057
vn -0.8571 0.5151 0.0028
vn -0.9661 0.2580 0.0004
vn -0.7965 0.6046 0.0000
vn -0.9065 0.4222 0.0000
vn -0.7969 0.6041 0.0004
vn -0.9775 0.2109 0.0008
vn -0.9662 0.2580 0.0000
vn -0.8572 0.5151 0.0005
vn -0.9661 0.2580 0.0000
vn -0.8571 0.5151 -0.0021
vn -0.4928 0.8702 -0.0001
vn -0.4935 0.8698 -0.0033
vn -0.2583 0.9661 -0.0037
vn -0.7971 0.6039 -0.0005
vn -0.9065 0.4222 -0.0006
vn -0.9775 0.2109 -0.0008
vn -0.9662 0.2580 -0.0007
vn -0.8572 0.5151 -0.0028
vn -0.0001 0.0002 1.0000
vn 0.0002 0.0289 0.9996
vn 0.0058 0.2302 0.9731
vn 0.0002 0.3285 0.9445
vn 0.0111 0.3976 0.9175
vn 0.0219 0.2603 0.9653
vn 0.4151 0.3420 0.8431
vn -0.0002 0.0003 1.0000
vn 0.1982 0.8144 0.5454
vn 0.0219 0.2605 -0.9652
vn 0.0111 0.3976 -0.9175
vn 0.0058 0.2302 -0.9731
vn 0.0002 0.3285 -0.9445
vn 0.0002 0.0288 -0.9996
vn 0.1980 0.8145 -0.5454
vn -0.0002 0.0003 -1.0000
vn 0.4152 0.3420 -0.8430
usemtl dmr_composite
s 1
f 1/1/1 2/2/1 3/3/1
f 2/2/1 4/4/1 3/3/1
f 5/5/1 6/6/1 7/7/1
f 6/6/1 8/8/1 7/7/1
f 9/9/2 10/10/3 11/11/4
f 10/10/3 12/12/5 11/11/4
f 13/13/3 9/9/6 14/14/7
f 9/9/6 15/15/8 14/14/7
f 15/15/8 16/16/9 14/14/7
f 14/14/7 16/16/9 17/17/10
f 18/18/11 19/19/12 20/20/13
f 19/19/12 21/21/14 20/20/13
f 20/20/13 21/21/14 22/22/15
f 22/22/15 21/21/14 23/23/16
f 21/21/14 24/24/17 23/23/16
f 23/23/16 24/24/17 25/25/18
f 24/24/17 26/26/19 25/25/18
f 25/25/18 26/26/19 27/27/20
f 26/26/19 28/28/9 27/27/20
f 27/27/20 28/28/9 15/15/8
f 29/29/21 30/30/22 31/31/23
f 30/30/22 32/32/24 31/31/23
f 31/31/23 32/32/24 33/33/25
f 34/34/26 31/31/23 35/35/27
f 31/31/23 33/33/25 35/35/27
f 35/35/27 33/33/25 36/36/28
f 36/36/28 33/33/25 37/37/29
f 33/33/25 38/38/30 37/37/29
f 39/39/31 40/40/32 41/41/33
f 40/40/32 42/42/34 41/41/33
f 41/41/33 42/42/34 43/43/35
f 44/44/36 45/45/37 41/41/33
f 41/41/33 45/45/37 39/39/31
f 45/45/37 46/46/38 39/39/31
f 46/46/38 47/47/39 39/39/31
f 39/39/31 47/47/39 48/48/40
f 49/49/41 50/50/42 51/51/43
f 50/50/42 52/52/44 51/51/43
f 52/52/44 53/53/45 51/51/43
f 51/51/43 53/53/45 54/54/46
f 55/55/11 54/54/46 56/56/47
f 54/54/46 53/53/45 56/56/47
f 56/56/47 53/53/45 57/57/48
f 53/53/45 52/52/44 57/57/48
f 57/57/48 52/52/44 58/58/49
f 59/59/46 60/60/50 61/61/51
f 60/60/50 62/62/52 61/61/51
f 62/62/52 63/63/53 61/61/51
f 61/61/51 63/63/53 64/64/41
f 65/65/54 62/62/52 66/66/55
f 62/62/52 60/60/50 66/66/55
f 66/66/55 60/60/50 67/67/56
f 60/60/50 59/59/46 67/67/56
f 67/67/56 59/59/46 68/68/57
f 69/69/10 70/70/58 71/71/59
f 70/70/58 72/72/60 71/71/59
f 72/72/60 73/73/61 71/71/59
f 71/71/59 73/73/61 74/74/3
f 73/73/61 75/75/62 74/74/3
f 74/74/3 75/75/62 76/76/5
f 72/72/63 77/77/58 78/78/64
f 77/77/58 79/79/65 78/78/64
f 78/78/64 79/79/65 80/80/66
f 79/79/65 81/81/67 80/80/66
f 80/80/66 81/81/67 82/82/68
f 81/81/67 83/83/69 82/82/68
f 82/82/68 83/83/69 84/84/48
f 84/84/48 83/83/69 85/85/70
f 83/83/69 86/86/12 85/85/70
f 85/85/70 86/86/12 87/87/11
usemtl dmr_metal
f 88/88/71 89/89/71 90/90/71
f 91/91/72 92/92/72 93/93/72
f 94/94/73 95/95/73 96/96/73
f 97/97/74 98/98/74 99/99/74
f 100/100/75 101/101/75 102/102/75
f 103/103/76 104/104/76 105/105/76
f 106/106/77 107/107/77 108/108/77
f 107/107/77 109/109/77 108/108/77
f 110/110/78 111/111/78 112/112/78
f 111/111/78 113/113/78 112/112/78
f 114/114/79 115/115/80 116/116/81
f 115/115/80 117/117/82 116/116/81
f 118/118/83 119/119/83 120/120/84
f 119/119/83 121/121/84 120/120/84
f 122/122/85 123/123/85 124/124/85
f 123/123/85 125/125/85 124/124/85
f 126/126/86 127/127/87 128/128/88
f 127/127/87 129/129/89 128/128/88
f 130/130/89 131/131/90 132/132/91
f 131/131/90 133/133/92 132/132/91
f 134/134/93 135/135/90 136/136/94
f 135/135/90 137/137/86 136/136/94
f 138/138/95 139/139/95 140/140/95
f 139/139/95 141/141/95 140/140/95
f 142/142/96 143/143/96 144/144/96
f 143/143/96 145/145/96 144/144/96
f 146/146/97 147/147/97 148/148/98
f 147/147/97 149/149/98 148/148/98
f 150/150/99 151/151/100 152/152/101
f 151/151/100 153/153/102 152/152/101
f 154/154/103 155/155/104 156/156/105
f 155/155/104 157/157/106 156/156/105
f 158/158/107 159/159/107 160/160/107
f 159/159/107 161/161/107 160/160/107
f 162/162/77 163/163/77 164/164/77
f 163/163/77 165/165/77 164/164/77
f 166/166/108 167/167/109 168/168/110
f 167/167/109 169/169/111 168/168/110
f 170/170/112 171/171/109 172/172/113
f 171/171/109 173/173/108 172/172/113
f 174/174/114 175/175/114 176/176/114
f 175/175/114 177/177/114 176/176/114
f 178/178/115 179/179/116 180/180/81
f 179/179/116 181/181/79 180/180/81
f 182/182/117 183/183/118 184/184/119
f 183/183/118 185/185/120 184/184/119
f 186/186/121 187/187/121 188/188/121
f 187/187/121 189/189/121 188/188/121
f 190/190/122 191/191/123 192/192/123
f 191/191/123 193/193/123 192/192/123
f 194/194/108 195/195/108 196/196/108
f 195/195/108 197/197/108 196/196/108
f 196/196/108 197/197/108 198/198/108
f 199/199/108 200/200/108 201/201/108
f 200/200/108 202/202/108 201/201/108
f 201/201/108 202/202/108 203/203/108
f 204/204/124 205/205/125 206/206/126
f 205/205/125 207/207/127 206/206/126
f 207/207/127 208/208/128 206/206/126
f 206/206/126 208/208/128 209/209/129
f 210/210/130 211/211/131 212/212/132
f 212/212/132 211/211/131 213/213/133
f 211/211/131 214/214/134 213/213/133
f 213/213/133 214/214/134 215/215/135
f 216/216/136 217/217/137 218/218/138
f 217/217/137 219/219/139 218/218/138
f 219/219/139 220/220/140 218/218/138
f 218/218/138 220/220/140 221/221/124
f 222/222/130 223/223/141 224/224/142
f 223/223/141 225/225/143 224/224/142
f 224/224/142 225/225/143 226/226/144
f 225/225/143 227/227/145 226/226/144
f 228/228/146 229/229/147 230/230/148
f 229/229/147 231/231/149 230/230/148
f 231/231/149 232/232/150 230/230/148
f 230/230/148 232/232/150 233/233/151
f 234/234/58 229/229/147 235/235/65
f 229/229/147 228/228/146 235/235/65
f 235/235/65 228/228/146 236/236/152
f 228/228/146 237/237/153 236/236/152
f 236/236/152 237/237/153 238/238/154
f 239/239/155 240/240/156 241/241/157
f 240/240/156 242/242/158 241/241/157
f 242/242/158 243/243/159 241/241/157
f 241/241/157 243/243/159 244/244/114
f 245/245/160 246/246/161 247/247/162
f 246/246/161 244/244/114 247/247/162
f 247/247/162 244/244/114 248/248/19
f 244/244/114 243/243/159 248/248/19
f 248/248/19 243/243/159 249/249/9
