# Blender v3.0.0 OBJ File: ''
# www.blender.org
mtllib Shotgun Shell.mtl
o SM_ShotgunShell12Gauge.001
v 0.056488 0.706314 -0.062113
v 0.083912 0.706313 -0.003891
v 0.004068 0.706313 0.083903
v -0.056488 0.706314 0.062113
v -0.083912 0.706313 0.003891
v -0.062178 0.706313 -0.056547
v -0.004068 0.706313 -0.083903
v 0.070899 0.719323 -0.077959
v 0.066104 0.728204 -0.072686
v 0.105259 0.719323 -0.004992
v 0.098158 0.728204 -0.004629
v 0.077598 0.719323 0.071144
v 0.072351 0.728204 0.066372
v 0.004992 0.719323 0.105259
v 0.004681 0.728204 0.098156
v -0.070899 0.719323 0.077959
v -0.066104 0.728204 0.072686
v -0.105259 0.719323 0.004992
v -0.098158 0.728204 0.004629
v -0.077959 0.719323 -0.070899
v -0.072712 0.728204 -0.066127
v -0.004992 0.719323 -0.105259
v -0.004681 0.728204 -0.098155
v 0.056829 0.719327 -0.062488
v 0.061817 0.728204 -0.067973
v 0.084416 0.719327 -0.003917
v 0.091803 0.728204 -0.004295
v 0.062190 0.719327 0.057131
v 0.067648 0.728204 0.062095
v 0.004090 0.719327 0.084408
v 0.004413 0.728204 0.091797
v -0.056829 0.719327 0.062488
v -0.061817 0.728204 0.067973
v -0.084416 0.719327 0.003917
v -0.091803 0.728204 0.004295
v -0.062551 0.719327 -0.056886
v -0.068009 0.728204 -0.061850
v -0.004089 0.719327 -0.084408
v -0.004413 0.728204 -0.091797
v 0.062178 0.706313 0.056547
v 0.070899 0.009826 -0.077959
v 0.105259 0.009826 -0.004992
v 0.077598 0.009826 0.071144
v 0.004992 0.009826 0.105259
v -0.070899 0.009826 0.077959
v -0.105259 0.009826 0.004992
v -0.077959 0.009826 -0.070899
v -0.004992 0.009826 -0.105259
v 0.078335 -0.001793 -0.086127
v 0.116296 -0.001793 -0.005512
v 0.085736 -0.001793 0.078604
v 0.005519 -0.001793 0.116295
v -0.078327 -0.001793 0.086134
v -0.116288 -0.001793 0.005519
v -0.086126 -0.001793 -0.078327
v -0.005511 -0.001793 -0.116288
v -0.028339 0.706314 0.078925
v -0.035622 0.719323 0.099022
v -0.033200 0.728204 0.092334
v -0.031031 0.728204 0.086354
v -0.028512 0.719327 0.079397
v -0.035622 0.009826 0.099021
v -0.039352 -0.001793 0.109404
v 0.035797 0.706313 0.075904
v 0.044615 0.719323 0.095282
v 0.041609 0.728204 0.088863
v 0.038919 0.728204 0.083111
v 0.035793 0.719327 0.076433
v 0.044615 0.009826 0.095282
v 0.049296 -0.001793 0.105273
v 0.078951 0.706313 0.028453
v 0.098879 0.719323 0.035763
v 0.092204 0.728204 0.033378
v 0.086223 0.728204 0.031245
v 0.079280 0.719327 0.028764
v 0.098879 0.009826 0.035763
v 0.109247 -0.001793 0.039515
v 0.075889 0.706313 -0.035681
v 0.095230 0.719323 -0.044830
v 0.088801 0.728204 -0.041786
v 0.083053 0.728204 -0.039061
v 0.076366 0.719327 -0.035894
v 0.095230 0.009826 -0.044830
v 0.105215 -0.001793 -0.049525
v 0.028339 0.706314 -0.078925
v 0.035619 0.719323 -0.099023
v 0.033197 0.728204 -0.092335
v 0.031028 0.728204 -0.086355
v 0.028509 0.719327 -0.079398
v 0.035619 0.009826 -0.099023
v 0.039356 -0.001793 -0.109398
v -0.035797 0.706313 -0.075904
v -0.044833 0.719323 -0.095209
v -0.041827 0.728204 -0.088790
v -0.039137 0.728204 -0.083038
v -0.036010 0.719327 -0.076360
v -0.044833 0.009826 -0.095209
v -0.049528 -0.001793 -0.105185
v -0.078951 0.706313 -0.028452
v -0.099024 0.719323 -0.035621
v -0.092349 0.728204 -0.033236
v -0.086369 0.728204 -0.031102
v -0.079425 0.719327 -0.028622
v -0.099024 0.009826 -0.035621
v -0.109400 -0.001793 -0.039351
v -0.075888 0.706313 0.035681
v -0.095209 0.719323 0.044833
v -0.088780 0.728204 0.041789
v -0.083032 0.728204 0.039064
v -0.076345 0.719327 0.035898
v -0.095209 0.009826 0.044833
v -0.105184 -0.001793 0.049536
v 0.078335 0.009826 -0.086127
v 0.116296 0.009826 -0.005512
v 0.085736 0.009826 0.078604
v -0.116288 0.009826 0.005519
v -0.086126 0.009826 -0.078327
v 0.005519 0.009826 0.116295
v -0.005511 0.009826 -0.116288
v -0.078327 0.009826 0.086134
v -0.039352 0.009826 0.109404
v 0.049296 0.009826 0.105273
v 0.109247 0.009826 0.039515
v 0.105215 0.009826 -0.049525
v 0.039356 0.009826 -0.109398
v -0.049528 0.009826 -0.105185
v -0.109400 0.009826 -0.039351
v -0.105184 0.009826 0.049536
vt 0.818530 0.004885
vt 0.862491 0.004885
vt 0.862491 0.020361
vt 0.818530 0.020361
vt 0.950659 0.004885
vt 0.906442 0.020361
vt 0.906442 0.004885
vt 0.950659 0.020361
vt 0.287790 0.004885
vt 0.332007 0.020361
vt 0.287790 0.020360
vt 0.332007 0.004885
vt 0.376224 0.020361
vt 0.420403 0.004885
vt 0.420403 0.020361
vt 0.376224 0.004885
vt 0.508759 0.020361
vt 0.464581 0.020361
vt 0.464581 0.004885
vt 0.508759 0.004885
vt 0.597153 0.004885
vt 0.641371 0.004885
vt 0.597153 0.020361
vt 0.641371 0.020361
vt 0.939533 0.908885
vt 0.885690 0.922597
vt 0.885690 0.908885
vt 0.939533 0.922597
vt 0.862491 0.041647
vt 0.906442 0.041647
vt 0.906442 0.055163
vt 0.862491 0.055163
vt 0.729814 0.020361
vt 0.685603 0.004885
vt 0.729814 0.004885
vt 0.685603 0.020361
vt 0.201969 0.376389
vt 0.179595 0.448780
vt 0.040268 0.461667
vt 0.004886 0.394578
vt 0.094211 0.286879
vt 0.027260 0.322187
vt 0.198096 0.414886
vt 0.112644 0.484088
vt 0.149694 0.473212
vt 0.074225 0.480214
vt 0.015790 0.431702
vt 0.166587 0.309299
vt 0.008759 0.356081
vt 0.057161 0.297755
vt 0.132630 0.290753
vt 0.191065 0.339265
vt 0.818530 0.034088
vt 0.818530 0.041647
vt 0.862491 0.034088
vt 0.994874 0.041647
vt 0.950659 0.055163
vt 0.950659 0.041647
vt 0.994874 0.055163
vt 0.950659 0.034088
vt 0.906442 0.034088
vt 0.376224 0.055163
vt 0.332007 0.055163
vt 0.332007 0.041647
vt 0.376224 0.041647
vt 0.287790 0.034088
vt 0.332007 0.034088
vt 0.287790 0.041647
vt 0.420403 0.055163
vt 0.464581 0.041647
vt 0.464581 0.055163
vt 0.420403 0.041647
vt 0.376224 0.034088
vt 0.420403 0.034088
vt 0.552938 0.055163
vt 0.508759 0.055163
vt 0.508759 0.041647
vt 0.552938 0.041647
vt 0.464581 0.034088
vt 0.508759 0.034088
vt 0.597153 0.055163
vt 0.641371 0.041647
vt 0.641371 0.055163
vt 0.597153 0.041647
vt 0.641371 0.034088
vt 0.597153 0.034088
vt 0.729814 0.034088
vt 0.685603 0.034088
vt 0.774156 0.004885
vt 0.774156 0.020361
vt 0.774156 0.034088
vt 0.994874 0.020361
vt 0.994874 0.034088
vt 0.552938 0.034088
vt 0.552938 0.020361
vt 0.685603 0.041647
vt 0.774156 0.041647
vt 0.729814 0.041647
vt 0.346781 0.908885
vt 0.400882 0.922597
vt 0.346781 0.922597
vt 0.400882 0.908885
vt 0.724163 0.908885
vt 0.670320 0.922597
vt 0.670320 0.908885
vt 0.724163 0.922597
vt 0.831848 0.908885
vt 0.778005 0.922597
vt 0.778005 0.908885
vt 0.831848 0.922597
vt 0.293225 0.922597
vt 0.239683 0.922597
vt 0.239683 0.908885
vt 0.293225 0.908885
vt 0.185839 0.922597
vt 0.132000 0.922597
vt 0.132000 0.908885
vt 0.185839 0.908885
vt 0.562637 0.908885
vt 0.616480 0.908885
vt 0.616480 0.922597
vt 0.562637 0.922597
vt 0.729814 0.055163
vt 0.685603 0.055163
vt 0.774156 0.055163
vt 0.818530 0.055163
vt 0.036054 0.053656
vt 0.004886 0.153933
vt 0.010453 0.100392
vt 0.246982 0.229133
vt 0.154095 0.278112
vt 0.053749 0.247078
vt 0.019883 0.205583
vt 0.278027 0.128814
vt 0.229044 0.035925
vt 0.262936 0.077413
vt 0.100792 0.272745
vt 0.128729 0.004883
vt 0.077325 0.019971
vt 0.182027 0.010250
vt 0.272657 0.182115
vt 0.205495 0.263024
vt 0.994874 0.004885
vt 0.454940 0.922597
vt 0.454940 0.908885
vt 0.508775 0.922597
vt 0.508775 0.908885
vt 0.552938 0.004885
vt 0.287790 0.055163
vt 0.993375 0.908885
vt 0.993375 0.922597
vt 0.220488 0.945907
vt 0.169200 0.932880
vt 0.220488 0.932880
vt 0.169200 0.945907
vt 0.271777 0.945907
vt 0.271777 0.932880
vt 0.323065 0.945907
vt 0.323065 0.932880
vt 0.374354 0.932880
vt 0.374354 0.945907
vt 0.425642 0.945907
vt 0.425642 0.932880
vt 0.476931 0.945907
vt 0.476931 0.932880
vt 0.528217 0.945907
vt 0.528217 0.932880
vt 0.579506 0.932880
vt 0.579506 0.945907
vt 0.630813 0.945907
vt 0.630813 0.932880
vt 0.682094 0.945907
vt 0.682094 0.932880
vt 0.733588 0.945907
vt 0.733588 0.932880
vt 0.785122 0.945907
vt 0.785122 0.932880
vt 0.836138 0.945907
vt 0.836138 0.932880
vt 0.887140 0.932880
vt 0.887140 0.945907
vt 0.938429 0.945907
vt 0.938429 0.932880
vt 0.989715 0.945907
vt 0.989715 0.932880
vt 0.287790 0.898272
vt 0.332007 0.898272
vt 0.420403 0.898272
vt 0.376224 0.898272
vt 0.464581 0.898272
vt 0.508759 0.898272
vt 0.552938 0.898272
vt 0.597153 0.898272
vt 0.641371 0.898272
vt 0.685603 0.898272
vt 0.729813 0.898272
vt 0.774156 0.898272
vt 0.818530 0.898272
vt 0.862491 0.898272
vt 0.906441 0.898272
vt 0.950659 0.898272
vt 0.994874 0.898272
vn -0.7387 0.0314 -0.6733
vn -0.4264 0.0368 -0.9038
vn -0.3993 0.3445 -0.8496
vn -0.6941 0.3426 -0.6332
vn 0.3383 0.0386 -0.9402
vn -0.0439 0.3466 -0.9370
vn -0.0471 0.0391 -0.9981
vn 0.3175 0.3468 -0.8826
vn 0.6723 0.0388 -0.7393
vn 0.8485 0.3469 -0.3996
vn 0.6309 0.3475 -0.6937
vn 0.6723 0.0374 -0.7393
vn 0.9040 0.0388 -0.4258
vn 0.9369 0.3468 -0.0444
vn 0.9403 0.0387 0.3382
vn 0.8829 0.3459 0.3175
vn 0.9981 0.0388 -0.0474
vn 0.3996 0.3460 0.8489
vn 0.6941 0.3461 0.6312
vn 0.7393 0.0387 0.6723
vn 0.4256 0.0387 0.9041
vn -0.3383 0.0387 0.9402
vn -0.6722 0.0385 0.7394
vn -0.3175 0.3468 0.8826
vn -0.6307 0.3476 0.6938
vn -0.9047 -0.0000 0.4260
vn -0.9989 0.0000 0.0474
vn 0.2398 0.8260 0.5101
vn 0.0264 0.8268 0.5619
vn 0.0468 0.0623 0.9970
vn 0.4245 0.0622 0.9033
vn -0.9370 0.3467 0.0430
vn -0.9039 0.0393 0.4259
vn -0.9982 0.0381 0.0464
vn -0.8484 0.3475 0.3993
vn -0.0000 1.0000 0.0000
vn -0.3907 0.8485 -0.3569
vn 0.2397 0.8260 0.5102
vn 0.4161 0.8262 0.3798
vn -0.2251 0.8484 -0.4792
vn -0.3780 0.8273 0.4156
vn -0.3378 0.0624 0.9392
vn -0.1904 0.8268 0.5293
vn -0.6715 0.0625 0.7384
vn 0.1790 0.8489 -0.4974
vn -0.0246 0.8489 -0.5279
vn -0.9969 0.0624 0.0473
vn -0.9030 0.0624 0.4252
vn -0.5090 0.8268 0.2394
vn -0.5619 0.8268 0.0268
vn -0.5089 0.8268 0.2397
vn 0.3552 0.8493 -0.3906
vn 0.4782 0.8489 -0.2252
vn -0.5088 0.8268 0.2397
vn -0.9391 0.0622 -0.3379
vn -0.4167 0.8262 -0.3790
vn -0.7384 0.0622 -0.6715
vn -0.5304 0.8260 -0.1907
vn 0.5279 0.8489 -0.0251
vn 0.4983 0.8483 0.1792
vn -0.0472 0.0624 -0.9969
vn -0.4252 0.0622 -0.9030
vn -0.2403 0.8260 -0.5098
vn -0.0265 0.8268 -0.5619
vn -0.2401 0.8260 -0.5099
vn 0.3915 0.8485 0.3560
vn 0.2256 0.8483 0.4791
vn -0.4168 0.8262 -0.3790
vn 0.3378 0.0624 -0.9391
vn 0.3779 0.8273 -0.4157
vn 0.6713 0.0625 -0.7385
vn 0.1904 0.8268 -0.5293
vn -0.3551 0.8493 0.3907
vn -0.1790 0.8488 0.4974
vn -0.5280 0.8489 0.0239
vn -0.4781 0.8488 0.2255
vn -0.9398 0.0319 -0.3403
vn -0.8829 0.3431 -0.3205
vn -0.4980 0.8482 -0.1803
vn -0.0247 0.8489 -0.5279
vn 0.1790 0.8488 -0.4975
vn 0.4783 0.8488 -0.2252
vn 0.8485 0.3469 -0.3997
vn 0.0250 0.8489 0.5280
vn 0.0442 0.3468 0.9369
vn 0.5088 0.8268 -0.2398
vn -0.4781 0.8489 0.2255
vn 0.5297 0.8261 0.1922
vn 0.5619 0.8268 -0.0255
vn 0.7383 0.0000 0.6745
vn 0.9399 -0.0000 0.3414
vn -0.4260 0.0000 -0.9047
vn -0.0473 0.0000 -0.9989
vn -0.9410 0.0000 -0.3385
vn -0.7398 -0.0000 -0.6728
vn 0.4252 0.0000 0.9051
vn 0.0471 -0.0000 0.9989
vn -0.3385 0.0000 0.9410
vn -0.6728 -0.0000 0.7398
vn 0.6727 0.0000 -0.7399
vn 0.3385 0.0000 -0.9410
vn 0.9970 0.0624 -0.0453
vn 0.5088 0.8268 -0.2399
vn 0.9970 0.0624 -0.0454
vn 0.9029 0.0624 -0.4254
vn 0.4161 0.8262 0.3797
vn 0.9380 0.0622 0.3411
vn 0.7372 0.0622 0.6728
vn -0.0000 -1.0000 -0.0000
vn 0.0471 -0.0001 0.9989
vn 0.3176 0.3468 -0.8825
vn 0.1789 0.8488 -0.4974
vn -0.3779 0.8273 0.4157
vn 0.3550 0.8493 -0.3908
vn 0.1789 0.8489 -0.4974
vn -0.3378 0.0624 0.9391
vn -0.2251 0.8483 -0.4792
vn -0.2251 0.8484 -0.4791
vn 0.9990 -0.0000 -0.0457
vn 0.9047 -0.0000 -0.4260
vn 0.6726 0.0000 -0.7400
vn 0.0472 0.0388 0.9981
vn -0.6728 -0.0001 0.7398
vn 0.9041 0.0374 -0.4258
vn 0.6727 -0.0000 -0.7400
usemtl M_ShotgunShell12Gauge_Red
s 1
f 40/1/1 64/2/2 68/3/3
f 40/1/1 68/3/3 28/4/4
f 57/5/5 30/6/6 3/7/7
f 30/6/6 57/5/5 61/8/8
f 4/9/9 110/10/10 32/11/11
f 110/10/10 4/9/12 106/12/13
f 34/13/14 99/14/15 103/15/16
f 99/14/15 34/13/14 5/16/17
f 96/17/18 36/18/19 6/19/20
f 96/17/18 6/19/20 92/20/21
f 85/21/22 1/22/23 89/23/24
f 24/24/25 89/23/24 1/22/23
f 112/25/26 116/26/27 54/27/27
f 116/26/27 112/25/26 128/28/26
f 66/29/28 15/30/29 14/31/30
f 66/29/28 14/31/30 65/32/31
f 26/33/32 78/34/33 2/35/34
f 78/34/33 26/33/32 82/36/35
f 85/37/36 92/38/36 106/39/36
f 57/40/36 85/37/36 106/39/36
f 71/41/36 57/40/36 64/42/36
f 92/38/36 85/37/36 7/43/36
f 92/38/36 99/44/36 106/39/36
f 99/44/36 92/38/36 6/45/36
f 106/39/36 99/44/36 5/46/36
f 57/40/36 106/39/36 4/47/36
f 57/40/36 78/48/36 85/37/36
f 64/42/36 57/40/36 3/49/36
f 71/41/36 64/42/36 40/50/36
f 78/48/36 57/40/36 71/41/36
f 78/48/36 71/41/36 2/51/36
f 85/37/36 78/48/36 1/52/36
f 29/53/37 66/29/38 13/54/39
f 66/29/38 29/53/37 67/55/40
f 17/56/41 58/57/42 59/58/43
f 58/57/42 17/56/41 16/59/44
f 15/30/29 60/60/45 59/58/43
f 60/60/45 15/30/29 31/61/46
f 18/62/47 107/63/48 108/64/49
f 108/64/49 19/65/50 18/62/47
f 108/64/51 33/66/52 109/67/53
f 33/66/52 108/64/54 17/68/41
f 100/69/55 21/70/56 20/71/57
f 21/70/56 100/69/55 101/72/58
f 35/73/59 101/72/58 19/65/50
f 101/72/58 35/73/59 102/74/60
f 22/75/61 93/76/62 94/77/63
f 22/75/61 94/77/63 23/78/64
f 94/77/65 37/79/66 95/80/67
f 37/79/66 94/77/65 21/70/68
f 86/81/69 9/82/70 8/83/71
f 9/82/70 86/81/69 87/84/72
f 25/85/73 87/84/72 88/86/74
f 87/84/72 25/85/73 9/82/70
f 27/87/75 82/36/35 26/33/32
f 27/87/75 81/88/76 82/36/35
f 71/89/77 26/33/32 2/35/34
f 26/33/32 71/89/77 75/90/78
f 28/4/4 74/91/79 75/90/78
f 74/91/79 28/4/4 29/53/37
f 68/3/3 30/6/6 31/61/80
f 68/3/3 31/61/46 67/55/40
f 32/92/11 60/60/81 61/8/8
f 60/60/81 32/92/11 33/93/52
f 35/73/59 109/67/82 110/10/83
f 110/10/83 34/13/14 35/73/59
f 102/74/60 36/18/19 37/79/66
f 36/18/19 102/74/60 103/15/16
f 39/94/84 95/80/67 96/17/18
f 39/94/84 96/17/18 38/95/85
f 88/86/74 24/24/25 25/85/73
f 24/24/25 88/86/74 89/23/24
f 80/96/86 25/85/73 81/88/87
f 25/85/73 80/96/86 9/82/70
f 73/97/88 27/87/75 74/91/79
f 27/87/75 73/97/88 11/98/89
f 51/99/90 123/100/91 115/101/90
f 123/100/91 51/99/90 77/102/91
f 98/103/92 119/104/93 56/105/93
f 119/104/93 98/103/92 126/106/92
f 105/107/94 117/108/95 55/109/95
f 117/108/95 105/107/94 127/110/94
f 122/111/96 118/112/97 52/113/97
f 122/111/96 52/113/97 70/114/96
f 121/115/98 120/116/99 53/117/99
f 121/115/98 53/117/99 63/118/98
f 49/119/100 91/120/101 125/121/101
f 49/119/100 125/121/101 113/122/100
f 10/123/102 80/96/103 11/98/89
f 10/123/104 79/124/105 80/96/86
f 13/54/106 72/125/107 73/97/88
f 72/125/107 13/54/106 12/126/108
f 70/127/109 77/128/109 51/129/109
f 77/128/109 98/130/109 91/131/109
f 77/128/109 84/132/109 50/133/109
f 105/134/109 77/128/109 112/135/109
f 105/134/109 112/135/109 54/136/109
f 84/132/109 91/131/109 49/137/109
f 77/128/109 91/131/109 84/132/109
f 63/138/109 77/128/109 70/127/109
f 63/138/109 70/127/109 52/139/109
f 112/135/109 77/128/109 63/138/109
f 112/135/109 63/138/109 53/140/109
f 98/130/109 77/128/109 105/134/109
f 98/130/109 105/134/109 55/141/109
f 91/131/109 98/130/109 56/142/109
f 118/112/110 121/115/98 63/118/98
f 118/112/97 63/118/98 52/113/97
f 61/8/111 31/61/46 30/6/6
f 31/61/46 61/8/8 60/60/112
f 17/56/113 59/58/43 33/93/114
f 33/93/52 59/58/43 60/60/115
f 59/58/43 14/31/30 15/30/29
f 14/31/30 59/58/43 58/57/116
f 4/143/9 61/8/8 57/5/5
f 61/8/8 4/143/9 32/92/11
f 115/101/90 122/111/96 70/114/96
f 115/101/90 70/114/96 51/99/90
f 67/55/117 29/53/37 28/4/4
f 28/4/4 68/3/3 67/55/117
f 66/29/28 31/61/46 15/30/29
f 67/55/118 31/61/46 66/29/28
f 13/54/106 66/29/28 65/32/31
f 13/54/106 65/32/31 12/126/108
f 64/2/2 3/7/7 30/6/6
f 64/2/2 30/6/6 68/3/3
f 73/97/88 10/123/102 11/98/89
f 10/123/102 73/97/88 72/125/107
f 77/102/91 114/144/119 123/100/91
f 114/144/119 77/102/91 50/145/119
f 13/54/39 74/91/79 29/53/37
f 74/91/79 13/54/39 73/97/88
f 75/90/78 27/87/75 26/33/32
f 27/87/75 75/90/78 74/91/79
f 40/1/1 75/90/78 71/89/77
f 75/90/78 40/1/1 28/4/4
f 79/124/105 9/82/70 80/96/86
f 79/124/105 8/83/71 9/82/70
f 11/98/89 81/88/87 27/87/75
f 81/88/87 11/98/89 80/96/86
f 81/88/87 25/85/73 24/24/25
f 81/88/87 24/24/25 82/36/35
f 82/36/35 1/22/23 78/34/33
f 1/22/23 82/36/35 24/24/25
f 124/146/120 49/119/121 113/122/121
f 49/119/121 124/146/120 84/147/120
f 56/105/93 125/121/101 91/120/101
f 125/121/101 56/105/93 119/104/93
f 39/94/84 89/23/24 88/86/74
f 89/23/24 39/94/84 38/95/85
f 88/86/74 23/78/64 39/94/84
f 23/78/64 88/86/74 87/84/72
f 22/75/61 87/84/72 86/81/69
f 87/84/72 22/75/61 23/78/64
f 7/148/122 85/21/22 38/95/85
f 89/23/24 38/95/85 85/21/22
f 55/109/95 126/106/92 98/103/92
f 126/106/92 55/109/95 117/108/95
f 36/18/19 95/80/67 37/79/66
f 95/80/67 36/18/19 96/17/18
f 23/78/64 94/77/63 39/94/84
f 39/94/84 94/77/63 95/80/67
f 93/76/62 20/71/57 21/70/56
f 21/70/56 94/77/63 93/76/62
f 38/95/85 96/17/18 92/20/21
f 38/95/85 92/20/21 7/148/122
f 54/27/27 127/110/94 105/107/94
f 127/110/94 54/27/27 116/26/27
f 35/73/59 103/15/16 102/74/60
f 103/15/16 35/73/59 34/13/14
f 101/72/58 37/79/66 21/70/56
f 37/79/66 101/72/58 102/74/60
f 18/62/47 101/72/58 100/69/55
f 101/72/58 18/62/47 19/65/50
f 103/15/16 6/19/20 36/18/19
f 6/19/20 103/15/16 99/14/15
f 109/67/82 32/11/11 110/10/10
f 32/11/11 109/67/82 33/66/52
f 19/65/50 109/67/53 35/73/59
f 109/67/53 19/65/50 108/64/49
f 107/63/48 16/149/44 17/68/41
f 17/68/41 108/64/49 107/63/48
f 53/150/99 128/28/26 112/25/26
f 128/28/26 53/150/99 120/151/123
f 106/12/13 34/13/14 110/10/10
f 34/13/14 106/12/124 5/16/17
f 128/152/36 45/153/36 111/154/36
f 45/153/36 128/152/36 120/155/36
f 116/156/36 128/152/36 46/157/36
f 111/154/36 46/157/36 128/152/36
f 46/157/36 127/158/36 116/156/36
f 127/158/36 46/157/36 104/159/36
f 127/158/36 47/160/36 117/161/36
f 47/160/36 127/158/36 104/159/36
f 126/162/36 47/160/36 97/163/36
f 47/160/36 126/162/36 117/161/36
f 119/164/36 126/162/36 48/165/36
f 48/165/36 126/162/36 97/163/36
f 125/166/36 48/165/36 90/167/36
f 48/165/36 125/166/36 119/164/36
f 90/167/36 41/168/36 125/166/36
f 125/166/36 41/168/36 113/169/36
f 124/170/36 41/168/36 83/171/36
f 41/168/36 124/170/36 113/169/36
f 114/172/36 124/170/36 42/173/36
f 42/173/36 124/170/36 83/171/36
f 123/174/36 42/173/36 76/175/36
f 42/173/36 123/174/36 114/172/36
f 115/176/36 123/174/36 43/177/36
f 76/175/36 43/177/36 123/174/36
f 43/177/36 122/178/36 115/176/36
f 122/178/36 43/177/36 69/179/36
f 122/178/36 44/180/36 118/181/36
f 44/180/36 122/178/36 69/179/36
f 121/182/36 44/180/36 62/183/36
f 44/180/36 121/182/36 118/181/36
f 120/184/36 121/182/36 45/185/36
f 45/185/36 121/182/36 62/183/36
f 45/186/99 107/63/48 111/187/26
f 107/63/48 45/186/99 16/149/44
f 18/62/47 104/188/94 46/189/27
f 104/188/94 18/62/47 100/69/55
f 100/69/55 47/190/95 104/188/94
f 47/190/95 100/69/55 20/71/57
f 47/190/95 93/76/62 97/191/92
f 93/76/62 47/190/95 20/71/57
f 97/191/92 22/75/61 48/192/93
f 22/75/61 97/191/92 93/76/62
f 90/193/101 22/75/61 86/81/69
f 22/75/61 90/193/101 48/192/93
f 41/194/125 86/81/69 8/83/71
f 86/81/69 41/194/125 90/193/101
f 79/124/105 83/195/120 41/194/125
f 79/124/105 41/194/125 8/83/71
f 10/123/102 42/196/119 83/195/120
f 10/123/102 83/195/120 79/124/105
f 76/197/91 10/123/102 72/125/107
f 10/123/102 76/197/91 42/196/119
f 43/198/90 72/125/107 12/126/108
f 72/125/107 43/198/90 76/197/91
f 12/126/108 69/199/96 43/198/90
f 69/199/96 12/126/108 65/32/31
f 69/199/96 65/32/31 14/31/30
f 14/31/30 44/200/97 69/199/96
f 14/31/30 62/201/98 44/200/97
f 62/201/98 14/31/30 58/57/42
f 58/57/42 45/202/99 62/201/98
f 45/202/99 58/57/42 16/59/44
f 111/187/26 107/63/48 18/62/47
f 111/187/26 18/62/47 46/189/27
f 50/145/119 124/146/120 114/144/119
f 124/146/120 50/145/119 84/147/120
