# Blender v2.83.5 OBJ File: ''
# www.blender.org
mtllib Warthog MG Turret Gun Barrels.mtl
o Warthog
v 0.004943 1.995261 0.016964
v -0.015872 1.995261 -0.016964
v -0.015872 1.995261 0.016964
v 0.004943 1.995261 -0.016964
v 0.004943 1.927503 -0.056084
v -0.015872 1.898119 -0.039120
v -0.015872 1.927503 -0.056084
v 0.004943 1.898119 -0.039120
v 0.004943 1.898119 0.039120
v -0.015872 1.927503 0.056084
v -0.015872 1.898119 0.039120
v 0.004943 1.927503 0.056084
v 0.489192 1.992152 0.000303
v 0.489192 1.953732 0.023275
v 0.489192 1.985653 0.014000
v 0.489192 1.953732 -0.023275
v 0.489192 1.985653 -0.013995
v 0.489192 1.929743 0.046281
v 0.489192 1.914653 0.045072
v 0.489192 1.913419 0.000000
v 0.004943 1.954941 0.025370
v -0.015872 1.954941 0.025370
v -0.015872 1.910999 0.000000
v 0.004943 1.910999 0.000000
v 0.498885 1.985653 -0.013995
v 0.498885 1.953732 -0.023275
v 0.489192 1.929743 -0.046276
v 0.498885 1.929743 -0.046276
v 0.498885 1.985653 0.014000
v 0.498885 1.992152 0.000121
v 0.498885 1.953732 0.023275
v 0.498885 1.929743 0.046281
v 0.489192 1.905496 -0.032279
v 0.498885 1.905496 -0.032279
v 0.498885 1.913419 0.000000
v 0.489192 1.905496 0.032281
v 0.498885 1.905496 0.032281
v 0.489192 1.914596 -0.045036
v 0.498885 1.914539 -0.045004
v 0.498885 1.914581 0.045032
v 0.004943 1.954941 -0.025370
v 0.522124 1.984012 0.000000
v 0.522124 1.964927 -0.011018
v 0.522124 1.977650 -0.011018
v 0.522122 1.958565 0.000000
v 0.522122 1.964927 0.011018
v 0.522122 1.977650 0.011018
v -0.015872 1.954941 -0.025370
v 0.522122 1.931159 -0.037860
v 0.522122 1.937521 -0.026842
v 0.522122 1.918436 -0.037860
v 0.522122 1.931159 -0.015823
v 0.522122 1.918436 -0.015823
v 0.522122 1.912074 -0.026842
v 0.522124 1.918436 0.037860
v 0.522124 1.937521 0.026842
v 0.522124 1.931159 0.037860
v 0.522122 1.931159 0.015824
v 0.522122 1.918436 0.015824
v 0.522122 1.912074 0.026842
v -0.153290 1.963654 -0.013221
v -0.153290 1.978922 -0.013221
v -0.153290 1.986556 0.000000
v -0.153290 1.978922 0.013222
v -0.153290 1.963654 0.013222
v -0.153290 1.956020 0.000000
v -0.322059 1.945842 0.000000
v -0.322059 1.958565 0.022037
v -0.322059 1.984012 0.022037
v -0.322059 1.996735 0.000000
v -0.322059 1.984012 -0.022037
v -0.322059 1.958565 -0.022037
v -0.153290 1.917164 -0.013620
v -0.153290 1.932432 -0.013620
v -0.153290 1.940066 -0.026842
v -0.153290 1.932432 -0.040063
v -0.153290 1.917164 -0.040063
v -0.153290 1.909530 -0.026842
v -0.322059 1.912074 -0.004805
v -0.322059 1.899351 -0.026842
v -0.322059 1.912074 -0.048878
v -0.322059 1.937521 -0.048878
v -0.322059 1.950244 -0.026842
v -0.322059 1.937521 -0.004805
v -0.153290 1.940066 0.026842
v -0.153290 1.932432 0.040063
v -0.153290 1.917164 0.040063
v -0.153290 1.909530 0.026842
v -0.153290 1.917164 0.013620
v -0.153290 1.932432 0.013620
v -0.322059 1.937521 0.004805
v -0.322059 1.912074 0.004805
v -0.322059 1.899351 0.026842
v -0.322059 1.912074 0.048879
v -0.322059 1.937521 0.048879
v -0.322059 1.950244 0.026842
vt 1.832900 -0.534800
vt 1.857900 -0.534800
vt 1.832900 -0.534800
vt 1.857900 -0.534800
vt 1.886700 -0.584800
vt 1.874200 -0.606400
vt 1.886700 -0.584800
vt 1.874200 -0.606400
vt 1.816600 -0.606400
vt 1.804100 -0.584800
vt 1.816600 -0.606400
vt 1.804100 -0.584800
vt 1.845200 -0.534800
vt 1.828300 -0.565400
vt 1.832900 -0.534800
vt 1.862600 -0.565400
vt 1.857900 -0.534800
vt 1.804100 -0.584800
vt 1.810200 -0.595400
vt 1.845400 -0.595100
vt 1.828300 -0.565400
vt 1.828300 -0.565400
vt 1.845400 -0.595100
vt 1.845400 -0.595100
vt 1.857900 -0.534800
vt 1.862600 -0.565400
vt 1.886700 -0.584800
vt 1.886700 -0.584800
vt 1.832900 -0.534800
vt 1.845300 -0.534800
vt 1.828300 -0.565400
vt 1.804100 -0.584800
vt 1.874200 -0.606400
vt 1.874200 -0.606400
vt 1.845400 -0.595100
vt 1.816600 -0.606400
vt 1.816600 -0.606400
vt 1.880600 -0.595400
vt 1.880600 -0.595500
vt 1.810200 -0.595400
vt 1.862600 -0.565400
vt 1.316700 -0.141300
vt 1.396100 -0.095500
vt 1.343100 -0.095500
vt 1.422600 -0.141300
vt 1.396100 -0.095400
vt 1.343100 -0.095400
vt 1.862600 -0.565400
vt 1.343100 -0.095400
vt 1.396100 -0.095400
vt 1.316700 -0.141300
vt 1.422600 -0.141300
vt 1.396100 -0.095500
vt 1.343100 -0.095500
vt 1.316700 -0.141300
vt 1.396100 -0.095500
vt 1.343100 -0.095500
vt 1.422600 -0.141300
vt 1.396100 -0.095400
vt 1.343100 -0.095400
vt 1.991300 -0.029900
vt 1.602600 -0.030700
vt 1.991300 -0.022400
vt 1.602600 -0.021600
vt 1.991300 -0.015000
vt 1.602600 -0.013400
vt 1.991300 -0.022400
vt 1.602600 -0.021600
vt 1.991300 -0.029900
vt 1.602600 -0.030700
vt 1.991300 -0.037100
vt 1.602600 -0.038600
vt 1.501200 -0.041600
vt 1.501200 -0.032200
vt 1.501200 -0.020100
vt 1.501200 -0.010400
vt 1.501200 -0.020100
vt 1.501200 -0.032200
vt 1.991300 -0.029900
vt 1.602600 -0.030700
vt 1.991300 -0.022400
vt 1.602600 -0.038600
vt 1.991300 -0.037100
vt 1.602600 -0.030700
vt 1.991300 -0.029900
vt 1.602600 -0.021600
vt 1.991300 -0.022400
vt 1.602600 -0.013400
vt 1.991300 -0.015000
vt 1.602600 -0.021600
vt 1.501200 -0.032200
vt 1.501200 -0.020100
vt 1.501200 -0.010400
vt 1.501200 -0.020100
vt 1.501200 -0.032200
vt 1.501200 -0.041600
vt 1.991300 -0.029900
vt 1.602600 -0.030700
vt 1.991300 -0.022400
vt 1.602600 -0.021600
vt 1.991300 -0.015000
vt 1.602600 -0.013400
vt 1.991300 -0.022400
vt 1.602600 -0.021600
vt 1.991300 -0.029900
vt 1.602600 -0.030700
vt 1.991300 -0.037100
vt 1.602600 -0.038600
vt 1.501200 -0.041600
vt 1.501200 -0.032200
vt 1.501200 -0.020100
vt 1.501200 -0.010400
vt 1.501200 -0.020100
vt 1.501200 -0.032200
vn 0.5889 0.6271 0.5098
vn -0.5889 0.6271 -0.5098
vn -0.5889 0.6271 0.5098
vn 0.5889 0.6271 -0.5098
vn 0.5889 0.1280 -0.7980
vn -0.5889 -0.7551 -0.2882
vn -0.5889 0.1280 -0.7980
vn 0.5889 -0.7551 -0.2882
vn 0.5889 -0.7551 0.2882
vn -0.5889 0.1280 0.7980
vn -0.5889 -0.7551 0.2882
vn 0.5889 0.1280 0.7980
vn -0.6238 0.7815 0.0091
vn -0.7649 0.3221 0.5578
vn -0.6254 0.5058 0.5941
vn -0.7649 0.3221 -0.5578
vn -0.6246 0.5102 -0.5912
vn -0.6252 0.2614 0.7353
vn -0.6232 -0.3839 0.6813
vn -0.7649 -0.6442 0.0000
vn 0.7847 0.3099 0.5368
vn -0.7847 0.3099 0.5368
vn -0.7847 -0.6198 0.0000
vn 0.7847 -0.6198 0.0000
vn 0.6245 0.5097 -0.5917
vn 0.7649 0.3221 -0.5578
vn -0.6253 0.2612 -0.7353
vn 0.6253 0.2610 -0.7354
vn 0.6255 0.5063 0.5936
vn 0.6239 0.7815 -0.0002
vn 0.7649 0.3221 0.5578
vn 0.6253 0.2611 0.7354
vn -0.6243 -0.7672 -0.1466
vn 0.6243 -0.7673 -0.1464
vn 0.7649 -0.6442 0.0000
vn -0.6240 -0.7673 0.1478
vn 0.6240 -0.7673 0.1475
vn -0.6236 -0.3851 -0.6802
vn 0.6236 -0.3881 -0.6786
vn 0.6232 -0.3876 0.6792
vn 0.7847 0.3099 -0.5368
vn 0.6114 0.7913 0.0000
vn 0.6114 -0.3956 -0.6852
vn 0.6114 0.3956 -0.6853
vn 0.6113 -0.7913 0.0000
vn 0.6114 -0.3956 0.6853
vn 0.6113 0.3956 0.6854
vn -0.7847 0.3099 -0.5368
vn 0.6114 -0.3956 -0.6853
vn 0.6114 0.3956 0.6853
vn 0.6114 -0.7913 0.0000
vn 0.6113 0.3956 -0.6853
vn 0.0323 -0.4997 -0.8656
vn 0.0323 0.4997 -0.8656
vn 0.0323 0.9995 0.0000
vn 0.0323 0.4997 0.8656
vn 0.0323 -0.4997 0.8656
vn 0.0323 -0.9995 0.0000
vn 0.0602 -0.9982 0.0000
vn 0.0602 -0.4991 0.8644
vn 0.0602 0.4991 0.8644
vn 0.0602 0.9982 0.0000
vn 0.0602 0.4991 -0.8644
vn 0.0602 -0.4991 -0.8644
usemtl warthog_chain_gun
s 1
f 1/1/1 2/2/2 3/3/3
f 2/2/2 1/1/1 4/4/4
f 5/5/5 6/6/6 7/7/7
f 6/6/6 5/5/5 8/8/8
f 9/9/9 10/10/10 11/11/11
f 10/10/10 9/9/9 12/12/12
f 13/13/13 14/14/14 15/15/15
f 14/14/14 13/13/13 16/16/16
f 17/17/17 16/16/16 13/13/13
f 18/18/18 14/14/14 19/19/19
f 19/19/19 14/14/14 20/20/20
f 16/16/16 20/20/20 14/14/14
f 1/1/1 3/3/3 21/21/21
f 22/22/22 21/21/21 3/3/3
f 21/21/21 22/22/22 12/12/12
f 10/10/10 12/12/12 22/22/22
f 6/6/6 8/8/8 23/23/23
f 24/24/24 23/23/23 8/8/8
f 23/23/23 24/24/24 11/11/11
f 9/9/9 11/11/11 24/24/24
f 17/17/17 25/25/25 16/16/16
f 26/26/26 16/16/16 25/25/25
f 16/16/16 26/26/26 27/27/27
f 28/28/28 27/27/27 26/26/26
f 15/15/15 29/29/29 13/13/13
f 30/30/30 13/13/13 29/29/29
f 13/13/13 30/30/30 17/17/17
f 25/25/25 17/17/17 30/30/30
f 29/29/29 15/15/15 31/31/31
f 14/14/14 31/31/31 15/15/15
f 31/31/31 14/14/14 32/32/32
f 18/18/18 32/32/32 14/14/14
f 33/33/33 34/34/34 20/20/20
f 35/35/35 20/20/20 34/34/34
f 20/20/20 35/35/35 36/36/36
f 37/37/37 36/36/36 35/35/35
f 27/27/27 28/28/28 38/38/38
f 39/39/39 38/38/38 28/28/28
f 38/38/38 39/39/39 33/33/33
f 34/34/34 33/33/33 39/39/39
f 36/36/36 37/37/37 19/19/19
f 40/40/40 19/19/19 37/37/37
f 19/19/19 40/40/40 18/18/18
f 32/32/32 18/18/18 40/40/40
f 29/29/29 31/31/31 30/30/30
f 26/26/26 30/30/30 31/31/31
f 30/30/30 26/26/26 25/25/25
f 40/40/40 31/31/31 32/32/32
f 28/28/28 26/26/26 39/39/39
f 35/35/35 39/39/39 26/26/26
f 39/39/39 35/35/35 34/34/34
f 21/21/21 4/4/4 1/1/1
f 4/4/4 21/21/21 41/41/41
f 41/41/41 21/21/21 24/24/24
f 12/12/12 24/24/24 21/21/21
f 24/24/24 12/12/12 9/9/9
f 8/8/8 41/41/41 24/24/24
f 41/41/41 8/8/8 5/5/5
f 42/42/42 43/43/43 44/44/44
f 43/43/43 42/42/42 45/45/45
f 45/45/45 42/42/42 46/46/46
f 47/47/47 46/46/46 42/42/42
f 3/3/3 2/2/2 22/22/22
f 48/48/48 22/22/22 2/2/2
f 23/23/23 22/22/22 48/48/48
f 22/22/22 23/23/23 10/10/10
f 11/11/11 10/10/10 23/23/23
f 7/7/7 6/6/6 48/48/48
f 23/23/23 48/48/48 6/6/6
f 49/49/44 50/50/42 51/51/49
f 52/52/50 51/51/49 50/50/42
f 53/53/46 51/51/49 52/52/50
f 51/51/49 53/53/46 54/54/51
f 55/55/46 56/56/42 57/57/50
f 56/56/42 55/55/46 58/58/52
f 58/58/52 55/55/46 59/59/49
f 60/60/45 59/59/49 55/55/46
f 37/37/37 35/35/35 40/40/40
f 40/40/40 35/35/35 31/31/31
f 26/26/26 31/31/31 35/35/35
f 2/2/2 4/4/4 48/48/48
f 41/41/41 48/48/48 4/4/4
f 48/48/48 41/41/41 7/7/7
f 5/5/5 7/7/7 41/41/41
f 43/61/43 61/62/53 44/63/44
f 62/64/54 44/63/44 61/62/53
f 44/63/44 62/64/54 42/65/42
f 63/66/55 42/65/42 62/64/54
f 42/65/42 63/66/55 47/67/47
f 64/68/56 47/67/47 63/66/55
f 47/67/47 64/68/56 46/69/46
f 65/70/57 46/69/46 64/68/56
f 46/69/46 65/70/57 45/71/45
f 66/72/58 45/71/45 65/70/57
f 45/71/45 66/72/58 43/61/43
f 43/61/43 66/72/58 61/62/53
f 61/62/53 66/72/58 67/73/59
f 67/73/59 66/72/58 68/74/60
f 65/70/57 68/74/60 66/72/58
f 68/74/60 65/70/57 69/75/61
f 64/68/56 69/75/61 65/70/57
f 69/75/61 64/68/56 70/76/62
f 63/66/55 70/76/62 64/68/56
f 70/76/62 63/66/55 71/77/63
f 62/64/54 71/77/63 63/66/55
f 71/77/63 62/64/54 72/78/64
f 61/62/53 72/78/64 62/64/54
f 72/78/64 61/62/53 67/73/59
f 53/79/46 73/80/57 54/81/51
f 73/80/57 53/79/46 74/82/56
f 52/83/50 74/82/56 53/79/46
f 74/82/56 52/83/50 75/84/55
f 50/85/42 75/84/55 52/83/50
f 75/84/55 50/85/42 76/86/54
f 49/87/44 76/86/54 50/85/42
f 76/86/54 49/87/44 77/88/53
f 51/89/49 77/88/53 49/87/44
f 77/88/53 51/89/49 78/90/58
f 54/81/51 78/90/58 51/89/49
f 73/80/57 78/90/58 54/81/51
f 79/91/60 78/90/58 73/80/57
f 80/92/59 78/90/58 79/91/60
f 78/90/58 80/92/59 77/88/53
f 81/93/64 77/88/53 80/92/59
f 77/88/53 81/93/64 76/86/54
f 82/94/63 76/86/54 81/93/64
f 76/86/54 82/94/63 75/84/55
f 83/95/62 75/84/55 82/94/63
f 75/84/55 83/95/62 74/82/56
f 84/96/61 74/82/56 83/95/62
f 74/82/56 84/96/61 73/80/57
f 79/91/60 73/80/57 84/96/61
f 56/97/42 85/98/55 57/99/50
f 86/100/56 57/99/50 85/98/55
f 57/99/50 86/100/56 55/101/46
f 87/102/57 55/101/46 86/100/56
f 55/101/46 87/102/57 60/103/45
f 88/104/58 60/103/45 87/102/57
f 60/103/45 88/104/58 59/105/49
f 89/106/53 59/105/49 88/104/58
f 59/105/49 89/106/53 58/107/52
f 90/108/54 58/107/52 89/106/53
f 58/107/52 90/108/54 56/97/42
f 56/97/42 90/108/54 85/98/55
f 85/98/55 90/108/54 91/109/63
f 91/109/63 90/108/54 92/110/64
f 89/106/53 92/110/64 90/108/54
f 92/110/64 89/106/53 93/111/59
f 88/104/58 93/111/59 89/106/53
f 93/111/59 88/104/58 94/112/60
f 87/102/57 94/112/60 88/104/58
f 94/112/60 87/102/57 95/113/61
f 86/100/56 95/113/61 87/102/57
f 95/113/61 86/100/56 96/114/62
f 85/98/55 96/114/62 86/100/56
f 96/114/62 85/98/55 91/109/63
f 36/36/36 19/19/19 20/20/20
f 38/38/38 16/16/16 27/27/27
f 16/16/16 38/38/38 20/20/20
f 33/33/33 20/20/20 38/38/38
