# Blender v2.83.5 OBJ File: ''
# www.blender.org
mtllib Warthog MG Turret Base.mtl
o Warthog
v -0.292618 1.781824 0.063616
v -0.335349 1.825308 -0.063616
v -0.335349 1.825308 0.063616
v -0.292618 1.781824 -0.063616
v -1.163971 0.913346 -0.029009
v -0.875147 1.058578 -0.029503
v -0.875158 0.913338 -0.029503
v -1.067974 1.159923 -0.029007
v -1.307385 0.913329 -0.029007
v -0.330431 1.744668 -0.063616
v -0.330431 1.744668 0.063616
v -0.387828 1.717000 -0.063616
v -0.387828 1.717000 0.063616
v -0.373162 1.788152 -0.063616
v -0.412625 1.772695 -0.063616
v -0.373162 1.788152 0.063616
v -0.412625 1.772695 0.063616
v -0.875158 0.913338 0.029503
v -0.875147 1.058578 0.029503
v -0.803613 1.132252 0.029503
v -0.803613 1.132252 -0.029503
v -1.002121 1.227685 -0.029503
v -0.896724 1.228158 -0.029503
v -0.896726 1.228158 0.029503
v -0.874804 1.198617 0.000000
v -0.933810 0.913342 0.216253
v -0.874804 0.913342 0.216253
v -0.933810 1.198617 0.000000
v -0.874804 0.913342 -0.216253
v -0.933810 0.913342 -0.216253
v -0.753248 1.364960 0.212041
v -0.663282 1.364960 0.212041
v -0.708265 1.409943 0.212041
v -0.708265 1.319977 0.212041
v -0.663282 1.364960 0.102397
v -0.708265 1.409943 0.119444
v -0.753248 1.364960 0.119444
v -0.708265 1.319977 0.102397
v -0.625598 1.492610 0.212041
v -0.535632 1.492610 0.212041
v -0.580615 1.537593 0.212041
v -0.580615 1.447627 0.212041
v -0.535632 1.492610 0.102397
v -0.580615 1.537593 0.119444
v -0.625598 1.492610 0.119444
v -0.580615 1.447627 0.102397
v -1.315004 0.999669 -0.218144
v -1.222477 0.901215 -0.230488
v -1.213252 0.913813 -0.243417
v -1.314088 0.901219 -0.207463
v -1.346802 0.901230 -0.194780
v -1.354298 1.008495 -0.204002
v -1.358989 0.901230 -0.159655
v -1.369076 1.007836 -0.160769
v -1.351734 0.901230 -0.126936
v -1.360407 1.007836 -0.121668
v -1.325847 0.901230 -0.100257
v -1.328743 1.008495 -0.088730
v -1.290837 0.901230 -0.102587
v -1.287153 0.999680 -0.092519
v -1.198080 0.901230 -0.120436
v -1.184254 0.913828 -0.112618
v -1.213244 0.913828 0.243415
v -1.222468 0.901230 0.230486
v -1.314996 0.999680 0.218142
v -1.314080 0.901230 0.207461
v -1.354290 1.008495 0.204000
v -1.346796 0.901230 0.194778
v -1.369070 1.007836 0.160767
v -1.358982 0.901230 0.159658
v -1.360401 1.007836 0.121666
v -1.351728 0.901230 0.126938
v -1.328735 1.008495 0.088728
v -1.325840 0.901230 0.100255
v -1.287147 0.999669 0.092519
v -1.290830 0.901219 0.102585
v -1.198071 0.901215 0.120434
v -1.184248 0.913813 0.112616
v -0.564920 1.691810 0.122150
v -0.563067 1.736723 0.191519
v -0.563065 1.736725 0.086798
v -0.565154 1.690847 0.191903
v -0.580615 1.658373 0.133151
v -0.580661 1.658326 0.194914
v -0.901022 1.331895 0.133802
v -0.908628 1.324049 0.195164
v -0.972416 1.258348 0.158025
v -0.949008 1.282460 0.106220
v -1.050861 1.177551 0.046578
v -1.002121 1.227685 0.029503
v -1.079836 1.147704 0.029997
v -1.307385 0.913329 0.029999
v -1.339624 0.913832 -0.064414
v -1.382870 0.913832 -0.109742
v -1.394474 0.913832 -0.162086
v -1.374437 0.913832 -0.221442
v -1.339617 0.913832 0.064411
v -1.382862 0.913832 0.109740
v -1.394465 0.913832 0.162084
v -1.374428 0.913832 0.221440
v -0.931303 1.152995 0.030139
v -0.877308 1.208608 0.106220
v -0.829322 1.258045 0.133800
v -0.512155 1.588686 0.133151
v -0.535931 1.669249 0.110951
v -0.460630 1.637057 0.086798
v -0.404909 1.804200 -0.086798
v -0.535928 1.804200 -0.086798
v -0.470419 1.832149 -0.086798
v -0.563065 1.736725 -0.086798
v -0.377774 1.736725 -0.086798
v -0.404909 1.669249 -0.086798
v -0.535928 1.669249 -0.086798
v -0.470419 1.641300 -0.086798
v -1.163969 0.913346 0.029999
v -1.008137 1.073854 0.029997
v -0.979160 1.103699 0.046576
v -0.900717 1.184498 0.158025
v -0.836929 1.250199 0.195164
v -0.512149 1.588677 0.194914
v -0.460630 1.641298 0.191519
v -0.404913 1.669247 0.186326
v -0.536535 1.803791 0.186330
v -0.377779 1.736723 0.174156
v -0.470423 1.832147 0.174173
v -0.404913 1.804198 0.162011
v -1.008135 0.913334 0.029995
v -0.404911 1.669249 0.086798
v -0.445663 1.492610 0.000000
v -0.758702 1.179574 0.000000
v -0.457717 1.504663 -0.063616
v -0.770755 1.191627 0.063616
v -0.457717 1.504663 0.063616
v -0.803685 1.224557 0.110188
v -0.490649 1.537593 0.110188
v -0.848668 1.269540 0.127232
v -0.535632 1.582576 0.127233
v -0.893651 1.314523 0.110188
v -0.580615 1.627561 0.110188
v -0.926581 1.347453 0.063616
v -0.613544 1.660491 0.063616
v -0.938636 1.359506 0.000000
v -0.625598 1.672544 0.000000
v -0.926581 1.347453 -0.063616
v -0.613544 1.660491 -0.063616
v -0.893651 1.314523 -0.110185
v -0.580615 1.627561 -0.110187
v -0.848668 1.269540 -0.127232
v -0.535632 1.582576 -0.127232
v -0.803685 1.224557 -0.110185
v -0.490649 1.537593 -0.110187
v -0.770755 1.191627 -0.063616
v -0.848668 1.269540 0.000000
v -0.535632 1.582576 0.000000
vt 1.731900 -0.863200
vt 1.698700 -0.793800
vt 1.698700 -0.863200
vt 1.731900 -0.793800
vt 1.883200 -0.985700
vt 1.970700 -0.943000
vt 1.970700 -0.985700
vt 1.912300 -0.913200
vt 1.839800 -0.985700
vt 1.731700 -0.793800
vt 1.731700 -0.863200
vt 1.720200 -0.793800
vt 1.720200 -0.863200
vt 1.698400 -0.793800
vt 1.689100 -0.793800
vt 1.698400 -0.863200
vt 1.689100 -0.863200
vt 1.908600 -0.672100
vt 1.908600 -0.690000
vt 1.876400 -0.672100
vt 1.876400 -0.690000
vt 1.845200 -0.672100
vt 1.845200 -0.690000
vt 1.992400 -0.921300
vt 1.932300 -0.893300
vt 1.964200 -0.893100
vt 1.813000 -0.690000
vt 1.813000 -0.672100
vt 1.882400 -0.215800
vt 1.946800 -0.236700
vt 1.946800 -0.215800
vt 1.882400 -0.236700
vt 1.818100 -0.215800
vt 1.818100 -0.236700
vt 1.745600 -0.771500
vt 1.784000 -0.809900
vt 1.784000 -0.771500
vt 1.745600 -0.809900
vt 1.745600 -0.771300
vt 1.784100 -0.705000
vt 1.745600 -0.715300
vt 1.784100 -0.771300
vt 1.706700 -0.771100
vt 1.745200 -0.715200
vt 1.706700 -0.715200
vt 1.745200 -0.771100
vt 1.784100 -0.771300
vt 1.745600 -0.715300
vt 1.784100 -0.705000
vt 1.745600 -0.771300
vt 1.822600 -0.771200
vt 1.784200 -0.704900
vt 1.822600 -0.704900
vt 1.784200 -0.771200
vt 1.745700 -0.771500
vt 1.784200 -0.809900
vt 1.784200 -0.771500
vt 1.745700 -0.809900
vt 1.745600 -0.771300
vt 1.784100 -0.705000
vt 1.745600 -0.715300
vt 1.784100 -0.771300
vt 1.707000 -0.771100
vt 1.745500 -0.715200
vt 1.707000 -0.715200
vt 1.745500 -0.771100
vt 1.784100 -0.771300
vt 1.745600 -0.715300
vt 1.784100 -0.705000
vt 1.745600 -0.771300
vt 1.822900 -0.771200
vt 1.784500 -0.704900
vt 1.822900 -0.704900
vt 1.784500 -0.771200
vt 1.866800 -0.177100
vt 1.818000 -0.198200
vt 1.815800 -0.152600
vt 1.872900 -0.198200
vt 1.893600 -0.198200
vt 1.891300 -0.175200
vt 1.900400 -0.198200
vt 1.899700 -0.175400
vt 1.907600 -0.198200
vt 1.908300 -0.175400
vt 1.914300 -0.198200
vt 1.916600 -0.175200
vt 1.935000 -0.198200
vt 1.941200 -0.177100
vt 1.990000 -0.198200
vt 1.992200 -0.152600
vt 1.992200 -0.152600
vt 1.990000 -0.198200
vt 1.941200 -0.177100
vt 1.935000 -0.198200
vt 1.916600 -0.175200
vt 1.914300 -0.198200
vt 1.908300 -0.175400
vt 1.907600 -0.198200
vt 1.899700 -0.175400
vt 1.900400 -0.198200
vt 1.891300 -0.175200
vt 1.893600 -0.198200
vt 1.866800 -0.177100
vt 1.872900 -0.198200
vt 1.818000 -0.198200
vt 1.815800 -0.152600
vt 1.980500 -0.644100
vt 1.990200 -0.623100
vt 1.990200 -0.654800
vt 1.980200 -0.622900
vt 1.970200 -0.640700
vt 1.970100 -0.622000
vt 1.833700 -0.640500
vt 1.830400 -0.621900
vt 1.803100 -0.633200
vt 1.813100 -0.648900
vt 1.769500 -0.667000
vt 1.790300 -0.672100
vt 1.790300 -0.690000
vt 1.757100 -0.672000
vt 1.659600 -0.689800
vt 1.659600 -0.672000
vt 1.762100 -0.689800
vt 1.921200 -0.152400
vt 1.909700 -0.152400
vt 1.898200 -0.152400
vt 1.886800 -0.152400
vt 1.886800 -0.152400
vt 1.898200 -0.152400
vt 1.909700 -0.152400
vt 1.921200 -0.152400
vt 1.734400 -0.924900
vt 1.712900 -0.902900
vt 1.750700 -0.908500
vt 1.729000 -0.886800
vt 1.765300 -0.894000
vt 1.743500 -0.872300
vt 1.861300 -0.796800
vt 1.840600 -0.776300
vt 1.854100 -0.773100
vt 1.876900 -0.782500
vt 1.845400 -0.766400
vt 1.845900 -0.753200
vt 1.973300 -0.808100
vt 1.933700 -0.808100
vt 1.953500 -0.799900
vt 1.925400 -0.827900
vt 1.981600 -0.827900
vt 1.973300 -0.847800
vt 1.933700 -0.847800
vt 1.953500 -0.856000
vt 1.700000 -0.985700
vt 1.743400 -0.985700
vt 1.768900 -0.916800
vt 1.790600 -0.938500
vt 1.777700 -0.908000
vt 1.799400 -0.929700
vt 1.801400 -0.884200
vt 1.823200 -0.906000
vt 1.820800 -0.864900
vt 1.842500 -0.886600
vt 1.940900 -0.787100
vt 1.920100 -0.766600
vt 1.924800 -0.757100
vt 1.956500 -0.771600
vt 1.925400 -0.743600
vt 1.973300 -0.763400
vt 1.933500 -0.723800
vt 1.981600 -0.743600
vt 1.953500 -0.715500
vt 1.973300 -0.723700
vt 1.824400 -0.893100
vt 1.792400 -0.893300
vt 1.852600 -0.921300
vt 1.813900 -0.915200
vt 1.830900 -0.943000
vt 1.830900 -0.985700
vt 1.790600 -0.985700
vt 1.931800 -0.062600
vt 1.992600 -0.140300
vt 1.992600 -0.066200
vt 1.931800 -0.140300
vt 1.870000 -0.088600
vt 1.870000 -0.140300
vt 1.807500 -0.140300
vt 1.815600 -0.088600
vt 1.745000 -0.140300
vt 1.745000 -0.081400
vt 1.683200 -0.140300
vt 1.683200 -0.088600
vt 1.622500 -0.140300
vt 1.623100 -0.059000
vt 1.683200 -0.057400
vt 1.815900 -0.057400
vt 1.870000 -0.059000
vt 1.562400 -0.140300
vt 1.502400 -0.066200
vt 1.502400 -0.140300
vt 1.562400 -0.062600
vt 1.708500 -0.959500
vt 1.708500 -0.926600
vt 1.703500 -0.947100
vt 1.685500 -0.903500
vt 1.669800 -0.913500
vt 1.658500 -0.886200
vt 1.677100 -0.882900
vt 1.677300 -0.746200
vt 1.658600 -0.746200
vt 1.691300 -0.725100
vt 1.659600 -0.724200
vt 1.502200 -0.151900
vt 1.502200 -0.458900
vt 1.551200 -0.151900
vt 1.550700 -0.458900
vt 1.550700 -0.151900
vt 1.600400 -0.458900
vt 1.600400 -0.151900
vt 1.648900 -0.458900
vt 1.648900 -0.151900
vt 1.698500 -0.458900
vt 1.698500 -0.151900
vt 1.747000 -0.458900
vt 1.747000 -0.151900
vt 1.796700 -0.458900
vt 1.796300 -0.151900
vt 1.747300 -0.458900
vt 1.747300 -0.151900
vt 1.698300 -0.458900
vt 1.698300 -0.151900
vt 1.649300 -0.458900
vt 1.649300 -0.151900
vt 1.600300 -0.458900
vt 1.600300 -0.151900
vt 1.551200 -0.458900
vt 1.817000 -0.342500
vt 1.861100 -0.266100
vt 1.817000 -0.254300
vt 1.893400 -0.298400
vt 1.905200 -0.342500
vt 1.893400 -0.386600
vt 1.861100 -0.418900
vt 1.817000 -0.430700
vt 1.861100 -0.418900
vt 1.893400 -0.386600
vt 1.905200 -0.342500
vt 1.893400 -0.298400
vt 1.861100 -0.266100
vt 1.817000 -0.254300
vt 1.861100 -0.266100
vt 1.817000 -0.342500
vt 1.893400 -0.298400
vt 1.905200 -0.342500
vt 1.893400 -0.386600
vt 1.861100 -0.418900
vt 1.817000 -0.430700
vt 1.861100 -0.418900
vt 1.893400 -0.386600
vt 1.905200 -0.342500
vt 1.893400 -0.298400
vt 1.861100 -0.266100
vt 1.990200 -0.349500
vt 1.907300 -0.285900
vt 1.989100 -0.220800
vt 1.990200 -0.349500
vt 1.989100 -0.220800
vt 1.907300 -0.285900
vn 0.8165 -0.0071 0.5773
vn 0.0071 0.8165 -0.5773
vn 0.0071 0.8165 0.5773
vn 0.8165 -0.0071 -0.5773
vn -0.0007 0.0002 -1.0000
vn 0.5523 -0.2238 -0.8030
vn 0.7065 -0.0000 -0.7077
vn -0.5088 0.4923 -0.7062
vn -0.6393 0.6207 -0.4538
vn 0.4259 -0.6056 -0.6722
vn 0.4259 -0.6056 0.6722
vn 0.3100 -0.6431 -0.7002
vn 0.3100 -0.6431 0.7002
vn -0.3565 0.5502 -0.7551
vn -0.2616 0.6680 -0.6966
vn -0.3565 0.5502 0.7551
vn -0.2616 0.6680 0.6966
vn 0.7084 -0.0000 0.7058
vn 0.5550 -0.2260 0.8005
vn 0.8161 0.0002 0.5778
vn 0.8151 -0.0001 -0.5793
vn -0.3050 0.7133 -0.6310
vn 0.3013 0.7169 -0.6287
vn 0.3013 0.7169 0.6287
vn 0.5643 0.8256 0.0000
vn -0.5062 0.5210 0.6872
vn 0.5062 0.5210 0.6872
vn -0.5643 0.8256 0.0000
vn 0.5062 0.5210 -0.6872
vn -0.5062 0.5210 -0.6872
vn -0.8165 0.0000 0.5773
vn 0.8165 0.0000 0.5773
vn 0.0000 0.8165 0.5773
vn 0.0000 -0.8165 0.5773
vn 0.9959 -0.0905 0.0000
vn 0.0767 0.9970 0.0000
vn -0.9970 -0.0767 0.0000
vn 0.0905 -0.9959 0.0000
vn 0.3972 0.9104 -0.1157
vn 0.4324 0.2998 0.8503
vn 0.6430 0.6369 0.4253
vn 0.3024 0.1056 0.9473
vn 0.7177 0.1089 0.6877
vn -0.0570 0.9816 -0.1823
vn 0.9939 0.0952 0.0563
vn -0.0870 0.9962 0.0042
vn 0.8768 0.0946 -0.4715
vn -0.0813 0.9962 0.0323
vn 0.3605 0.1087 -0.9264
vn 0.0263 0.9814 0.1898
vn -0.1265 0.1059 -0.9863
vn 0.4083 0.9106 -0.0631
vn 0.0325 0.2998 -0.9534
vn 0.4030 0.6369 -0.6572
vn 0.6430 0.6369 -0.4252
vn 0.4324 0.2998 -0.8503
vn 0.3967 0.9106 0.1153
vn 0.3021 0.1059 -0.9474
vn -0.0564 0.9814 0.1831
vn 0.7183 0.1087 -0.6872
vn -0.0874 0.9962 -0.0050
vn 0.9939 0.0946 -0.0567
vn -0.0807 0.9962 -0.0330
vn 0.8769 0.0952 0.4711
vn 0.0254 0.9816 -0.1893
vn 0.3598 0.1089 0.9266
vn 0.4089 0.9104 0.0631
vn -0.1263 0.1056 0.9864
vn 0.0325 0.2998 0.9534
vn 0.4030 0.6369 0.6572
vn -0.8996 -0.0652 -0.4319
vn -0.7020 0.1814 0.6887
vn -0.9976 0.0431 -0.0548
vn -0.6312 0.1885 0.7523
vn -0.7052 0.2857 -0.6489
vn -0.5118 0.4066 0.7568
vn -0.4524 0.6125 -0.6482
vn -0.5761 0.3670 0.7303
vn -0.7645 0.1765 0.6200
vn -0.2855 0.7830 -0.5525
vn -0.7944 0.2730 0.5425
vn -0.3658 0.9289 -0.0580
vn -0.6287 0.4347 0.6447
vn -0.6393 0.6207 0.4538
vn -0.2754 0.2397 0.9310
vn -0.8517 0.2611 0.4542
vn -0.9639 0.2611 -0.0517
vn -0.6430 0.2397 -0.7274
vn -0.2753 0.2397 -0.9310
vn -0.8517 0.2611 -0.4542
vn -0.9639 0.2611 0.0517
vn -0.6430 0.2397 0.7273
vn 0.5649 -0.1974 0.8012
vn 0.7953 -0.2725 -0.5415
vn 0.6310 -0.4336 -0.6432
vn 0.4122 -0.6712 -0.6161
vn -0.6061 -0.5218 -0.6003
vn 0.1952 -0.9668 -0.1650
vn 0.5547 0.5432 -0.6303
vn -0.5546 0.5433 -0.6303
vn -0.0001 0.7779 -0.6284
vn -0.7750 0.0000 -0.6319
vn 0.7750 0.0000 -0.6319
vn 0.5547 -0.5432 -0.6303
vn -0.5547 -0.5431 -0.6303
vn -0.0005 -0.7755 -0.6313
vn 0.0000 0.0000 1.0000
vn -0.0210 -0.1072 0.9940
vn 0.2864 -0.7811 0.5549
vn 0.1836 -0.7576 0.6264
vn 0.3771 -0.5663 0.7329
vn 0.5097 -0.4745 0.7176
vn 0.4211 -0.4880 0.7645
vn 0.6075 -0.4648 0.6441
vn -0.5093 0.5765 0.6389
vn 0.8141 0.0601 0.5775
vn 0.0593 0.8154 0.5759
vn 0.6377 0.6236 0.4520
vn 0.0019 0.0000 1.0000
vn 0.7504 -0.6608 -0.0098
vn 0.9973 -0.0735 0.0000
vn 0.0735 -0.9973 0.0000
vn 0.9256 -0.0017 -0.3786
vn 0.0017 -0.9256 0.3786
vn 0.9256 -0.0017 0.3786
vn -0.1942 -0.7296 0.6557
vn 0.7296 0.1942 0.6557
vn -0.4619 -0.4619 0.7571
vn 0.4619 0.4619 0.7571
vn -0.7296 -0.1942 0.6557
vn 0.1942 0.7296 0.6557
vn -0.9255 0.0017 0.3786
vn -0.0017 0.9256 0.3786
vn -0.9973 0.0735 0.0000
vn -0.0735 0.9973 0.0000
vn -0.9255 0.0017 -0.3786
vn -0.0017 0.9256 -0.3786
vn -0.7296 -0.1942 -0.6557
vn 0.1942 0.7296 -0.6557
vn -0.4619 -0.4619 -0.7572
vn 0.4619 0.4619 -0.7571
vn -0.1942 -0.7296 -0.6557
vn 0.7296 0.1942 -0.6557
vn 0.0017 -0.9256 -0.3786
vn -0.7071 -0.7071 0.0000
vn 0.7071 0.7071 0.0000
usemtl warthog_chain_gun
s 1
f 1/1/1 2/2/2 3/3/3
f 2/2/2 1/1/1 4/4/4
f 5/5/5 6/6/6 7/7/7
f 6/6/6 5/5/5 8/8/8
f 9/9/9 8/8/8 5/5/5
f 4/4/4 1/1/1 10/10/10
f 11/11/11 10/10/10 1/1/1
f 10/10/10 11/11/11 12/12/12
f 13/13/13 12/12/12 11/11/11
f 2/2/2 4/4/4 14/14/14
f 10/10/10 14/14/14 4/4/4
f 14/14/14 10/10/10 15/15/15
f 12/12/12 15/15/15 10/10/10
f 3/3/3 2/2/2 16/16/16
f 14/14/14 16/16/16 2/2/2
f 16/16/16 14/14/14 17/17/17
f 15/15/15 17/17/17 14/14/14
f 1/1/1 3/3/3 11/11/11
f 16/16/16 11/11/11 3/3/3
f 11/11/11 16/16/16 13/13/13
f 17/17/17 13/13/13 16/16/16
f 18/18/18 7/19/7 19/20/19
f 6/21/6 19/20/19 7/19/7
f 19/20/19 6/21/6 20/22/20
f 21/23/21 20/22/20 6/21/6
f 6/6/6 8/8/8 21/24/21
f 22/25/22 21/24/21 8/8/8
f 21/24/21 22/25/22 23/26/23
f 20/22/20 23/27/23 24/28/24
f 23/27/23 20/22/20 21/23/21
f 25/29/25 26/30/26 27/31/27
f 26/30/26 25/29/25 28/32/28
f 28/32/28 29/33/29 30/34/30
f 29/33/29 28/32/28 25/29/25
f 31/35/31 32/36/32 33/37/33
f 32/36/32 31/35/31 34/38/34
f 33/39/33 35/40/35 36/41/36
f 35/40/35 33/39/33 32/42/32
f 31/43/31 36/44/36 37/45/37
f 36/44/36 31/43/31 33/46/33
f 34/47/34 37/48/37 38/49/38
f 37/48/37 34/47/34 31/50/31
f 32/51/32 38/52/38 35/53/35
f 38/52/38 32/51/32 34/54/34
f 39/55/31 40/56/32 41/57/33
f 40/56/32 39/55/31 42/58/34
f 41/59/33 43/60/35 44/61/36
f 43/60/35 41/59/33 40/62/32
f 39/63/31 44/64/36 45/65/37
f 44/64/36 39/63/31 41/66/33
f 42/67/34 45/68/37 46/69/38
f 45/68/37 42/67/34 39/70/31
f 40/71/32 46/72/38 43/73/35
f 46/72/38 40/71/32 42/74/34
f 47/75/39 48/76/40 49/77/41
f 48/76/40 47/75/39 50/78/42
f 50/78/42 47/75/39 51/79/43
f 52/80/44 51/79/43 47/75/39
f 51/79/43 52/80/44 53/81/45
f 54/82/46 53/81/45 52/80/44
f 53/81/45 54/82/46 55/83/47
f 56/84/48 55/83/47 54/82/46
f 55/83/47 56/84/48 57/85/49
f 58/86/50 57/85/49 56/84/48
f 57/85/49 58/86/50 59/87/51
f 60/88/52 59/87/51 58/86/50
f 59/87/51 60/88/52 61/89/53
f 62/90/54 61/89/53 60/88/52
f 63/91/55 64/92/56 65/93/57
f 66/94/58 65/93/57 64/92/56
f 65/93/57 66/94/58 67/95/59
f 68/96/60 67/95/59 66/94/58
f 67/95/59 68/96/60 69/97/61
f 70/98/62 69/97/61 68/96/60
f 69/97/61 70/98/62 71/99/63
f 72/100/64 71/99/63 70/98/62
f 71/99/63 72/100/64 73/101/65
f 74/102/66 73/101/65 72/100/64
f 73/101/65 74/102/66 75/103/67
f 76/104/68 75/103/67 74/102/66
f 77/105/69 75/103/67 76/104/68
f 75/103/67 77/105/69 78/106/70
f 79/107/71 80/108/72 81/109/73
f 80/108/72 79/107/71 82/110/74
f 83/111/75 82/110/74 79/107/71
f 82/110/74 83/111/75 84/112/76
f 85/113/77 84/112/76 83/111/75
f 84/112/76 85/113/77 86/114/78
f 86/114/78 85/113/77 87/115/79
f 88/116/80 87/115/79 85/113/77
f 87/115/79 88/116/80 89/117/81
f 90/118/82 89/117/81 88/116/80
f 89/117/81 90/118/82 22/119/22
f 24/28/24 22/119/22 90/118/82
f 22/119/22 24/28/24 23/27/23
f 91/120/83 9/121/9 92/122/84
f 9/121/9 91/120/83 8/123/8
f 89/117/81 8/123/8 91/120/83
f 8/123/8 89/117/81 22/119/22
f 62/90/54 60/88/52 93/124/85
f 58/86/50 93/124/85 60/88/52
f 93/124/85 58/86/50 94/125/86
f 56/84/48 94/125/86 58/86/50
f 94/125/86 56/84/48 95/126/87
f 54/82/46 95/126/87 56/84/48
f 95/126/87 54/82/46 96/127/88
f 52/80/44 96/127/88 54/82/46
f 47/75/39 96/127/88 52/80/44
f 96/127/88 47/75/39 49/77/41
f 97/128/89 75/103/67 78/106/70
f 75/103/67 97/128/89 73/101/65
f 73/101/65 97/128/89 71/99/63
f 98/129/90 71/99/63 97/128/89
f 71/99/63 98/129/90 69/97/61
f 99/130/91 69/97/61 98/129/90
f 69/97/61 99/130/91 67/95/59
f 100/131/92 67/95/59 99/130/91
f 67/95/59 100/131/92 65/93/57
f 63/91/55 65/93/57 100/131/92
f 101/132/93 90/133/82 102/134/94
f 88/135/80 102/134/94 90/133/82
f 102/134/94 88/135/80 103/136/95
f 85/137/77 103/136/95 88/135/80
f 103/136/95 85/137/77 104/138/96
f 83/139/75 104/138/96 85/137/77
f 105/140/97 104/138/96 83/139/75
f 104/138/96 105/140/97 106/141/98
f 79/142/71 105/140/97 83/139/75
f 105/140/97 79/142/71 81/143/73
f 107/144/99 108/145/100 109/146/101
f 108/145/100 107/144/99 110/147/102
f 111/148/103 110/147/102 107/144/99
f 112/149/104 110/147/102 111/148/103
f 110/147/102 112/149/104 113/150/105
f 114/151/106 113/150/105 112/149/104
f 92/152/84 115/153/107 91/154/83
f 116/155/108 91/154/83 115/153/107
f 91/154/83 116/155/108 89/156/81
f 117/157/109 89/156/81 116/155/108
f 89/156/81 117/157/109 87/158/79
f 118/159/110 87/158/79 117/157/109
f 87/158/79 118/159/110 86/160/78
f 119/161/111 86/160/78 118/159/110
f 120/162/112 86/160/78 119/161/111
f 86/160/78 120/162/112 84/163/76
f 84/163/76 120/162/112 82/164/74
f 121/165/113 82/164/74 120/162/112
f 82/164/74 121/165/113 80/166/72
f 122/167/114 80/166/72 121/165/113
f 80/166/72 122/167/114 123/168/115
f 124/169/116 123/168/115 122/167/114
f 123/168/115 124/169/116 125/170/117
f 126/171/118 125/170/117 124/169/116
f 24/172/24 90/173/82 20/174/20
f 101/175/93 20/174/20 90/173/82
f 20/174/20 101/175/93 19/176/19
f 116/155/108 19/176/19 101/175/93
f 19/176/19 116/155/108 18/177/18
f 18/177/18 116/155/108 127/178/119
f 115/153/107 127/178/119 116/155/108
f 124/179/116 107/180/99 126/181/118
f 107/180/99 124/179/116 111/182/103
f 128/183/120 111/182/103 124/179/116
f 111/182/103 128/183/120 112/184/104
f 112/184/104 128/183/120 114/185/106
f 106/186/98 114/185/106 128/183/120
f 114/185/106 106/186/98 113/187/105
f 105/188/97 113/187/105 106/186/98
f 113/187/105 105/188/97 110/189/102
f 81/190/73 110/189/102 105/188/97
f 110/189/102 81/190/73 108/191/100
f 108/191/100 81/190/73 123/192/115
f 80/193/72 123/192/115 81/190/73
f 121/194/113 106/186/98 122/195/114
f 128/183/120 122/195/114 106/186/98
f 122/195/114 128/183/120 124/179/116
f 109/196/101 126/197/118 107/198/99
f 126/197/118 109/196/101 125/199/117
f 125/199/117 109/196/101 123/192/115
f 108/191/100 123/192/115 109/196/101
f 116/200/108 101/201/93 117/202/109
f 102/203/94 117/202/109 101/201/93
f 117/202/109 102/203/94 118/204/110
f 118/204/110 102/203/94 119/205/111
f 103/206/95 119/205/111 102/203/94
f 104/207/96 119/205/111 103/206/95
f 119/205/111 104/207/96 120/208/112
f 106/209/98 120/208/112 104/207/96
f 120/208/112 106/209/98 121/210/113
f 129/211/121 130/212/122 131/213/123
f 130/212/122 129/211/121 132/214/124
f 133/215/125 132/214/124 129/211/121
f 132/214/124 133/215/125 134/216/126
f 135/217/127 134/216/126 133/215/125
f 134/216/126 135/217/127 136/218/128
f 137/219/129 136/218/128 135/217/127
f 136/218/128 137/219/129 138/220/130
f 139/221/131 138/220/130 137/219/129
f 138/220/130 139/221/131 140/222/132
f 141/223/133 140/222/132 139/221/131
f 140/222/132 141/223/133 142/224/134
f 143/225/135 142/224/134 141/223/133
f 142/224/134 143/225/135 144/226/136
f 145/227/137 144/226/136 143/225/135
f 144/226/136 145/227/137 146/228/138
f 147/229/139 146/228/138 145/227/137
f 146/228/138 147/229/139 148/230/140
f 149/231/141 148/230/140 147/229/139
f 148/230/140 149/231/141 150/232/142
f 151/233/143 150/232/142 149/231/141
f 150/232/142 151/233/143 152/234/144
f 131/213/123 152/234/144 151/233/143
f 152/234/144 131/213/123 130/212/122
f 153/235/145 152/236/144 130/237/122
f 152/236/144 153/235/145 150/238/142
f 150/238/142 153/235/145 148/239/140
f 148/239/140 153/235/145 146/240/138
f 146/240/138 153/235/145 144/241/136
f 144/241/136 153/235/145 142/242/134
f 142/242/134 153/235/145 140/243/132
f 140/243/132 153/235/145 138/244/130
f 138/244/130 153/235/145 136/245/128
f 136/245/128 153/235/145 134/246/126
f 134/246/126 153/235/145 132/247/124
f 130/237/122 132/247/124 153/235/145
f 129/248/121 131/249/123 154/250/146
f 151/251/143 154/250/146 131/249/123
f 149/252/141 154/250/146 151/251/143
f 147/253/139 154/250/146 149/252/141
f 145/254/137 154/250/146 147/253/139
f 143/255/135 154/250/146 145/254/137
f 141/256/133 154/250/146 143/255/135
f 139/257/131 154/250/146 141/256/133
f 137/258/129 154/250/146 139/257/131
f 135/259/127 154/250/146 137/258/129
f 133/260/125 154/250/146 135/259/127
f 154/250/146 133/260/125 129/248/121
f 29/261/29 25/262/25 27/263/27
f 30/264/30 26/265/26 28/266/28
