# Blender v3.0.0 OBJ File: ''
# www.blender.org
mtllib Magnum_Mag.mtl
o default:default.001_default:default.016
v 0.044967 0.000271 -0.000424
v 0.002698 0.002606 0.003500
v 0.002390 0.000271 -0.000424
v -0.030996 0.029676 0.003500
v -0.032268 0.028603 0.003500
v 0.041230 0.017138 0.003500
v -0.031657 0.021786 0.003500
v 0.001018 0.003057 0.003500
v 0.000115 0.000882 -0.000424
v -0.032255 0.022826 0.003500
v -0.033701 0.020457 -0.000424
v 0.043159 0.002556 0.003500
v 0.046517 0.002078 -0.000424
v 0.044057 0.003603 0.003500
v 0.044204 0.017059 -0.000424
v 0.042208 0.016144 0.003500
v 0.042122 0.019174 -0.000424
v -0.031488 0.031747 -0.000424
v -0.030996 0.029676 0.003500
v -0.034493 0.029212 -0.000424
v -0.032268 0.028603 0.003500
v -0.034493 0.021829 -0.000424
v 0.002390 0.000271 -0.000424
v 0.000115 0.000882 -0.015157
v 0.002390 0.000271 -0.015157
v 0.000115 0.000882 -0.029889
v 0.002390 0.000271 -0.029889
v -0.033701 0.020457 -0.000424
v 0.000115 0.000882 -0.000424
v -0.033701 0.020457 -0.029889
v -0.033701 0.020457 -0.015157
v -0.034493 0.021829 -0.029889
v -0.034493 0.021829 -0.015157
v -0.034493 0.029212 -0.029889
v -0.034493 0.029212 -0.015157
v -0.031488 0.031747 -0.029889
v -0.031488 0.031747 -0.015157
v 0.042122 0.019174 -0.029889
v 0.042122 0.019174 -0.015157
v 0.044204 0.017059 -0.029889
v 0.044204 0.017059 -0.015157
v 0.046517 0.002078 -0.029889
v 0.046517 0.002078 -0.015157
v 0.044967 0.000271 -0.000424
v 0.046517 0.002078 -0.000424
v 0.044204 0.017059 -0.000424
v 0.042122 0.019174 -0.000424
v -0.031488 0.031747 -0.000424
v -0.034493 0.029212 -0.000424
v -0.034493 0.021829 -0.000424
v 0.044967 0.000271 -0.029889
v 0.044967 0.000271 -0.015157
v 0.002390 0.000271 -0.015157
v 0.002390 0.000271 -0.000424
v 0.002390 0.000271 -0.029889
v 0.002698 0.002606 -0.033813
v 0.044057 0.003603 -0.033813
v 0.043159 0.002556 -0.033813
v -0.033701 0.020457 -0.029889
v -0.031657 0.021786 -0.033813
v 0.000115 0.000882 -0.029889
v 0.001018 0.003057 -0.033813
v 0.002390 0.000271 -0.029889
v 0.044967 0.000271 -0.029889
v 0.046517 0.002078 -0.029889
v 0.044204 0.017059 -0.029889
v 0.042208 0.016144 -0.033813
v 0.042122 0.019174 -0.029889
v 0.041230 0.017138 -0.033813
v -0.031488 0.031747 -0.029889
v -0.030996 0.029676 -0.033813
v -0.034493 0.029212 -0.029889
v -0.032268 0.028603 -0.033813
v -0.034493 0.021829 -0.029889
v -0.032255 0.022826 -0.033813
v -0.030996 0.029676 -0.033813
v -0.032268 0.028603 -0.033813
v 0.026593 0.017708 -0.015157
v 0.059077 0.189446 -0.025246
v 0.059077 0.189446 -0.015157
v 0.058773 0.189446 -0.026770
v 0.026593 0.017708 -0.025246
v 0.057858 0.189446 -0.027685
v 0.026293 0.017760 -0.026770
v 0.056334 0.189446 -0.027990
v 0.025393 0.017917 -0.027685
v -0.019497 0.025748 -0.027990
v 0.023892 0.018179 -0.027990
v -0.022198 0.026219 -0.015157
v 0.010125 0.189446 -0.015157
v -0.022198 0.026219 -0.025246
v 0.010125 0.189446 -0.025246
v -0.021898 0.026167 -0.026770
v 0.010429 0.189446 -0.026770
v -0.020997 0.026010 -0.027685
v 0.011344 0.189446 -0.027685
v 0.012868 0.189446 -0.027990
v 0.083356 0.123821 -0.010517
v 0.057765 0.189745 -0.002909
v 0.056334 0.189446 -0.002323
v 0.057858 0.189446 -0.002628
v 0.012868 0.189446 -0.002323
v 0.056361 0.189745 -0.002628
v 0.058548 0.189745 -0.003693
v 0.058773 0.189446 -0.003543
v 0.011344 0.189446 -0.002628
v 0.012957 0.189745 -0.002628
v 0.056361 0.189745 -0.015157
v 0.058829 0.189745 -0.015157
v 0.058829 0.189745 -0.005097
v 0.059077 0.189446 -0.015157
v 0.059077 0.189446 -0.005067
v 0.056361 0.189745 -0.027685
v 0.058548 0.189745 -0.026620
v 0.058829 0.189745 -0.025216
v 0.059077 0.189446 -0.025246
v 0.010429 0.189446 -0.003543
v 0.011553 0.189745 -0.002909
v 0.012957 0.189745 -0.015157
v 0.012957 0.189745 -0.027685
v 0.012868 0.189446 -0.027990
v 0.056334 0.189446 -0.027990
v 0.058773 0.189446 -0.026770
v 0.057858 0.189446 -0.027685
v 0.057765 0.189745 -0.027404
v 0.011344 0.189446 -0.027685
v 0.011553 0.189745 -0.027404
v 0.010489 0.189745 -0.025216
v 0.010489 0.189745 -0.015157
v 0.010125 0.189446 -0.025246
v 0.010125 0.189446 -0.015157
v 0.010429 0.189446 -0.026770
v 0.010769 0.189745 -0.026620
v 0.010125 0.189446 -0.005067
v 0.010489 0.189745 -0.005097
v 0.010769 0.189745 -0.003693
v -0.022198 0.026219 -0.015157
v -0.022198 0.026219 -0.005067
v 0.010125 0.189446 -0.015157
v 0.010125 0.189446 -0.005067
v -0.021898 0.026167 -0.003543
v 0.010429 0.189446 -0.003543
v -0.020997 0.026010 -0.002628
v 0.011344 0.189446 -0.002628
v -0.019497 0.025748 -0.002323
v 0.012868 0.189446 -0.002323
v 0.056334 0.189446 -0.002323
v 0.023892 0.018179 -0.002323
v 0.025393 0.017917 -0.002628
v 0.057858 0.189446 -0.002628
v 0.026293 0.017760 -0.003543
v 0.058773 0.189446 -0.003543
v 0.026593 0.017708 -0.005067
v 0.059077 0.189446 -0.005067
v 0.026593 0.017708 -0.015157
v 0.059077 0.189446 -0.015157
vt 0.666659 0.107602
vt 0.578713 0.104015
vt 0.578547 0.099118
vt 0.503600 0.153322
vt 0.501184 0.150850
vt 0.655562 0.141764
vt 0.503796 0.136866
vt 0.575150 0.104618
vt 0.573715 0.099931
vt 0.502362 0.138901
vt 0.499840 0.133702
vt 0.662462 0.111972
vt 0.669513 0.111655
vt 0.664108 0.114323
vt 0.661737 0.142201
vt 0.657782 0.139910
vt 0.657012 0.146164
vt 0.502165 0.157511
vt 0.503600 0.153322
vt 0.496458 0.151664
vt 0.501184 0.150850
vt 0.497923 0.136384
vt 0.683630 0.166914
vt 0.686317 0.183792
vt 0.683630 0.183792
vt 0.686317 0.200669
vt 0.683630 0.200669
vt 0.731083 0.166914
vt 0.686317 0.166914
vt 0.731083 0.200669
vt 0.731083 0.183792
vt 0.732895 0.200669
vt 0.732895 0.183792
vt 0.741350 0.200669
vt 0.741350 0.183792
vt 0.745864 0.200669
vt 0.745864 0.183792
vt 0.831410 0.200669
vt 0.831410 0.183792
vt 0.834807 0.200669
vt 0.834807 0.183792
vt 0.852170 0.200669
vt 0.852170 0.183792
vt 0.854903 0.166914
vt 0.852170 0.166914
vt 0.834807 0.166914
vt 0.831410 0.166914
vt 0.745864 0.166914
vt 0.741350 0.166914
vt 0.732895 0.166914
vt 0.854903 0.200669
vt 0.854903 0.183792
vt 0.903685 0.183792
vt 0.903685 0.166914
vt 0.903685 0.200669
vt 0.578713 0.104015
vt 0.664108 0.114323
vt 0.662462 0.111972
vt 0.499840 0.133702
vt 0.503796 0.136866
vt 0.573715 0.099931
vt 0.575150 0.104618
vt 0.578547 0.099118
vt 0.666659 0.107602
vt 0.669513 0.111655
vt 0.661737 0.142201
vt 0.657782 0.139910
vt 0.657012 0.146164
vt 0.655562 0.141764
vt 0.502165 0.157511
vt 0.503600 0.153322
vt 0.496458 0.151664
vt 0.501184 0.150850
vt 0.497923 0.136384
vt 0.502362 0.138901
vt 0.503600 0.153322
vt 0.501184 0.150850
vt 0.996251 0.566294
vt 0.979220 0.862721
vt 0.996251 0.862721
vt 0.976775 0.862616
vt 0.979115 0.566294
vt 0.974706 0.862345
vt 0.976291 0.566294
vt 0.972019 0.861862
vt 0.973997 0.566294
vt 0.896996 0.566294
vt 0.971460 0.566294
vt 0.873805 0.566294
vt 0.873805 0.847441
vt 0.890730 0.566294
vt 0.891063 0.847441
vt 0.892754 0.566294
vt 0.894294 0.847532
vt 0.894460 0.566294
vt 0.896951 0.847818
vt 0.899623 0.848285
vt 0.982723 0.558880
vt 0.984384 0.555655
vt 0.983599 0.559242
vt 0.984369 0.455746
vt 0.983403 0.555670
vt 0.980942 0.560658
vt 0.981425 0.561412
vt 0.983584 0.452175
vt 0.983403 0.455987
vt 0.954626 0.555670
vt 0.954626 0.561321
vt 0.977741 0.561321
vt 0.954626 0.562211
vt 0.977847 0.562211
vt 0.925849 0.555670
vt 0.928310 0.560658
vt 0.931510 0.561321
vt 0.931405 0.562211
vt 0.981410 0.450020
vt 0.982738 0.452778
vt 0.954626 0.455987
vt 0.925849 0.455987
vt 0.924882 0.455746
vt 0.924867 0.555655
vt 0.927826 0.561412
vt 0.925652 0.559242
vt 0.926528 0.558880
vt 0.925667 0.452175
vt 0.926528 0.452778
vt 0.931510 0.450336
vt 0.954626 0.450336
vt 0.931405 0.449252
vt 0.954626 0.449252
vt 0.927842 0.450020
vt 0.928310 0.451000
vt 0.977847 0.449252
vt 0.977741 0.450336
vt 0.980942 0.451000
vt 0.873805 0.566294
vt 0.890730 0.566294
vt 0.873805 0.847441
vt 0.891063 0.847441
vt 0.892754 0.566294
vt 0.894294 0.847532
vt 0.894460 0.566294
vt 0.896951 0.847818
vt 0.896996 0.566294
vt 0.899623 0.848285
vt 0.972019 0.861862
vt 0.971460 0.566294
vt 0.973997 0.566294
vt 0.974706 0.862345
vt 0.976291 0.566294
vt 0.976775 0.862616
vt 0.979115 0.566294
vt 0.979220 0.862721
vt 0.996251 0.566294
vt 0.996251 0.862721
vn 0.3459 -0.9014 0.2604
vn -0.0368 -0.4192 0.9071
vn -0.1678 -0.9489 0.2672
vn -0.2974 0.6661 0.6840
vn -0.4598 0.1360 0.8776
vn 0.1353 0.3438 0.9292
vn -0.2641 -0.3174 0.9108
vn 0.1354 0.3438 0.9292
vn -0.0367 -0.4192 0.9072
vn -0.2424 -0.6679 0.7037
vn -0.2424 -0.6680 0.7036
vn -0.1679 -0.9489 0.2672
vn -0.3852 -0.8677 0.3143
vn -0.2641 -0.3176 0.9107
vn -0.3853 -0.8676 0.3143
vn -0.2425 -0.6679 0.7036
vn -0.6566 -0.2384 0.7155
vn -0.6568 -0.2385 0.7154
vn -0.6749 -0.6847 0.2751
vn -0.2642 -0.3175 0.9107
vn -0.2642 -0.3176 0.9107
vn -0.6747 -0.6849 0.2751
vn 0.3486 -0.5451 0.7625
vn 0.3460 -0.9014 0.2604
vn 0.9174 -0.2405 0.3170
vn 0.3488 -0.5450 0.7624
vn 0.3487 -0.5450 0.7624
vn 0.4577 -0.0516 0.8876
vn 0.9174 -0.2404 0.3171
vn 0.8608 0.4392 0.2573
vn 0.4577 -0.0515 0.8876
vn 0.6105 0.3920 0.6882
vn 0.8608 0.4392 0.2572
vn 0.4425 0.8600 0.2543
vn 0.6104 0.3921 0.6882
vn 0.4425 0.8599 0.2544
vn 0.1354 0.3439 0.9292
vn 0.4425 0.8600 0.2544
vn -0.2633 0.9300 0.2564
vn -0.2634 0.9300 0.2564
vn -0.2973 0.6662 0.6840
vn -0.8788 0.4023 0.2566
vn -0.2974 0.6662 0.6840
vn -0.4599 0.1360 0.8775
vn -0.8788 0.4022 0.2566
vn -0.9286 -0.2541 0.2705
vn -0.6568 -0.2383 0.7154
vn -0.9285 -0.2543 0.2705
vn -0.0368 -0.4192 0.9072
vn 0.3486 -0.5450 0.7625
vn -0.1680 -0.9490 0.2669
vn -0.4005 -0.9163 0.0000
vn -0.1310 -0.9914 0.0000
vn -0.4006 -0.9163 0.0000
vn -0.3668 -0.8926 -0.2622
vn -0.1229 -0.9558 -0.2672
vn -0.6748 -0.6849 0.2748
vn -0.4011 -0.9160 0.0000
vn -0.3853 -0.8677 0.3141
vn -0.3852 -0.8677 0.3141
vn -0.3669 -0.8926 -0.2622
vn -0.6748 -0.6849 -0.2748
vn -0.7676 -0.6409 0.0000
vn -0.6750 -0.6848 -0.2748
vn -0.7679 -0.6406 0.0000
vn -0.9286 -0.2542 -0.2704
vn -0.7679 -0.6406 0.0001
vn -0.9851 -0.1717 0.0000
vn -0.9286 -0.2543 -0.2704
vn -0.9852 -0.1716 0.0000
vn -0.8789 0.4022 -0.2565
vn -0.8317 0.5552 0.0001
vn -0.8789 0.4023 -0.2565
vn -0.8316 0.5553 0.0000
vn -0.2634 0.9300 -0.2564
vn -0.1119 0.9937 0.0001
vn -0.2634 0.9300 -0.2563
vn -0.2633 0.9300 -0.2563
vn 0.4425 0.8599 -0.2544
vn 0.5551 0.8318 -0.0000
vn 0.4425 0.8600 -0.2544
vn 0.5550 0.8319 -0.0000
vn 0.8608 0.4391 -0.2573
vn 0.9365 0.3505 -0.0000
vn 0.8608 0.4392 -0.2572
vn 0.9366 0.3505 -0.0000
vn 0.9174 -0.2405 -0.3170
vn 0.9090 -0.4168 -0.0000
vn 0.9174 -0.2404 0.3170
vn 0.8608 0.4391 0.2573
vn 0.5551 0.8318 0.0001
vn -0.1119 0.9937 0.0000
vn -0.2633 0.9300 0.2563
vn -0.1119 0.9937 0.0002
vn -0.2634 0.9300 0.2563
vn -0.8317 0.5552 0.0000
vn -0.8789 0.4022 0.2565
vn -0.9286 -0.2542 0.2704
vn -0.9851 -0.1717 0.0001
vn -0.9286 -0.2543 0.2704
vn -0.6749 -0.6848 0.2749
vn 0.4039 -0.8628 -0.3040
vn 0.3328 -0.9430 -0.0000
vn 0.3328 -0.9430 -0.0002
vn 0.3327 -0.9430 0.0000
vn 0.3459 -0.9014 0.2603
vn -0.1307 -0.9914 0.0000
vn -0.1679 -0.9490 0.2670
vn -0.1228 -0.9558 -0.2672
vn 0.4039 -0.8629 -0.3039
vn -0.0368 -0.4193 -0.9071
vn 0.4577 -0.0516 -0.8876
vn 0.3486 -0.5450 -0.7625
vn -0.6748 -0.6849 -0.2751
vn -0.2642 -0.3175 -0.9107
vn -0.3668 -0.8925 -0.2624
vn -0.2642 -0.3176 -0.9107
vn -0.2425 -0.6679 -0.7036
vn -0.3667 -0.8925 -0.2625
vn -0.2424 -0.6679 -0.7036
vn -0.1229 -0.9557 -0.2674
vn -0.0368 -0.4192 -0.9071
vn -0.1228 -0.9557 -0.2674
vn 0.4039 -0.8628 -0.3039
vn 0.3486 -0.5451 -0.7625
vn 0.3487 -0.5451 -0.7624
vn 0.3487 -0.5450 -0.7625
vn 0.4577 -0.0515 -0.8876
vn 0.6104 0.3921 -0.6882
vn 0.8608 0.4391 -0.2572
vn 0.6105 0.3921 -0.6882
vn 0.4424 0.8600 -0.2543
vn 0.1353 0.3439 -0.9292
vn 0.4425 0.8600 -0.2543
vn 0.1354 0.3439 -0.9292
vn -0.2973 0.6662 -0.6840
vn -0.2424 -0.6679 -0.7037
vn -0.2641 -0.3175 -0.9107
vn -0.0367 -0.4192 -0.9071
vn -0.2974 0.6661 -0.6840
vn -0.8788 0.4023 -0.2566
vn -0.2974 0.6662 -0.6840
vn -0.4599 0.1360 -0.8775
vn -0.4598 0.1360 -0.8775
vn -0.9286 -0.2541 -0.2705
vn -0.6567 -0.2383 -0.7155
vn -0.9286 -0.2542 -0.2705
vn -0.2974 0.6662 -0.6839
vn -0.6567 -0.2384 -0.7155
vn -0.6749 -0.6847 -0.2750
vn -0.6567 -0.2385 -0.7154
vn -0.6567 -0.2384 -0.7154
vn -0.6749 -0.6848 -0.2750
vn -0.9285 -0.2542 -0.2705
vn 0.9826 -0.1859 0.0000
vn 0.9842 0.1600 -0.0759
vn 0.9179 0.3968 -0.0000
vn 0.8890 0.2753 -0.3660
vn 0.9742 -0.1843 -0.1302
vn 0.5278 0.3260 -0.7843
vn 0.8171 -0.1546 -0.5554
vn 0.8889 0.2753 -0.3661
vn 0.9742 -0.1843 -0.1301
vn 0.8170 -0.1546 -0.5555
vn 0.1040 0.3172 -0.9426
vn 0.5279 0.3260 -0.7843
vn 0.3754 -0.0711 -0.9241
vn -0.0978 0.0193 -0.9950
vn 0.1040 0.3173 -0.9426
vn 0.0970 -0.0184 -0.9951
vn 0.0967 -0.0183 -0.9951
vn -0.9810 0.1943 0.0000
vn -0.9129 0.4081 0.0000
vn -0.9789 0.1938 -0.0650
vn -0.8246 0.5573 -0.0970
vn -0.9788 0.1938 -0.0659
vn -0.9075 0.1797 -0.3796
vn -0.7148 0.5040 -0.4848
vn -0.9075 0.1796 -0.3797
vn -0.7148 0.5039 -0.4849
vn -0.5502 0.1089 -0.8279
vn -0.3369 0.4492 -0.8275
vn -0.5501 0.1089 -0.8280
vn -0.0975 0.0193 -0.9950
vn -0.3370 0.4492 -0.8275
vn -0.0715 0.4745 -0.8774
vn 0.2183 0.8256 0.5203
vn 0.1040 0.3173 0.9426
vn 0.5279 0.3260 0.7843
vn -0.0716 0.4745 0.8773
vn 0.0253 0.9250 0.3791
vn 0.1040 0.3172 0.9426
vn 0.0252 0.9250 0.3791
vn 0.2855 0.9392 0.1905
vn 0.5278 0.3259 0.7843
vn 0.2855 0.9392 0.1906
vn 0.8890 0.2753 0.3660
vn -0.3369 0.4492 0.8275
vn -0.0484 0.9286 0.3680
vn -0.0715 0.4746 0.8773
vn -0.0484 0.9286 0.3679
vn 0.0000 1.0000 0.0000
vn 0.2801 0.9600 0.0000
vn 0.2854 0.9393 0.1906
vn 0.6493 0.7578 0.0643
vn 0.6494 0.7578 0.0643
vn 0.9842 0.1600 0.0759
vn 0.8889 0.2753 0.3661
vn 0.0252 0.9250 -0.3791
vn 0.2855 0.9392 -0.1906
vn 0.2855 0.9393 -0.1906
vn 0.6493 0.7578 -0.0643
vn 0.2801 0.9600 -0.0003
vn 0.6493 0.7578 -0.0642
vn -0.7147 0.5040 0.4849
vn -0.3370 0.4492 0.8275
vn -0.1897 0.9392 0.2863
vn -0.0485 0.9286 0.3680
vn -0.1897 0.9392 0.2862
vn -0.0485 0.9286 0.3679
vn -0.0485 0.9286 -0.3679
vn 0.0253 0.9250 -0.3791
vn -0.0484 0.9286 -0.3679
vn -0.0484 0.9286 -0.3678
vn -0.0716 0.4745 -0.8773
vn 0.0253 0.9250 -0.3790
vn 0.8890 0.2752 -0.3660
vn 0.2855 0.9393 -0.1905
vn 0.5279 0.3259 -0.7843
vn 0.5278 0.3259 -0.7843
vn 0.2183 0.8256 -0.5203
vn 0.2183 0.8256 -0.5202
vn 0.0252 0.9250 -0.3790
vn 0.1039 0.3172 -0.9426
vn -0.0716 0.4745 -0.8774
vn -0.0485 0.9286 -0.3678
vn -0.1897 0.9392 -0.2863
vn -0.1897 0.9392 -0.2862
vn -0.1896 0.9392 -0.2862
vn -0.2667 0.9634 -0.0264
vn -0.2668 0.9634 -0.0264
vn -0.4463 0.8949 -0.0000
vn -0.4464 0.8949 0.0000
vn -0.9129 0.4083 -0.0000
vn -0.3370 0.4492 -0.8274
vn -0.4516 0.8722 -0.1879
vn -0.8246 0.5573 0.0970
vn -0.2668 0.9634 0.0264
vn -0.2668 0.9634 0.0265
vn -0.2667 0.9634 0.0264
vn -0.1896 0.9392 0.2862
vn -0.7148 0.5040 0.4848
vn -0.4516 0.8722 0.1879
vn -0.4516 0.8722 0.1880
vn -0.8246 0.5573 0.0971
vn -0.9789 0.1938 0.0650
vn -0.8247 0.5573 0.0970
vn -0.9788 0.1938 0.0660
vn -0.9076 0.1797 0.3795
vn -0.8247 0.5572 0.0971
vn -0.9076 0.1797 0.3796
vn -0.9075 0.1796 0.3797
vn -0.5503 0.1089 0.8278
vn -0.7148 0.5039 0.4849
vn -0.5503 0.1089 0.8279
vn -0.3370 0.4491 0.8275
vn -0.5501 0.1089 0.8280
vn -0.0978 0.0193 0.9950
vn -0.3369 0.4491 0.8275
vn -0.0716 0.4744 0.8774
vn -0.0715 0.4744 0.8774
vn -0.0974 0.0192 0.9951
vn 0.1039 0.3172 0.9426
vn 0.0967 -0.0183 0.9951
vn 0.1040 0.3171 0.9427
vn 0.0970 -0.0184 0.9951
vn 0.3753 -0.0710 0.9242
vn 0.3755 -0.0711 0.9241
vn 0.8170 -0.1546 0.5555
vn 0.5279 0.3259 0.7843
vn 0.8889 0.2753 0.3660
vn 0.9742 -0.1843 0.1302
vn 0.9842 0.1600 0.0760
usemtl magnum_composite
s off
f 1/1/1 2/2/2 3/3/3
f 4/4/4 5/5/5 6/6/6
f 5/5/5 7/7/7 6/6/8
f 6/6/6 7/7/7 2/2/9
f 7/7/7 8/8/10 2/2/9
f 2/2/2 8/8/11 3/3/12
f 8/8/11 9/9/13 3/3/12
f 7/7/14 9/9/15 8/8/16
f 5/5/5 10/10/17 7/7/7
f 10/10/18 11/11/19 7/7/20
f 7/7/21 11/11/22 9/9/15
f 2/2/2 1/1/1 12/12/23
f 1/1/24 13/13/25 12/12/26
f 12/12/27 13/13/25 14/14/28
f 13/13/29 15/15/30 14/14/28
f 14/14/31 15/15/30 16/16/32
f 15/15/33 17/17/34 16/16/35
f 16/16/35 17/17/36 6/6/37
f 17/17/38 18/18/39 6/6/37
f 6/6/37 18/18/40 19/19/41
f 18/18/40 20/20/42 19/19/4
f 19/19/43 20/20/42 21/21/44
f 20/20/45 22/22/46 21/21/44
f 21/21/44 22/22/46 10/10/47
f 22/22/48 11/11/19 10/10/18
f 16/16/35 6/6/6 14/14/31
f 6/6/6 2/2/49 14/14/31
f 14/14/28 2/2/49 12/12/50
f 23/23/51 24/24/52 25/25/53
f 24/24/54 26/26/55 25/25/53
f 26/26/55 27/27/56 25/25/53
f 28/28/57 24/24/58 29/29/59
f 24/24/54 23/23/51 29/29/60
f 26/26/61 24/24/58 30/30/62
f 24/24/58 31/31/63 30/30/62
f 30/30/64 31/31/65 32/32/66
f 31/31/67 33/33/68 32/32/69
f 32/32/66 33/33/70 34/34/71
f 33/33/70 35/35/72 34/34/71
f 34/34/73 35/35/74 36/36/75
f 35/35/74 37/37/76 36/36/77
f 36/36/78 37/37/76 38/38/79
f 37/37/76 39/39/80 38/38/79
f 38/38/81 39/39/82 40/40/83
f 39/39/82 41/41/84 40/40/83
f 40/40/85 41/41/86 42/42/87
f 41/41/86 43/43/88 42/42/87
f 44/44/24 43/43/88 45/45/25
f 43/43/88 41/41/86 45/45/25
f 45/45/89 41/41/86 46/46/30
f 41/41/84 39/39/82 46/46/90
f 46/46/90 39/39/82 47/47/38
f 39/39/91 37/37/92 47/47/36
f 47/47/36 37/37/92 48/48/93
f 37/37/94 35/35/74 48/48/95
f 48/48/40 35/35/74 49/49/42
f 35/35/96 33/33/70 49/49/97
f 49/49/97 33/33/70 50/50/98
f 33/33/99 31/31/65 50/50/100
f 50/50/100 31/31/65 28/28/101
f 31/31/63 24/24/58 28/28/57
f 42/42/87 43/43/88 51/51/102
f 51/51/102 43/43/88 52/52/103
f 43/43/88 44/44/24 52/52/104
f 52/52/105 44/44/106 53/53/107
f 44/44/106 54/54/108 53/53/107
f 53/53/107 55/55/109 52/52/105
f 55/55/109 51/51/110 52/52/105
f 56/56/111 57/57/112 58/58/113
f 59/59/114 60/60/115 61/61/116
f 60/60/117 62/62/118 61/61/116
f 61/61/119 62/62/120 63/63/121
f 62/62/120 56/56/122 63/63/121
f 63/63/123 56/56/111 64/64/124
f 56/56/122 58/58/125 64/64/102
f 64/64/102 58/58/126 65/65/87
f 58/58/127 57/57/112 65/65/87
f 65/65/87 57/57/112 66/66/85
f 57/57/128 67/67/129 66/66/85
f 66/66/130 67/67/131 68/68/132
f 67/67/129 69/69/133 68/68/132
f 68/68/134 69/69/135 70/70/78
f 69/69/135 71/71/136 70/70/75
f 62/62/137 60/60/138 56/56/122
f 60/60/138 69/69/135 56/56/139
f 56/56/122 69/69/133 57/57/128
f 69/69/135 67/67/129 57/57/128
f 70/70/75 71/71/140 72/72/141
f 71/71/142 73/73/143 72/72/141
f 72/72/71 73/73/144 74/74/145
f 73/73/143 75/75/146 74/74/147
f 76/76/148 69/69/135 77/77/144
f 69/69/135 60/60/115 77/77/144
f 77/77/144 60/60/138 75/75/149
f 60/60/115 59/59/150 75/75/151
f 75/75/152 59/59/153 74/74/154
usemtl magnum_metal_shiny
f 78/78/155 79/79/156 80/80/157
f 81/81/158 79/79/156 82/82/159
f 79/79/156 78/78/155 82/82/159
f 83/83/160 81/81/158 84/84/161
f 81/81/162 82/82/163 84/84/164
f 85/85/165 83/83/166 86/86/167
f 83/83/166 84/84/161 86/86/167
f 87/87/168 85/85/169 88/88/170
f 85/85/165 86/86/167 88/88/171
f 89/89/172 90/90/173 91/91/174
f 90/90/173 92/92/175 91/91/174
f 91/91/176 92/92/175 93/93/177
f 92/92/175 94/94/178 93/93/177
f 93/93/179 94/94/180 95/95/181
f 94/94/180 96/96/182 95/95/181
f 95/95/183 96/96/182 87/87/184
f 96/96/185 97/97/186 87/87/184
f 87/87/168 97/97/186 85/85/169
f 99/98/187 100/99/188 101/100/189
f 102/101/190 100/99/188 103/102/191
f 100/99/192 99/98/187 103/102/191
f 103/102/193 99/98/187 104/103/194
f 99/98/187 101/100/195 104/103/196
f 104/103/196 101/100/189 105/104/197
f 106/105/198 102/101/190 107/106/199
f 102/101/200 103/102/193 107/106/201
f 107/106/201 103/102/191 108/107/202
f 103/102/193 104/103/196 108/107/202
f 108/107/202 104/103/196 109/108/203
f 104/103/204 110/109/205 109/108/203
f 109/108/203 110/109/205 111/110/157
f 110/109/206 112/111/207 111/110/157
f 104/103/204 105/104/208 110/109/205
f 105/104/197 112/111/207 110/109/205
f 113/112/209 108/107/202 114/113/210
f 108/107/202 109/108/203 114/113/210
f 114/113/211 109/108/203 115/114/212
f 109/108/213 111/110/157 115/114/214
f 115/114/214 111/110/157 116/115/156
f 117/116/215 106/105/216 118/117/217
f 106/105/198 107/106/218 118/117/217
f 118/117/219 107/106/201 119/118/202
f 107/106/220 108/107/202 119/118/202
f 119/118/202 108/107/202 120/119/221
f 108/107/202 113/112/222 120/119/223
f 120/119/224 113/112/209 121/120/225
f 113/112/226 122/121/169 121/120/225
f 116/115/156 123/122/158 115/114/214
f 123/122/227 114/113/228 115/114/214
f 123/122/227 124/123/229 114/113/210
f 124/123/230 125/124/231 114/113/210
f 114/113/228 125/124/232 113/112/233
f 125/124/232 122/121/234 113/112/209
f 122/121/165 125/124/231 124/123/229
f 121/120/235 126/125/185 120/119/236
f 126/125/182 127/126/237 120/119/223
f 120/119/223 127/126/238 119/118/202
f 127/126/239 128/127/240 119/118/202
f 119/118/202 128/127/241 129/128/242
f 128/127/241 130/129/175 129/128/243
f 129/128/243 130/129/175 131/130/244
f 126/125/245 132/131/178 127/126/238
f 132/131/178 133/132/246 127/126/238
f 127/126/238 133/132/246 128/127/241
f 133/132/246 130/129/175 128/127/240
f 130/129/175 133/132/246 132/131/178
f 131/130/244 134/133/247 129/128/243
f 134/133/247 135/134/248 129/128/243
f 129/128/242 135/134/249 119/118/202
f 135/134/250 118/117/251 119/118/202
f 134/133/247 117/116/252 136/135/253
f 117/116/252 118/117/219 136/135/254
f 136/135/253 118/117/251 135/134/248
f 134/133/255 136/135/254 135/134/249
f 137/136/172 138/137/256 139/138/173
f 138/137/256 140/139/257 139/138/173
f 138/137/258 141/140/259 140/139/260
f 141/140/261 142/141/252 140/139/255
f 141/140/262 143/142/263 142/141/264
f 143/142/265 144/143/266 142/141/264
f 143/142/267 145/144/268 144/143/269
f 145/144/268 146/145/270 144/143/269
f 146/145/271 145/144/272 147/146/273
f 145/144/272 148/147/274 147/146/273
f 147/146/275 148/147/276 149/148/277
f 147/146/275 149/148/277 150/149/195
f 149/148/278 151/150/279 150/149/280
f 150/149/280 151/150/279 152/151/281
f 151/150/279 153/152/282 152/151/197
f 152/151/197 153/152/282 154/153/207
f 153/152/282 155/154/155 154/153/207
f 154/153/283 155/154/155 156/155/157
