# Blender v3.0.0 OBJ File: ''
# www.blender.org
mtllib Regenerator_Gem.mtl
o default:default.001_Mesh.037
v -0.012773 0.785512 -0.004319
v -0.082749 0.716002 -0.004319
v -0.012773 0.716002 0.065657
v -0.082749 0.690462 -0.004319
v -0.012773 0.620965 -0.004319
v -0.012773 0.690462 0.065657
v -0.012773 0.785512 -0.029860
v -0.012773 0.716002 -0.099836
v -0.082749 0.716002 -0.029860
v -0.012773 0.690462 -0.099836
v -0.012773 0.620965 -0.029860
v -0.082749 0.690462 -0.029860
v 0.012768 0.785512 -0.029860
v 0.082744 0.716002 -0.029860
v 0.012768 0.716002 -0.099836
v 0.082744 0.690462 -0.029860
v 0.012768 0.620965 -0.029860
v 0.012768 0.690462 -0.099836
v 0.012768 0.785512 -0.004319
v 0.012768 0.716002 0.065657
v 0.082744 0.716002 -0.004319
v 0.012768 0.690462 0.065657
v 0.012768 0.620965 -0.004319
v 0.082744 0.690462 -0.004319
v 0.012768 0.785512 -0.004319
v 0.082744 0.716002 -0.004319
v 0.012768 0.785512 -0.029860
v 0.082744 0.716002 -0.029860
v 0.082744 0.716002 -0.029860
v 0.082744 0.690462 -0.029860
v 0.012768 0.716002 -0.099836
v 0.012768 0.690462 -0.099836
v 0.082744 0.716002 -0.004319
v 0.082744 0.690462 -0.004319
v 0.082744 0.716002 -0.029860
v 0.082744 0.690462 -0.029860
v 0.082744 0.690462 -0.004319
v 0.012768 0.620965 -0.004319
v 0.082744 0.690462 -0.029860
v 0.012768 0.620965 -0.029860
v -0.012773 0.785512 -0.004319
v -0.012773 0.716002 0.065657
v 0.012768 0.785512 -0.004319
v 0.012768 0.716002 0.065657
v 0.012768 0.716002 0.065657
v 0.012768 0.690462 0.065657
v 0.082744 0.716002 -0.004319
v 0.082744 0.690462 -0.004319
v -0.012773 0.716002 0.065657
v -0.012773 0.690462 0.065657
v 0.012768 0.716002 0.065657
v 0.012768 0.690462 0.065657
v -0.012773 0.690462 0.065657
v -0.012773 0.620965 -0.004319
v 0.012768 0.690462 0.065657
v 0.012768 0.620965 -0.004319
v 0.012768 0.785512 -0.004319
v 0.012768 0.785512 -0.029860
v -0.012773 0.785512 -0.004319
v -0.012773 0.785512 -0.029860
v -0.012773 0.620965 -0.004319
v -0.012773 0.620965 -0.029860
v 0.012768 0.620965 -0.004319
v 0.012768 0.620965 -0.029860
v -0.012773 0.785512 -0.029860
v -0.082749 0.716002 -0.029860
v -0.012773 0.785512 -0.004319
v -0.082749 0.716002 -0.004319
v -0.082749 0.716002 -0.004319
v -0.082749 0.690462 -0.004319
v -0.012773 0.716002 0.065657
v -0.012773 0.690462 0.065657
v -0.082749 0.716002 -0.029860
v -0.082749 0.690462 -0.029860
v -0.082749 0.716002 -0.004319
v -0.082749 0.690462 -0.004319
v -0.082749 0.690462 -0.029860
v -0.012773 0.620965 -0.029860
v -0.082749 0.690462 -0.004319
v -0.012773 0.620965 -0.004319
v 0.012768 0.785512 -0.029860
v 0.012768 0.716002 -0.099836
v -0.012773 0.785512 -0.029860
v -0.012773 0.716002 -0.099836
v -0.012773 0.716002 -0.099836
v -0.012773 0.690462 -0.099836
v -0.082749 0.716002 -0.029860
v -0.082749 0.690462 -0.029860
v 0.012768 0.716002 -0.099836
v 0.012768 0.690462 -0.099836
v -0.012773 0.716002 -0.099836
v -0.012773 0.690462 -0.099836
v 0.012768 0.690462 -0.099836
v 0.012768 0.620965 -0.029860
v -0.012773 0.690462 -0.099836
v -0.012773 0.620965 -0.029860
vt 0.490051 0.763754
vt 0.981420 0.762601
vt 0.487568 0.992685
vt 0.978937 0.991532
vt 0.490051 0.763754
vt 0.981420 0.762601
vt 0.487568 0.992685
vt 0.978937 0.991532
vt 0.499999 0.500417
vt 0.041271 0.092672
vt 0.958711 0.092672
vt 0.972676 0.095291
vt 0.495800 0.497798
vt 0.037088 0.100545
vt 0.499999 0.500417
vt 0.041271 0.092672
vt 0.958711 0.092672
vt 0.972827 0.091733
vt 0.495950 0.494241
vt 0.037238 0.096971
vt 0.499999 0.500417
vt 0.041271 0.092672
vt 0.958711 0.092672
vt 0.972827 0.091733
vt 0.495950 0.494241
vt 0.037238 0.096971
vt 0.499999 0.500417
vt 0.041271 0.092672
vt 0.958711 0.092672
vt 0.972827 0.091733
vt 0.495950 0.494241
vt 0.037238 0.096971
vt 0.021482 0.991170
vt 0.023017 0.507549
vt 0.389523 0.991318
vt 0.391058 0.507697
vt 0.026854 0.087847
vt 0.026854 -0.082979
vt 0.988102 0.087847
vt 0.988102 -0.082963
vt 0.487568 0.740169
vt 0.490051 0.511238
vt 0.978937 0.739000
vt 0.981420 0.510068
vt 0.391359 0.501817
vt 0.388199 0.991714
vt 0.028073 0.501537
vt 0.024913 0.991434
vt 0.021482 0.991170
vt 0.023017 0.507549
vt 0.389523 0.991318
vt 0.391058 0.507697
vt 0.026854 0.087847
vt 0.026854 -0.082979
vt 0.988102 0.087847
vt 0.988102 -0.082963
vt 0.487568 0.740169
vt 0.490051 0.511238
vt 0.978937 0.739000
vt 0.981420 0.510068
vt 0.391359 0.501817
vt 0.388199 0.991714
vt 0.028073 0.501537
vt 0.024913 0.991434
vt 0.021482 0.991170
vt 0.023017 0.507549
vt 0.389523 0.991318
vt 0.391058 0.507697
vt 0.026854 0.087847
vt 0.026854 -0.082979
vt 0.988102 0.087847
vt 0.988102 -0.082963
vt 0.487568 0.740169
vt 0.490051 0.511238
vt 0.978937 0.739000
vt 0.981420 0.510068
vt 0.391359 0.501817
vt 0.388199 0.991714
vt 0.028073 0.501537
vt 0.024913 0.991434
vt 0.021482 0.991170
vt 0.023017 0.507549
vt 0.389523 0.991318
vt 0.391058 0.507697
vt 0.026854 0.087847
vt 0.026854 -0.082979
vt 0.988102 0.087847
vt 0.988102 -0.082963
vt 0.487568 0.740169
vt 0.490051 0.511238
vt 0.978937 0.739000
vt 0.981420 0.510068
vt 0.391359 0.501817
vt 0.388199 0.991714
vt 0.028073 0.501537
vt 0.024913 0.991434
vn 0.0000 1.0000 0.0000
vn 0.0000 -1.0000 0.0000
vn -0.5761 0.5799 0.5761
vn -0.5760 -0.5800 0.5760
vn -0.5761 0.5799 -0.5761
vn -0.5760 -0.5800 -0.5760
vn 0.5761 0.5799 -0.5761
vn 0.5760 -0.5800 -0.5760
vn 0.5761 0.5799 0.5761
vn 0.5760 -0.5800 0.5760
vn 0.7047 0.7095 0.0000
vn 0.7071 0.0000 -0.7071
vn 1.0000 0.0000 0.0000
vn 0.7047 -0.7095 0.0000
vn 0.0000 0.7095 0.7047
vn 0.7071 0.0000 0.7071
vn 0.0000 0.0000 1.0000
vn 0.0000 -0.7095 0.7047
vn -0.7047 0.7095 0.0000
vn -0.7071 0.0000 0.7071
vn -1.0000 0.0000 0.0000
vn -0.7047 -0.7095 0.0000
vn 0.0000 0.7095 -0.7047
vn -0.7071 0.0000 -0.7071
vn 0.0000 0.0000 -1.0000
vn 0.0000 -0.7095 -0.7047
usemtl Regenerator.002
s 1
f 57/1/1 58/2/1 59/3/1
f 58/2/1 60/4/1 59/3/1
f 61/5/2 62/6/2 63/7/2
f 62/6/2 64/8/2 63/7/2
usemtl RegeneratorGem.002
f 1/9/3 2/10/3 3/11/3
f 4/12/4 5/13/4 6/14/4
f 7/15/5 8/16/5 9/17/5
f 10/18/6 11/19/6 12/20/6
f 13/21/7 14/22/7 15/23/7
f 16/24/8 17/25/8 18/26/8
f 19/27/9 20/28/9 21/29/9
f 22/30/10 23/31/10 24/32/10
f 25/33/11 26/34/11 27/35/11
f 26/34/11 28/36/11 27/35/11
f 29/37/12 30/38/12 31/39/12
f 30/38/12 32/40/12 31/39/12
f 33/41/13 34/42/13 35/43/13
f 34/42/13 36/44/13 35/43/13
f 37/45/14 38/46/14 39/47/14
f 38/46/14 40/48/14 39/47/14
f 41/49/15 42/50/15 43/51/15
f 42/50/15 44/52/15 43/51/15
f 45/53/16 46/54/16 47/55/16
f 46/54/16 48/56/16 47/55/16
f 49/57/17 50/58/17 51/59/17
f 50/58/17 52/60/17 51/59/17
f 53/61/18 54/62/18 55/63/18
f 54/62/18 56/64/18 55/63/18
f 65/65/19 66/66/19 67/67/19
f 66/66/19 68/68/19 67/67/19
f 69/69/20 70/70/20 71/71/20
f 70/70/20 72/72/20 71/71/20
f 73/73/21 74/74/21 75/75/21
f 74/74/21 76/76/21 75/75/21
f 77/77/22 78/78/22 79/79/22
f 78/78/22 80/80/22 79/79/22
f 81/81/23 82/82/23 83/83/23
f 82/82/23 84/84/23 83/83/23
f 85/85/24 86/86/24 87/87/24
f 86/86/24 88/88/24 87/87/24
f 89/89/25 90/90/25 91/91/25
f 90/90/25 92/92/25 91/91/25
f 93/93/26 94/94/26 95/95/26
f 94/94/26 96/96/26 95/95/26
