# Blender 3.5.0
# www.blender.org
mtllib GL Grenade.mtl
o default:default.007
v 0.192266 -0.029150 -0.017541
v 0.192266 -0.033660 -0.000712
v 0.192266 -0.032513 -0.009423
v 0.186237 0.011257 -0.042721
v 0.192266 -0.000000 -0.034371
v 0.186237 -0.000000 -0.044203
v 0.192266 -0.008712 -0.033224
v 0.186237 -0.011257 -0.042721
v 0.192266 -0.016830 -0.029862
v 0.186237 -0.021746 -0.038377
v 0.192266 -0.023801 -0.024513
v 0.186237 -0.030754 -0.031465
v 0.186237 -0.037665 -0.022458
v 0.186237 -0.042010 -0.011968
v 0.186237 -0.043492 -0.000712
v 0.192266 -0.032513 0.008000
v 0.192266 0.029150 -0.017541
v 0.192266 -0.000000 0.032948
v 0.192266 0.029150 0.016118
v 0.192266 -0.029150 0.016118
v 0.186237 -0.042010 0.010545
v 0.186237 -0.037665 0.021034
v 0.192266 -0.023801 0.023089
v 0.186237 -0.030754 0.030041
v 0.192266 -0.016830 0.028438
v 0.186237 -0.021746 0.036953
v 0.192266 -0.008712 0.031801
v 0.186237 -0.011257 0.041298
v 0.186237 -0.000000 0.042780
v 0.192266 0.008712 0.031801
v 0.186237 0.011257 0.041298
v 0.192266 0.016830 0.028438
v 0.192266 0.023801 0.023089
v 0.186237 0.021746 0.036953
v 0.186237 0.030754 0.030041
v 0.186237 0.037665 0.021034
v 0.192266 0.032513 0.008000
v 0.186237 0.042010 0.010545
v 0.192266 0.033660 -0.000712
v 0.186237 0.043492 -0.000712
v 0.192266 0.032513 -0.009423
v 0.186237 0.042010 -0.011968
v 0.186237 0.037665 -0.022458
v 0.192266 0.023801 -0.024513
v 0.186237 0.030754 -0.031465
v 0.192266 0.016830 -0.029862
v 0.186237 0.021746 -0.038377
v 0.192266 0.008712 -0.033224
v 0.012578 -0.062231 0.015963
v 0.012578 -0.064427 -0.000712
v 0.126314 -0.062231 0.015963
v 0.126314 -0.064427 -0.000712
v 0.012578 -0.055795 0.031501
v 0.126314 -0.055795 0.031501
v 0.000331 -0.045866 -0.000712
v 0.000331 -0.044303 0.011159
v 0.000331 -0.039721 0.022221
v 0.012578 -0.045557 0.044844
v 0.000331 -0.032432 0.031720
v 0.012578 -0.032213 0.055083
v 0.000331 -0.022933 0.039009
v 0.012578 -0.016675 0.061519
v 0.000331 -0.011871 0.043591
v 0.012578 -0.000000 0.063714
v 0.000331 -0.000000 0.045153
v 0.012578 0.016675 0.061519
v 0.000331 0.011871 0.043591
v 0.126314 -0.045557 0.044844
v 0.126314 -0.032213 0.055083
v 0.126314 -0.016675 0.061519
v 0.126314 -0.000000 0.063714
v 0.126314 0.016675 0.061519
v 0.126314 0.032213 0.055083
v 0.012578 0.032213 0.055083
v 0.126314 0.045557 0.044844
v 0.012578 0.045557 0.044844
v 0.132483 0.016387 0.060445
v 0.132483 -0.000000 0.062602
v 0.132483 -0.016387 0.060445
v 0.132483 -0.031658 0.054120
v 0.132483 -0.044771 0.044058
v 0.132483 -0.054832 0.030945
v 0.132483 -0.061158 0.015675
v 0.132483 -0.063315 -0.000712
v 0.186237 -0.030754 0.030041
v 0.186237 -0.037665 0.021034
v 0.186237 -0.042010 0.010545
v 0.186237 -0.043492 -0.000712
v 0.186237 -0.021746 0.036953
v 0.186237 -0.011257 0.041298
v 0.186237 -0.000000 0.042780
v 0.186237 0.011257 0.041298
v 0.186237 0.021746 0.036953
v 0.132483 0.031658 0.054120
v 0.186237 0.030754 0.030041
v 0.132483 0.044771 0.044058
v 0.186237 0.037665 0.021034
v 0.132483 0.054832 0.030945
v 0.126314 0.055795 0.031501
v 0.126314 0.062231 0.015963
v 0.132483 0.061158 0.015675
v 0.126314 0.064427 -0.000712
v 0.132483 0.063315 -0.000712
v 0.132483 0.061158 -0.017099
v 0.126314 0.062231 -0.017386
v 0.132483 0.054832 -0.032369
v 0.126314 0.055795 -0.032925
v 0.186237 0.042010 0.010545
v 0.186237 0.043492 -0.000712
v 0.186237 0.042010 -0.011968
v 0.186237 0.037665 -0.022458
v 0.132483 0.044771 -0.045482
v 0.186237 0.030754 -0.031465
v 0.132483 0.031658 -0.055544
v 0.186237 0.021746 -0.038377
v 0.132483 0.016387 -0.061869
v 0.186237 0.011257 -0.042721
v 0.126314 0.045557 -0.046268
v 0.126314 0.032213 -0.056506
v 0.126314 0.016675 -0.062942
v 0.132483 -0.000000 -0.064026
v 0.126314 -0.000000 -0.065138
v 0.132483 -0.016387 -0.061869
v 0.126314 -0.016675 -0.062942
v 0.132483 -0.031658 -0.055543
v 0.126314 -0.032213 -0.056506
v 0.132483 -0.044771 -0.045482
v 0.126314 -0.045557 -0.046268
v 0.186237 -0.000000 -0.044203
v 0.186237 -0.011257 -0.042721
v 0.186237 -0.021746 -0.038377
v 0.186237 -0.030754 -0.031465
v 0.132483 -0.054832 -0.032369
v 0.186237 -0.037665 -0.022458
v 0.132483 -0.061158 -0.017099
v 0.186237 -0.042010 -0.011968
v 0.132483 -0.063315 -0.000712
v 0.186237 -0.043492 -0.000712
v 0.126314 -0.055795 -0.032925
v 0.126314 -0.062231 -0.017386
v 0.126314 -0.064427 -0.000712
v 0.012578 -0.064427 -0.000712
v 0.012578 -0.062231 -0.017386
v 0.000331 -0.045866 -0.000712
v 0.000331 -0.044303 -0.012582
v 0.012578 -0.055795 -0.032925
v 0.000331 -0.039721 -0.023644
v 0.012578 -0.045557 -0.046268
v 0.000331 -0.032432 -0.033143
v 0.012578 -0.032213 -0.056506
v 0.012578 -0.016675 -0.062942
v 0.012578 -0.000000 -0.065138
v 0.012578 0.016675 -0.062942
v 0.012578 0.032213 -0.056506
v 0.000331 -0.022933 -0.040432
v 0.000331 -0.011871 -0.045014
v 0.000331 -0.000000 -0.046577
v 0.000331 0.011871 -0.045014
v 0.000331 0.022933 -0.040432
v 0.012578 0.045557 -0.046268
v 0.000331 0.032432 -0.033143
v 0.012578 0.055795 -0.032925
v 0.000331 0.039721 -0.023644
v 0.012578 0.062231 -0.017386
v 0.012578 0.064427 -0.000712
v 0.012578 0.062231 0.015963
v 0.012578 0.055795 0.031501
v 0.000331 0.044303 -0.012582
v 0.000331 0.045866 -0.000712
v 0.000331 0.044303 0.011159
v 0.000331 0.039721 0.022221
v 0.000331 0.032432 0.031720
v 0.000331 0.022933 0.039009
v -0.173727 0.027935 0.027223
v -0.173727 0.010225 0.037448
v -0.173727 0.019753 0.033502
v -0.169311 0.037297 -0.022245
v -0.173727 0.038160 -0.010937
v -0.169311 0.041600 -0.011858
v -0.173727 0.039507 -0.000712
v -0.169311 0.043067 -0.000712
v -0.173727 0.038160 0.009513
v -0.169311 0.041600 0.010435
v -0.173727 0.034214 0.019041
v -0.169311 0.037297 0.020822
v -0.169311 0.030453 0.029741
v -0.169311 0.021534 0.036585
v -0.169311 0.011147 0.040887
v -0.173727 -0.000000 0.038795
v -0.173727 -0.010225 0.037448
v -0.169311 -0.000000 0.042355
v -0.169311 -0.011147 0.040887
v -0.173727 -0.019753 0.033502
v -0.169311 -0.021534 0.036585
v -0.173727 -0.027935 0.027223
v -0.169311 -0.030453 0.029741
v -0.173727 -0.034214 0.019041
v -0.169311 -0.037297 0.020822
v -0.173727 -0.038160 0.009513
v -0.169311 -0.041600 0.010435
v -0.173727 -0.039507 -0.000712
v -0.169311 -0.043067 -0.000712
v -0.173727 -0.038160 -0.010937
v -0.173727 -0.027935 -0.028647
v -0.173727 -0.034214 -0.020465
v -0.169311 -0.041600 -0.011858
v -0.169311 -0.037297 -0.022245
v -0.169311 -0.030453 -0.031164
v -0.173727 -0.019753 -0.034925
v -0.169311 -0.021534 -0.038008
v -0.173727 -0.010225 -0.038872
v -0.169311 -0.011147 -0.042311
v -0.173727 -0.000000 -0.040218
v -0.169311 -0.000000 -0.043778
v -0.173727 0.010225 -0.038872
v -0.169311 0.011147 -0.042311
v -0.173727 0.019753 -0.034925
v -0.169311 0.021534 -0.038008
v -0.173727 0.027935 -0.028647
v -0.169311 0.030453 -0.031164
v -0.173727 0.034214 -0.020465
v -0.143690 -0.037297 0.020822
v -0.143690 -0.041600 0.010435
v 0.000331 -0.039721 0.022221
v 0.000331 -0.044303 0.011159
v 0.000331 -0.045866 -0.000712
v -0.143690 -0.043067 -0.000712
v -0.169311 -0.043067 -0.000712
v -0.169311 -0.041600 0.010435
v -0.169311 -0.037297 0.020822
v -0.143690 -0.030453 0.029741
v -0.169311 -0.030453 0.029741
v -0.143690 -0.021534 0.036585
v -0.169311 -0.021534 0.036585
v -0.143690 -0.011147 0.040887
v -0.169311 -0.011147 0.040887
v -0.143690 -0.000000 0.042355
v -0.169311 -0.000000 0.042355
v 0.000331 -0.032432 0.031720
v 0.000331 -0.022933 0.039009
v 0.000331 -0.011871 0.043591
v 0.000331 -0.000000 0.045153
v 0.000331 0.011871 0.043591
v -0.143690 0.011147 0.040887
v 0.000331 0.022933 0.039009
v -0.143690 0.021534 0.036585
v 0.000331 0.032432 0.031720
v -0.143690 0.030453 0.029741
v -0.169311 0.011147 0.040887
v -0.169311 0.021534 0.036585
v -0.169311 0.030453 0.029741
v -0.143690 0.037297 0.020822
v -0.169311 0.037297 0.020822
v -0.143690 0.041600 0.010435
v -0.169311 0.041600 0.010435
v -0.143690 0.043067 -0.000712
v -0.169311 0.043067 -0.000712
v -0.169311 0.041600 -0.011858
v -0.143690 0.041600 -0.011858
v 0.000331 0.039721 0.022221
v 0.000331 0.044303 0.011159
v 0.000331 0.045866 -0.000712
v 0.000331 0.044303 -0.012582
v -0.143690 0.037297 -0.022245
v 0.000331 0.039721 -0.023644
v -0.143690 0.030453 -0.031164
v 0.000331 0.032432 -0.033143
v -0.143690 0.021534 -0.038008
v 0.000331 0.022933 -0.040432
v -0.169311 0.037297 -0.022245
v -0.169311 0.030453 -0.031164
v -0.169311 0.021534 -0.038008
v -0.169311 0.011147 -0.042311
v -0.143690 0.011147 -0.042311
v -0.169311 -0.000000 -0.043778
v -0.143690 -0.000000 -0.043778
v -0.169311 -0.011147 -0.042311
v -0.143690 -0.011147 -0.042311
v -0.169311 -0.021534 -0.038008
v -0.143690 -0.021534 -0.038008
v 0.000331 0.011871 -0.045014
v 0.000331 -0.000000 -0.046577
v 0.000331 -0.011871 -0.045014
v 0.000331 -0.022933 -0.040432
v -0.143690 -0.030453 -0.031164
v 0.000331 -0.032432 -0.033143
v -0.143690 -0.037297 -0.022245
v 0.000331 -0.039721 -0.023644
v -0.143690 -0.041600 -0.011858
v 0.000331 -0.044303 -0.012582
v -0.169311 -0.030453 -0.031164
v -0.169311 -0.037297 -0.022245
v -0.169311 -0.041600 -0.011858
v -0.169311 -0.043067 -0.000712
v -0.143690 -0.043067 -0.000712
v 0.000331 -0.045866 -0.000712
v -0.039296 -0.032954 0.032242
v -0.047649 -0.032840 0.032127
v -0.039296 -0.040361 0.022590
v -0.047649 -0.040220 0.022509
v -0.039296 -0.045017 0.011350
v -0.047649 -0.044860 0.011308
v -0.039296 -0.046605 -0.000712
v -0.047649 -0.046442 -0.000712
v -0.047649 -0.023221 0.039508
v -0.039296 -0.023302 0.039649
v -0.047649 -0.012020 0.044148
v -0.039296 -0.012062 0.044304
v -0.047649 -0.000000 0.045730
v -0.039296 -0.000000 0.045892
v -0.047649 0.012020 0.044148
v -0.039296 0.012062 0.044304
v -0.047649 0.023221 0.039508
v -0.039296 0.023302 0.039649
v -0.047649 0.032840 0.032128
v -0.039296 0.032954 0.032242
v -0.047649 0.040220 0.022509
v -0.039296 0.040361 0.022590
v -0.047649 0.044860 0.011308
v -0.039296 0.045017 0.011350
v -0.047649 0.046442 -0.000712
v -0.039296 0.046605 -0.000712
v -0.047649 0.044860 -0.012732
v -0.039296 0.045017 -0.012774
v -0.047649 0.040220 -0.023933
v -0.039296 0.040361 -0.024014
v -0.047649 0.032840 -0.033551
v -0.039296 0.032954 -0.033666
v -0.047649 0.023221 -0.040931
v -0.039296 0.023302 -0.041072
v -0.047649 0.012020 -0.045571
v -0.039296 0.012062 -0.045728
v -0.047649 -0.000000 -0.047153
v -0.039296 -0.000000 -0.047316
v -0.047649 -0.012020 -0.045571
v -0.039296 -0.012062 -0.045728
v -0.047649 -0.023221 -0.040931
v -0.039296 -0.023302 -0.041072
v -0.047649 -0.032840 -0.033551
v -0.039296 -0.032954 -0.033666
v -0.047649 -0.040220 -0.023933
v -0.039296 -0.040361 -0.024014
v -0.047649 -0.044860 -0.012732
v -0.039296 -0.045017 -0.012774
v -0.047649 -0.046442 -0.000712
v -0.039296 -0.046605 -0.000712
vn 0.9872 -0.1345 -0.0858
vn 0.9635 -0.2675 -0.0117
vn 0.9160 -0.3825 -0.1208
vn 0.6351 0.1666 -0.7543
vn 0.9792 0.0089 -0.2028
vn 0.6347 -0.0339 -0.7720
vn 0.9151 -0.0871 -0.3938
vn 0.6354 -0.2320 -0.7365
vn 0.9627 -0.1249 -0.2401
vn 0.6370 -0.4137 -0.6504
vn 0.9627 -0.1248 -0.2401
vn 0.9155 -0.2716 -0.2967
vn 0.6370 -0.4138 -0.6504
vn 0.6389 -0.5668 -0.5201
vn 0.6389 -0.5668 -0.5202
vn 0.6406 -0.6809 -0.3550
vn 0.6406 -0.6809 -0.3549
vn 0.6417 -0.7487 -0.1662
vn 0.9161 -0.3824 -0.1208
vn 0.6417 -0.7487 -0.1661
vn 0.6934 -0.7204 0.0149
vn 0.9161 -0.3914 0.0868
vn 0.9155 -0.2715 -0.2967
vn 0.9872 0.1412 -0.0735
vn 0.9868 -0.0071 0.1616
vn 0.9872 0.1412 -0.0736
vn 0.9797 0.1690 0.1079
vn 0.9798 -0.1776 0.0925
vn 0.6422 -0.7425 0.1904
vn 0.9797 -0.1776 0.0925
vn 0.6412 -0.6686 0.3766
vn 0.9156 -0.2963 0.2716
vn 0.6395 -0.5494 0.5377
vn 0.9628 -0.1452 0.2280
vn 0.6395 -0.5494 0.5378
vn 0.6376 -0.3926 0.6628
vn 0.9628 -0.1453 0.2280
vn 0.9151 -0.1212 0.3845
vn 0.6359 -0.2084 0.7431
vn 0.6359 -0.2085 0.7431
vn 0.6350 -0.0096 0.7724
vn 0.9150 0.0871 0.3938
vn 0.6352 0.1903 0.7485
vn 0.9151 0.0871 0.3938
vn 0.9627 0.1248 0.2401
vn 0.9151 -0.1213 0.3845
vn 0.9627 0.1248 0.2402
vn 0.9155 0.2715 0.2968
vn 0.6364 0.3769 0.6730
vn 0.6382 0.5373 0.5513
vn 0.9797 0.1690 0.1078
vn 0.6401 0.6605 0.3924
vn 0.9161 0.3824 0.1208
vn 0.6416 0.7385 0.2073
vn 0.9635 0.2675 0.0118
vn 0.6035 0.7973 -0.0108
vn 0.9635 0.2675 0.0117
vn 0.9161 0.3914 -0.0868
vn 0.6035 0.7973 -0.0107
vn 0.6414 0.7315 -0.2312
vn 0.6400 0.6476 -0.4135
vn 0.9157 0.2963 -0.2716
vn 0.6401 0.6476 -0.4135
vn 0.6382 0.5194 -0.5682
vn 0.9628 0.1452 -0.2280
vn 0.6364 0.3554 -0.6846
vn 0.9151 0.1212 -0.3845
vn 0.9152 0.1212 -0.3845
vn 0.9792 0.0089 -0.2027
vn -0.4887 -0.8400 0.2359
vn -0.3264 -0.9452 -0.0000
vn 0.0890 -0.9723 0.2160
vn 0.0891 -0.9960 -0.0000
vn -0.4858 -0.7514 0.4466
vn -0.4887 -0.8399 0.2359
vn 0.0890 -0.8830 0.4608
vn -0.4887 -0.8400 0.2358
vn -0.6384 -0.7697 -0.0000
vn -0.4980 -0.8400 0.2153
vn -0.4858 -0.7514 0.4465
vn -0.4980 -0.8400 0.2154
vn -0.4961 -0.7565 0.4261
vn -0.4820 -0.6114 0.6276
vn -0.4821 -0.6113 0.6276
vn -0.4928 -0.6218 0.6087
vn -0.4784 -0.4289 0.7662
vn -0.4891 -0.4445 0.7505
vn -0.4760 -0.2165 0.8524
vn -0.4858 -0.2362 0.8415
vn -0.4756 0.0110 0.8796
vn -0.4756 0.0111 0.8796
vn -0.4841 -0.0110 0.8749
vn -0.4774 0.2374 0.8460
vn -0.4845 0.2153 0.8479
vn 0.0890 -0.7335 0.6738
vn 0.0890 -0.5343 0.8406
vn -0.4820 -0.6113 0.6276
vn 0.0890 -0.2990 0.9501
vn -0.4784 -0.4289 0.7663
vn 0.0889 -0.2990 0.9501
vn 0.0889 -0.0437 0.9951
vn -0.4760 -0.2164 0.8524
vn 0.0889 0.2146 0.9726
vn 0.0889 0.4586 0.8842
vn -0.4807 0.4468 0.7545
vn 0.0890 0.4585 0.8842
vn 0.0890 0.6717 0.7355
vn -0.4808 0.4469 0.7544
vn -0.4846 0.6251 0.6119
vn 0.2625 0.2897 0.9204
vn 0.2624 0.0423 0.9640
vn 0.2624 -0.2080 0.9423
vn 0.2625 -0.4443 0.8565
vn 0.2626 -0.6508 0.7124
vn 0.2627 -0.8131 0.5195
vn 0.0891 -0.8830 0.4608
vn 0.2627 -0.9200 0.2909
vn 0.0891 -0.9723 0.2160
vn 0.2630 -0.9648 -0.0000
vn 0.2626 -0.6507 0.7124
vn 0.2626 -0.8131 0.5195
vn 0.6376 -0.3926 0.6629
vn 0.2625 -0.2080 0.9423
vn 0.6350 -0.0095 0.7724
vn 0.2625 0.0423 0.9640
vn 0.2626 0.5176 0.8143
vn 0.6382 0.5373 0.5514
vn 0.2627 0.7106 0.6527
vn 0.2628 0.8554 0.4463
vn 0.0890 0.4586 0.8842
vn 0.0890 0.8393 0.5364
vn 0.2627 0.8554 0.4463
vn 0.0890 0.8393 0.5363
vn 0.0891 0.9497 0.3004
vn 0.2628 0.9419 0.2092
vn 0.0891 0.9497 0.3003
vn 0.0892 0.9960 -0.0000
vn 0.2630 0.9648 -0.0000
vn 0.0891 0.9960 -0.0000
vn 0.2628 0.9419 -0.2092
vn 0.0890 0.9497 -0.3003
vn 0.2627 0.9419 -0.2092
vn 0.2627 0.8555 -0.4463
vn 0.0891 0.9497 -0.3003
vn 0.0890 0.8393 -0.5363
vn 0.2628 0.9419 0.2093
vn 0.2626 0.7107 -0.6527
vn 0.2627 0.7106 -0.6527
vn 0.2626 0.5176 -0.8143
vn 0.2625 0.2897 -0.9204
vn 0.2627 0.8554 -0.4463
vn 0.0890 0.6717 -0.7354
vn 0.0890 0.6717 -0.7355
vn 0.0890 0.4586 -0.8842
vn 0.0889 0.2146 -0.9726
vn 0.2625 0.0423 -0.9640
vn 0.0889 -0.0437 -0.9951
vn 0.2624 0.0423 -0.9640
vn 0.2625 -0.2080 -0.9423
vn 0.0890 -0.2990 -0.9501
vn 0.2625 -0.4444 -0.8565
vn 0.2625 -0.4443 -0.8565
vn 0.0890 -0.5343 -0.8406
vn 0.2626 -0.6508 -0.7124
vn 0.0890 -0.7336 -0.6738
vn 0.6351 0.1667 -0.7543
vn 0.2627 -0.8131 -0.5195
vn 0.2627 -0.9200 -0.2909
vn 0.0890 -0.8831 -0.4607
vn 0.0890 -0.8830 -0.4608
vn 0.0890 -0.9723 -0.2160
vn 0.0891 -0.9723 -0.2160
vn -0.4887 -0.8400 -0.2358
vn -0.4887 -0.8399 -0.2358
vn -0.4980 -0.8400 -0.2153
vn -0.4858 -0.7514 -0.4465
vn -0.4961 -0.7565 -0.4261
vn -0.4820 -0.6114 -0.6276
vn -0.4928 -0.6218 -0.6086
vn -0.4887 -0.8399 -0.2359
vn 0.0891 -0.8830 -0.4608
vn 0.0891 -0.8831 -0.4607
vn 0.0890 -0.7335 -0.6738
vn -0.4821 -0.6114 -0.6276
vn -0.4821 -0.6113 -0.6276
vn -0.4784 -0.4289 -0.7662
vn -0.4784 -0.4289 -0.7663
vn -0.4760 -0.2165 -0.8524
vn -0.4760 -0.2164 -0.8524
vn -0.4756 0.0111 -0.8796
vn -0.4757 0.0111 -0.8796
vn -0.4756 0.0110 -0.8796
vn -0.4774 0.2375 -0.8460
vn -0.4774 0.2374 -0.8460
vn -0.4808 0.4468 -0.7544
vn -0.4928 -0.6218 -0.6087
vn -0.4891 -0.4445 -0.7505
vn -0.4858 -0.2362 -0.8415
vn -0.4841 -0.0110 -0.8749
vn -0.4845 0.2153 -0.8479
vn -0.4808 0.4469 -0.7544
vn -0.4868 0.4267 -0.7622
vn -0.4808 0.4468 -0.7545
vn -0.4868 0.4266 -0.7622
vn -0.4846 0.6251 -0.6118
vn -0.4904 0.6081 -0.6243
vn -0.4846 0.6251 -0.6119
vn -0.4903 0.6082 -0.6243
vn -0.4879 0.7605 -0.4284
vn -0.4903 0.6081 -0.6243
vn -0.4940 0.7475 -0.4441
vn -0.4880 0.7605 -0.4284
vn 0.0890 0.8393 -0.5364
vn -0.4899 0.8445 -0.2165
vn -0.4899 0.8444 -0.2165
vn -0.6343 0.7731 -0.0000
vn -0.4899 0.8444 0.2165
vn -0.4880 0.7605 0.4284
vn -0.4879 0.7605 0.4284
vn -0.4940 0.7474 -0.4442
vn -0.4900 0.8444 -0.2165
vn -0.4969 0.8355 -0.2346
vn -0.4968 0.8355 -0.2346
vn -0.3390 0.9408 -0.0000
vn -0.4968 0.8355 0.2346
vn -0.4940 0.7474 0.4442
vn -0.4900 0.8444 0.2165
vn -0.4903 0.6081 0.6243
vn -0.4868 0.4266 0.7623
vn -0.4846 0.6251 0.6118
vn -0.4868 0.4266 0.7622
vn -0.4808 0.4468 0.7545
vn -0.4807 0.4469 0.7545
vn -0.9496 0.2310 0.2120
vn -0.9032 0.1290 0.4095
vn -0.7792 0.3364 0.5288
vn -0.3378 0.8346 -0.4352
vn -0.9699 0.2322 -0.0734
vn -0.3386 0.9186 -0.2039
vn -0.9699 0.2321 -0.0734
vn -0.7837 0.6205 -0.0272
vn -0.3385 0.9186 -0.2040
vn -0.4041 0.9145 0.0220
vn -0.9083 0.4084 0.0907
vn -0.4041 0.9144 0.0220
vn -0.3392 0.9096 0.2398
vn -0.9083 0.4085 0.0907
vn -0.7824 0.5522 0.2879
vn -0.3393 0.9096 0.2398
vn -0.3387 0.8165 0.4675
vn -0.9496 0.2310 0.2119
vn -0.3387 0.8166 0.4674
vn -0.3387 0.8165 0.4674
vn -0.3376 0.6680 0.6632
vn -0.7793 0.3364 0.5287
vn -0.3375 0.6680 0.6632
vn -0.3360 0.4741 0.8138
vn -0.9032 0.1290 0.4094
vn -0.9032 0.1289 0.4095
vn -0.3345 0.2481 0.9092
vn -0.7774 0.0276 0.6285
vn -0.3345 0.2480 0.9092
vn -0.7837 0.6206 -0.0273
vn -0.9083 0.4085 0.0906
vn -0.9699 0.2321 -0.0733
vn -0.9675 -0.0545 0.2469
vn -0.9675 -0.0546 0.2469
vn -0.7774 0.0275 0.6284
vn -0.3335 0.0051 0.9428
vn -0.3334 0.0051 0.9428
vn -0.3333 -0.2385 0.9122
vn -0.7787 -0.2891 0.5567
vn -0.7787 -0.2891 0.5568
vn -0.3340 -0.4660 0.8193
vn -0.9054 -0.2865 0.3134
vn -0.3340 -0.4661 0.8193
vn -0.3353 -0.6619 0.6704
vn -0.7819 -0.5254 0.3355
vn -0.3369 -0.8126 0.4756
vn -0.7819 -0.5255 0.3355
vn -0.9510 -0.2949 0.0932
vn -0.3382 -0.9077 0.2484
vn -0.9510 -0.2948 0.0932
vn -0.7837 -0.6206 0.0272
vn -0.7837 -0.6206 0.0273
vn -0.2911 -0.9566 -0.0159
vn -0.9083 -0.4085 -0.0907
vn -0.2911 -0.9566 -0.0158
vn -0.9083 -0.4085 -0.0906
vn -0.9689 -0.1822 -0.1672
vn -0.7824 -0.5523 -0.2878
vn -0.3383 -0.8973 -0.2836
vn -0.3383 -0.8972 -0.2837
vn -0.3373 -0.7933 -0.5068
vn -0.7824 -0.5523 -0.2879
vn -0.9689 -0.1823 -0.1672
vn -0.3359 -0.6353 -0.6953
vn -0.7793 -0.3364 -0.5287
vn -0.3359 -0.6354 -0.6953
vn -0.3345 -0.4341 -0.8365
vn -0.9032 -0.1290 -0.4094
vn -0.3334 -0.2033 -0.9206
vn -0.7774 -0.0276 -0.6284
vn -0.3332 0.0413 -0.9420
vn -0.9475 0.0689 -0.3122
vn -0.9475 0.0690 -0.3122
vn -0.3337 0.2830 -0.8992
vn -0.7788 0.2891 -0.5567
vn -0.3338 0.2830 -0.8992
vn -0.9689 -0.1822 -0.1671
vn -0.9032 -0.1290 -0.4095
vn -0.7773 -0.0276 -0.6285
vn -0.3337 0.2831 -0.8992
vn -0.3350 0.5056 -0.7951
vn -0.7787 0.2891 -0.5568
vn -0.9054 0.2865 -0.3133
vn -0.9054 0.2865 -0.3134
vn -0.3364 0.6937 -0.6369
vn -0.9054 0.2864 -0.3134
vn -0.7819 0.5254 -0.3355
vn -0.3365 0.6937 -0.6369
vn -0.3377 0.8346 -0.4352
vn -0.0098 -0.8653 0.5012
vn -0.0097 -0.9657 0.2595
vn -0.4961 -0.7565 0.4262
vn -0.0130 -0.9999 -0.0000
vn -0.0097 -0.9657 0.2596
vn -0.0098 -0.8653 0.5011
vn -0.0098 -0.7059 0.7082
vn -0.0098 -0.4987 0.8667
vn -0.0097 -0.2580 0.9661
vn -0.0097 -0.0001 1.0000
vn -0.3334 0.0050 0.9428
vn -0.4960 -0.7565 0.4261
vn -0.4841 -0.0110 0.8750
vn -0.0097 -0.2579 0.9661
vn -0.0097 -0.0000 1.0000
vn -0.0097 0.2579 0.9661
vn -0.0097 0.4987 0.8667
vn -0.0097 0.7059 0.7082
vn -0.0097 0.8653 0.5011
vn -0.3388 0.8166 0.4674
vn -0.0097 0.9657 0.2596
vn -0.3388 0.8165 0.4675
vn -0.3388 0.8165 0.4674
vn -0.0065 1.0000 -0.0000
vn -0.3386 0.9186 -0.2040
vn -0.0097 0.9657 -0.2595
vn -0.4940 0.7475 0.4442
vn -0.0097 0.8653 0.5012
vn -0.0097 0.9657 0.2595
vn -0.0097 0.8653 -0.5011
vn -0.4940 0.7475 -0.4442
vn -0.0097 0.7059 -0.7082
vn -0.0097 0.4987 -0.8667
vn -0.3378 0.8345 -0.4353
vn -0.3364 0.6936 -0.6369
vn -0.3350 0.5055 -0.7951
vn -0.0097 0.2580 -0.9661
vn -0.3338 0.2831 -0.8992
vn -0.0097 -0.0000 -1.0000
vn -0.3332 0.0414 -0.9420
vn -0.0097 -0.0001 -1.0000
vn -0.0098 -0.2580 -0.9661
vn -0.3335 -0.2033 -0.9206
vn -0.0098 -0.4987 -0.8667
vn -0.0097 0.2579 -0.9661
vn -0.4859 -0.2362 -0.8415
vn -0.0098 -0.7059 -0.7082
vn -0.4928 -0.6219 -0.6086
vn -0.0098 -0.8653 -0.5011
vn -0.0097 -0.9657 -0.2595
vn -0.0098 -0.7060 -0.7082
vn -0.3383 -0.8973 -0.2837
vn -0.4980 -0.8400 -0.2154
vn -0.0194 -0.6743 0.7382
vn -0.0194 -0.7363 0.6763
vn -0.0194 -0.8425 0.5384
vn -0.0194 -0.8864 0.4625
vn -0.0194 -0.9533 0.3015
vn -0.0194 -0.9760 0.2169
vn -0.0194 -0.9988 0.0439
vn -0.0194 -0.9988 -0.0438
vn -0.0194 -0.7363 0.6764
vn -0.0194 -0.5363 0.8438
vn -0.0194 -0.4603 0.8875
vn -0.0194 -0.3001 0.9537
vn -0.0194 -0.2154 0.9763
vn -0.0194 -0.0439 0.9988
vn -0.0194 0.0438 0.9988
vn -0.0194 -0.0438 0.9988
vn -0.0194 0.0438 0.9989
vn -0.0194 0.2154 0.9763
vn -0.0194 0.3001 0.9537
vn -0.0194 0.4603 0.8876
vn -0.0194 0.5363 0.8438
vn -0.0194 0.6742 0.7383
vn -0.0194 0.7363 0.6764
vn -0.0194 0.8425 0.5384
vn -0.0194 0.8864 0.4625
vn -0.0194 0.8864 0.4626
vn -0.0194 0.9533 0.3015
vn -0.0194 0.9760 0.2169
vn -0.0194 0.9988 0.0439
vn -0.0194 0.9988 -0.0438
vn -0.0194 0.9988 0.0438
vn -0.0194 0.9989 -0.0438
vn -0.0194 0.9760 -0.2168
vn -0.0194 0.9533 -0.3015
vn -0.0194 0.8864 -0.4625
vn -0.0194 0.8425 -0.5384
vn -0.0194 0.7363 -0.6763
vn -0.0194 0.6743 -0.7382
vn -0.0194 0.7363 -0.6764
vn -0.0194 0.5363 -0.8438
vn -0.0194 0.4603 -0.8876
vn -0.0194 0.3001 -0.9537
vn -0.0194 0.2154 -0.9763
vn -0.0194 0.0438 -0.9989
vn -0.0194 -0.0438 -0.9988
vn -0.0194 0.0438 -0.9988
vn -0.0194 -0.0439 -0.9988
vn -0.0194 -0.2154 -0.9763
vn -0.0194 -0.3001 -0.9537
vn -0.0194 -0.4603 -0.8875
vn -0.0194 -0.5363 -0.8438
vn -0.0194 -0.6743 -0.7382
vn -0.0194 -0.7363 -0.6764
vn -0.0194 -0.7363 -0.6763
vn -0.0194 -0.8425 -0.5384
vn -0.0194 -0.8864 -0.4625
vn -0.0194 -0.9533 -0.3015
vn -0.0194 -0.9760 -0.2168
vn -0.0194 -0.9989 -0.0438
vn -0.0194 -0.9988 0.0438
vt 0.174948 0.374221
vt 0.171963 0.385363
vt 0.172723 0.379594
vt 0.202103 0.356049
vt 0.194248 0.363079
vt 0.194248 0.355017
vt 0.188480 0.363839
vt 0.186393 0.356049
vt 0.183105 0.366064
vt 0.179074 0.359082
vt 0.178488 0.369604
vt 0.172787 0.363903
vt 0.167965 0.370190
vt 0.164936 0.377509
vt 0.163899 0.385363
vt 0.172723 0.391131
vt 0.213549 0.374221
vt 0.194248 0.407650
vt 0.213549 0.396505
vt 0.174948 0.396505
vt 0.164936 0.393220
vt 0.167965 0.400539
vt 0.178488 0.401122
vt 0.172787 0.406822
vt 0.183105 0.404662
vt 0.179074 0.411647
vt 0.188480 0.406890
vt 0.186393 0.414676
vt 0.194248 0.415712
vt 0.200017 0.406890
vt 0.202103 0.414676
vt 0.205391 0.404662
vt 0.210005 0.401122
vt 0.209423 0.411647
vt 0.215706 0.406822
vt 0.220529 0.400539
vt 0.215773 0.391131
vt 0.223561 0.393220
vt 0.216534 0.385363
vt 0.224597 0.385363
vt 0.215773 0.379594
vt 0.223561 0.377509
vt 0.220529 0.370190
vt 0.210005 0.369604
vt 0.215706 0.363903
vt 0.205391 0.366064
vt 0.209423 0.359082
vt 0.200017 0.363839
vt 0.109460 0.555665
vt 0.109460 0.561611
vt 0.040419 0.555665
vt 0.040419 0.561611
vt 0.109460 0.549716
vt 0.040419 0.549716
vt 0.116895 0.561611
vt 0.116895 0.555665
vt 0.116895 0.549716
vt 0.109460 0.543767
vt 0.116895 0.543767
vt 0.109460 0.537821
vt 0.116895 0.537821
vt 0.109460 0.531872
vt 0.116895 0.531872
vt 0.109460 0.525923
vt 0.116895 0.525923
vt 0.109460 0.519977
vt 0.116895 0.519977
vt 0.040419 0.543767
vt 0.040419 0.537821
vt 0.040419 0.531872
vt 0.040419 0.525923
vt 0.040419 0.519977
vt 0.040419 0.514028
vt 0.109460 0.514028
vt 0.040419 0.508078
vt 0.109460 0.508078
vt 0.036677 0.519977
vt 0.036677 0.525923
vt 0.036677 0.531872
vt 0.036677 0.537821
vt 0.036677 0.543767
vt 0.036677 0.549716
vt 0.036677 0.555665
vt 0.036677 0.561611
vt 0.004046 0.543767
vt 0.004046 0.549716
vt 0.004046 0.555665
vt 0.004046 0.561611
vt 0.004046 0.537821
vt 0.004046 0.531872
vt 0.004046 0.525923
vt 0.004046 0.519977
vt 0.004046 0.514028
vt 0.036677 0.514028
vt 0.004046 0.508078
vt 0.036677 0.508078
vt 0.004046 0.502129
vt 0.036674 0.502129
vt 0.040419 0.502129
vt 0.040419 0.496183
vt 0.036674 0.496183
vt 0.040419 0.490234
vt 0.036674 0.490234
vt 0.036674 0.484285
vt 0.040419 0.484285
vt 0.036674 0.478339
vt 0.040419 0.478339
vt 0.004046 0.496183
vt 0.004046 0.490234
vt 0.004046 0.484285
vt 0.004046 0.478339
vt 0.036677 0.472390
vt 0.004046 0.472390
vt 0.036677 0.466441
vt 0.004046 0.466441
vt 0.036677 0.460491
vt 0.004046 0.460491
vt 0.040419 0.472390
vt 0.040419 0.466441
vt 0.040419 0.460491
vt 0.036677 0.454546
vt 0.040419 0.454546
vt 0.036677 0.448596
vt 0.040419 0.448596
vt 0.036677 0.442647
vt 0.040419 0.442647
vt 0.036677 0.436701
vt 0.040419 0.436701
vt 0.004046 0.454546
vt 0.004046 0.448596
vt 0.004046 0.442647
vt 0.004046 0.436701
vt 0.036677 0.430752
vt 0.004046 0.430752
vt 0.036677 0.424803
vt 0.004046 0.424803
vt 0.036677 0.418857
vt 0.004046 0.418857
vt 0.040419 0.430752
vt 0.040419 0.424803
vt 0.040419 0.418857
vt 0.109460 0.418857
vt 0.109460 0.424803
vt 0.116895 0.418857
vt 0.116895 0.424803
vt 0.109460 0.430752
vt 0.116895 0.430752
vt 0.109460 0.436701
vt 0.116895 0.436701
vt 0.109460 0.442647
vt 0.109460 0.448596
vt 0.109460 0.454546
vt 0.109460 0.460491
vt 0.109460 0.466441
vt 0.116895 0.442647
vt 0.116895 0.448596
vt 0.116895 0.454546
vt 0.116895 0.460491
vt 0.116895 0.466441
vt 0.109460 0.472390
vt 0.116895 0.472390
vt 0.109460 0.478339
vt 0.116895 0.478339
vt 0.109460 0.484285
vt 0.109460 0.490234
vt 0.109460 0.496183
vt 0.109460 0.502129
vt 0.116895 0.484285
vt 0.116895 0.490234
vt 0.116895 0.496183
vt 0.116895 0.502129
vt 0.116895 0.508078
vt 0.116895 0.514028
vt 0.028169 0.404471
vt 0.044512 0.407913
vt 0.036115 0.407269
vt 0.006136 0.367975
vt 0.010548 0.377441
vt 0.005385 0.377720
vt 0.012096 0.385721
vt 0.007183 0.387325
vt 0.015737 0.393316
vt 0.011406 0.396140
vt 0.021220 0.399711
vt 0.017767 0.403558
vt 0.025830 0.409081
vt 0.035048 0.412325
vt 0.044794 0.413075
vt 0.052794 0.406366
vt 0.060390 0.402723
vt 0.054399 0.411276
vt 0.063213 0.407054
vt 0.066787 0.397244
vt 0.070634 0.400696
vt 0.071542 0.390293
vt 0.076153 0.392631
vt 0.074342 0.382347
vt 0.079401 0.383414
vt 0.074989 0.373948
vt 0.080148 0.373669
vt 0.073437 0.365668
vt 0.078351 0.364064
vt 0.069799 0.358073
vt 0.057364 0.346918
vt 0.064317 0.351678
vt 0.074127 0.355249
vt 0.067767 0.347828
vt 0.059703 0.342308
vt 0.049422 0.344120
vt 0.050485 0.339060
vt 0.041022 0.343473
vt 0.040742 0.338311
vt 0.032743 0.345023
vt 0.031134 0.340110
vt 0.025144 0.348662
vt 0.022324 0.344332
vt 0.018749 0.354145
vt 0.014903 0.350693
vt 0.013991 0.361096
vt 0.009380 0.358758
vt 0.011194 0.369042
vt 0.204321 0.549716
vt 0.204321 0.555665
vt 0.116895 0.549716
vt 0.116895 0.555665
vt 0.116895 0.561611
vt 0.204321 0.561611
vt 0.219872 0.561611
vt 0.219872 0.555665
vt 0.219872 0.549716
vt 0.204321 0.543767
vt 0.219872 0.543767
vt 0.204321 0.537821
vt 0.219872 0.537821
vt 0.204321 0.531872
vt 0.219872 0.531872
vt 0.204321 0.525923
vt 0.219872 0.525923
vt 0.116895 0.543767
vt 0.116895 0.537821
vt 0.116895 0.531872
vt 0.116895 0.525923
vt 0.116895 0.519977
vt 0.204321 0.519977
vt 0.116895 0.514028
vt 0.204321 0.514028
vt 0.116895 0.508078
vt 0.204321 0.508078
vt 0.219872 0.519977
vt 0.219872 0.514028
vt 0.219872 0.508078
vt 0.204321 0.502129
vt 0.219872 0.502129
vt 0.204321 0.496183
vt 0.219872 0.496183
vt 0.204321 0.490234
vt 0.219872 0.490234
vt 0.219872 0.484285
vt 0.204321 0.484285
vt 0.116895 0.502129
vt 0.116895 0.496183
vt 0.116895 0.490234
vt 0.116895 0.484285
vt 0.204321 0.478339
vt 0.116895 0.478339
vt 0.204321 0.472390
vt 0.116895 0.472390
vt 0.204321 0.466441
vt 0.116895 0.466441
vt 0.219872 0.478339
vt 0.219872 0.472390
vt 0.219872 0.466441
vt 0.219872 0.460491
vt 0.204321 0.460491
vt 0.219872 0.454546
vt 0.204321 0.454546
vt 0.219872 0.448596
vt 0.204321 0.448596
vt 0.219872 0.442647
vt 0.204321 0.442647
vt 0.116895 0.460491
vt 0.116895 0.454546
vt 0.116895 0.448596
vt 0.116895 0.442647
vt 0.204321 0.436701
vt 0.116895 0.436701
vt 0.204321 0.430752
vt 0.116895 0.430752
vt 0.204321 0.424803
vt 0.116895 0.424803
vt 0.219872 0.436701
vt 0.219872 0.430752
vt 0.219872 0.424803
vt 0.219872 0.418854
vt 0.204321 0.418857
vt 0.116895 0.418857
vt 0.140937 0.543767
vt 0.146009 0.543767
vt 0.140937 0.549716
vt 0.146009 0.549716
vt 0.140937 0.555665
vt 0.146009 0.555665
vt 0.140937 0.561611
vt 0.146009 0.561611
vt 0.146009 0.537821
vt 0.140937 0.537821
vt 0.146009 0.531872
vt 0.140937 0.531872
vt 0.146009 0.525923
vt 0.140937 0.525923
vt 0.146009 0.519977
vt 0.140937 0.519977
vt 0.146009 0.514028
vt 0.140937 0.514028
vt 0.146009 0.508078
vt 0.140937 0.508078
vt 0.146009 0.502129
vt 0.140937 0.502129
vt 0.146009 0.496183
vt 0.140937 0.496183
vt 0.146009 0.490234
vt 0.140937 0.490234
vt 0.146009 0.484285
vt 0.140937 0.484285
vt 0.146009 0.478339
vt 0.140937 0.478339
vt 0.146009 0.472390
vt 0.140937 0.472390
vt 0.146009 0.466441
vt 0.140937 0.466441
vt 0.146009 0.460491
vt 0.140937 0.460491
vt 0.146009 0.454546
vt 0.140937 0.454546
vt 0.146009 0.448596
vt 0.140937 0.448596
vt 0.146009 0.442647
vt 0.140937 0.442647
vt 0.146009 0.436701
vt 0.140937 0.436701
vt 0.146009 0.430752
vt 0.140937 0.430752
vt 0.146009 0.424803
vt 0.140937 0.424803
vt 0.146009 0.418857
vt 0.140937 0.418857
s 0
usemtl grenade_launcher_metal
f 1/1/1 2/2/2 3/3/3
f 4/4/4 5/5/5 6/6/6
f 5/5/5 7/7/7 6/6/6
f 6/6/6 7/7/7 8/8/8
f 7/7/7 9/9/9 8/8/8
f 8/8/8 9/9/9 10/10/10
f 9/9/11 11/11/12 10/10/13
f 10/10/13 11/11/12 12/12/14
f 11/11/12 1/1/1 12/12/14
f 12/12/15 1/1/1 13/13/16
f 1/1/1 3/3/3 13/13/16
f 13/13/17 3/3/3 14/14/18
f 3/3/19 2/2/2 14/14/18
f 14/14/20 2/2/2 15/15/21
f 2/2/2 16/16/22 15/15/21
f 7/7/7 5/5/5 9/9/11
f 5/5/5 1/1/1 9/9/9
f 9/9/9 1/1/1 11/11/23
f 5/5/5 17/17/24 1/1/1
f 1/1/1 17/17/24 18/18/25
f 17/17/26 19/19/27 18/18/25
f 18/18/25 20/20/28 1/1/1
f 1/1/1 20/20/28 2/2/2
f 20/20/28 16/16/22 2/2/2
f 15/15/21 16/16/22 21/21/29
f 16/16/22 20/20/30 21/21/29
f 21/21/29 20/20/28 22/22/31
f 20/20/30 23/23/32 22/22/31
f 22/22/31 23/23/32 24/24/33
f 23/23/32 25/25/34 24/24/35
f 24/24/35 25/25/34 26/26/36
f 25/25/37 27/27/38 26/26/36
f 26/26/36 27/27/38 28/28/39
f 27/27/38 18/18/25 28/28/40
f 28/28/40 18/18/25 29/29/41
f 18/18/25 30/30/42 29/29/41
f 29/29/41 30/30/42 31/31/43
f 30/30/44 32/32/45 31/31/43
f 23/23/32 20/20/28 25/25/37
f 20/20/28 18/18/25 25/25/37
f 25/25/34 18/18/25 27/27/46
f 30/30/44 18/18/25 32/32/47
f 18/18/25 19/19/27 32/32/45
f 32/32/45 19/19/27 33/33/48
f 31/31/43 32/32/45 34/34/49
f 32/32/45 33/33/48 34/34/49
f 34/34/49 33/33/48 35/35/50
f 33/33/48 19/19/27 35/35/50
f 35/35/50 19/19/51 36/36/52
f 19/19/51 37/37/53 36/36/52
f 36/36/52 37/37/53 38/38/54
f 37/37/53 39/39/55 38/38/54
f 38/38/54 39/39/55 40/40/56
f 39/39/57 41/41/58 40/40/59
f 40/40/59 41/41/58 42/42/60
f 41/41/58 17/17/24 42/42/60
f 42/42/60 17/17/24 43/43/61
f 17/17/26 44/44/62 43/43/63
f 37/37/53 19/19/27 39/39/55
f 19/19/27 17/17/26 39/39/55
f 39/39/55 17/17/26 41/41/58
f 43/43/61 44/44/62 45/45/64
f 44/44/62 46/46/65 45/45/64
f 45/45/64 46/46/65 47/47/66
f 46/46/65 48/48/67 47/47/66
f 47/47/66 48/48/67 4/4/4
f 4/4/4 48/48/67 5/5/5
f 48/48/68 46/46/65 5/5/69
f 5/5/5 46/46/65 17/17/26
f 46/46/65 44/44/62 17/17/24
f 49/49/70 50/50/71 51/51/72
f 50/50/71 52/52/73 51/51/72
f 53/53/74 49/49/75 54/54/76
f 49/49/75 51/51/72 54/54/76
f 50/50/71 49/49/77 55/55/78
f 55/55/78 49/49/77 56/56/79
f 49/49/77 53/53/80 56/56/81
f 56/56/81 53/53/80 57/57/82
f 53/53/74 58/58/83 57/57/82
f 57/57/82 58/58/84 59/59/85
f 58/58/84 60/60/86 59/59/85
f 59/59/85 60/60/86 61/61/87
f 60/60/86 62/62/88 61/61/87
f 61/61/87 62/62/88 63/63/89
f 62/62/88 64/64/90 63/63/89
f 63/63/89 64/64/91 65/65/92
f 64/64/90 66/66/93 65/65/92
f 66/66/93 67/67/94 65/65/92
f 54/54/76 68/68/95 53/53/80
f 53/53/74 68/68/95 58/58/83
f 68/68/95 69/69/96 58/58/97
f 58/58/97 69/69/96 60/60/86
f 69/69/96 70/70/98 60/60/99
f 60/60/86 70/70/98 62/62/88
f 70/70/100 71/71/101 62/62/102
f 62/62/88 71/71/101 64/64/91
f 71/71/101 72/72/103 64/64/91
f 64/64/91 72/72/103 66/66/93
f 72/72/103 73/73/104 66/66/93
f 66/66/93 73/73/104 74/74/105
f 73/73/106 75/75/107 74/74/108
f 75/75/107 76/76/109 74/74/108
f 77/77/110 72/72/103 78/78/111
f 72/72/103 71/71/101 78/78/111
f 78/78/111 71/71/101 79/79/112
f 71/71/101 70/70/100 79/79/112
f 79/79/112 70/70/98 80/80/113
f 70/70/98 69/69/96 80/80/113
f 80/80/113 69/69/96 81/81/114
f 69/69/96 68/68/95 81/81/114
f 81/81/114 68/68/95 82/82/115
f 68/68/95 54/54/116 82/82/115
f 82/82/115 54/54/116 83/83/117
f 54/54/76 51/51/118 83/83/117
f 83/83/117 51/51/118 84/84/119
f 51/51/118 52/52/73 84/84/119
f 81/81/120 82/82/115 85/85/33
f 85/85/33 82/82/115 86/86/31
f 82/82/121 83/83/117 86/86/31
f 86/86/31 83/83/117 87/87/29
f 83/83/117 84/84/119 87/87/29
f 87/87/29 84/84/119 88/88/21
f 85/85/33 89/89/36 81/81/120
f 81/81/120 89/89/36 80/80/113
f 89/89/122 90/90/40 80/80/113
f 80/80/113 90/90/40 79/79/112
f 90/90/40 91/91/41 79/79/123
f 79/79/123 91/91/124 78/78/111
f 91/91/41 92/92/43 78/78/125
f 78/78/125 92/92/43 77/77/110
f 92/92/43 93/93/49 77/77/110
f 77/77/110 93/93/49 94/94/126
f 93/93/49 95/95/127 94/94/126
f 94/94/126 95/95/50 96/96/128
f 95/95/50 97/97/52 96/96/128
f 97/97/52 98/98/129 96/96/128
f 72/72/103 77/77/110 73/73/130
f 77/77/110 94/94/126 73/73/130
f 73/73/130 94/94/126 75/75/107
f 94/94/126 96/96/128 75/75/107
f 75/75/107 96/96/128 99/99/131
f 96/96/128 98/98/132 99/99/131
f 99/99/133 98/98/132 100/100/134
f 98/98/129 101/101/135 100/100/134
f 100/100/136 101/101/135 102/102/137
f 101/101/135 103/103/138 102/102/139
f 103/103/138 104/104/140 102/102/139
f 102/102/137 104/104/140 105/105/141
f 104/104/142 106/106/143 105/105/144
f 105/105/144 106/106/143 107/107/145
f 97/97/52 108/108/54 98/98/132
f 98/98/132 108/108/54 101/101/146
f 108/108/54 109/109/59 101/101/135
f 101/101/135 109/109/56 103/103/138
f 103/103/138 109/109/56 104/104/140
f 109/109/59 110/110/60 104/104/140
f 104/104/140 110/110/60 106/106/143
f 110/110/60 111/111/61 106/106/143
f 106/106/143 111/111/61 112/112/147
f 111/111/61 113/113/64 112/112/147
f 112/112/148 113/113/64 114/114/149
f 113/113/64 115/115/66 114/114/149
f 114/114/149 115/115/66 116/116/150
f 115/115/66 117/117/4 116/116/150
f 106/106/151 112/112/147 107/107/145
f 107/107/145 112/112/147 118/118/152
f 112/112/147 114/114/149 118/118/153
f 118/118/153 114/114/149 119/119/154
f 114/114/149 116/116/150 119/119/154
f 119/119/154 116/116/150 120/120/155
f 116/116/150 121/121/156 120/120/155
f 120/120/155 121/121/156 122/122/157
f 121/121/158 123/123/159 122/122/157
f 122/122/157 123/123/159 124/124/160
f 123/123/159 125/125/161 124/124/160
f 124/124/160 125/125/162 126/126/163
f 125/125/161 127/127/164 126/126/163
f 126/126/163 127/127/164 128/128/165
f 116/116/150 117/117/166 121/121/156
f 117/117/4 129/129/6 121/121/156
f 121/121/158 129/129/6 123/123/159
f 129/129/6 130/130/8 123/123/159
f 123/123/159 130/130/8 125/125/161
f 130/130/8 131/131/13 125/125/161
f 125/125/161 131/131/13 127/127/164
f 131/131/13 132/132/14 127/127/164
f 127/127/164 132/132/14 133/133/167
f 132/132/15 134/134/17 133/133/167
f 133/133/167 134/134/16 135/135/168
f 134/134/17 136/136/18 135/135/168
f 135/135/168 136/136/20 137/137/119
f 136/136/18 138/138/21 137/137/119
f 127/127/164 133/133/167 128/128/165
f 128/128/165 133/133/167 139/139/169
f 133/133/167 135/135/168 139/139/170
f 139/139/170 135/135/168 140/140/171
f 135/135/168 137/137/119 140/140/171
f 137/137/119 141/141/73 140/140/171
f 141/141/73 142/142/71 140/140/172
f 140/140/172 142/142/71 143/143/173
f 142/142/71 144/144/78 143/143/174
f 144/144/78 145/145/175 143/143/174
f 143/143/173 145/145/175 146/146/176
f 145/145/175 147/147/177 146/146/176
f 146/146/176 147/147/177 148/148/178
f 147/147/177 149/149/179 148/148/178
f 140/140/172 143/143/180 139/139/181
f 143/143/180 146/146/176 139/139/181
f 139/139/182 146/146/176 128/128/183
f 146/146/176 148/148/184 128/128/183
f 128/128/165 148/148/185 126/126/163
f 148/148/184 150/150/186 126/126/163
f 126/126/163 150/150/187 124/124/160
f 150/150/186 151/151/188 124/124/160
f 124/124/160 151/151/189 122/122/157
f 151/151/188 152/152/190 122/122/157
f 122/122/157 152/152/191 120/120/155
f 152/152/192 153/153/193 120/120/155
f 120/120/155 153/153/194 119/119/154
f 153/153/194 154/154/195 119/119/154
f 148/148/184 149/149/179 150/150/186
f 149/149/196 155/155/197 150/150/186
f 150/150/186 155/155/197 151/151/188
f 155/155/197 156/156/198 151/151/188
f 151/151/188 156/156/198 152/152/192
f 156/156/198 157/157/199 152/152/190
f 152/152/192 157/157/199 153/153/194
f 157/157/199 158/158/200 153/153/194
f 153/153/194 158/158/200 154/154/201
f 158/158/200 159/159/202 154/154/203
f 154/154/201 159/159/204 160/160/205
f 159/159/202 161/161/206 160/160/205
f 160/160/207 161/161/208 162/162/209
f 161/161/210 163/163/211 162/162/209
f 119/119/154 154/154/201 118/118/152
f 154/154/201 160/160/207 118/118/152
f 118/118/153 160/160/207 107/107/145
f 160/160/205 162/162/212 107/107/145
f 107/107/213 162/162/209 105/105/144
f 162/162/212 164/164/214 105/105/144
f 105/105/144 164/164/215 102/102/139
f 164/164/214 165/165/216 102/102/139
f 165/165/216 166/166/217 102/102/139
f 102/102/139 166/166/217 100/100/134
f 166/166/217 167/167/218 100/100/134
f 100/100/134 167/167/219 99/99/131
f 167/167/219 76/76/109 99/99/131
f 99/99/131 76/76/109 75/75/107
f 162/162/212 163/163/220 164/164/221
f 163/163/220 168/168/222 164/164/221
f 164/164/215 168/168/223 165/165/216
f 168/168/223 169/169/224 165/165/216
f 169/169/224 170/170/225 165/165/216
f 165/165/216 170/170/225 166/166/217
f 170/170/225 171/171/226 166/166/227
f 166/166/227 171/171/226 167/167/219
f 171/171/226 172/172/228 167/167/219
f 167/167/219 172/172/228 76/76/109
f 172/172/228 173/173/229 76/76/230
f 76/76/109 173/173/231 74/74/108
f 173/173/231 67/67/94 74/74/232
f 74/74/233 67/67/94 66/66/93
usemtl grenade_launcher_metal_shiny
f 174/174/234 175/175/235 176/176/236
f 177/177/237 178/178/238 179/179/239
f 178/178/240 180/180/241 179/179/242
f 179/179/239 180/180/241 181/181/243
f 180/180/241 182/182/244 181/181/245
f 181/181/245 182/182/244 183/183/246
f 182/182/247 184/184/248 183/183/249
f 183/183/249 184/184/248 185/185/250
f 184/184/248 174/174/251 185/185/252
f 185/185/253 174/174/234 186/186/254
f 174/174/234 176/176/255 186/186/256
f 186/186/254 176/176/255 187/187/257
f 176/176/255 175/175/258 187/187/257
f 187/187/257 175/175/259 188/188/260
f 175/175/259 189/189/261 188/188/262
f 180/180/263 178/178/240 182/182/264
f 178/178/240 174/174/234 182/182/247
f 182/182/247 174/174/234 184/184/248
f 178/178/265 190/190/266 174/174/234
f 174/174/234 190/190/267 175/175/235
f 190/190/266 189/189/268 175/175/258
f 188/188/260 189/189/268 191/191/269
f 189/189/268 190/190/266 191/191/270
f 191/191/270 190/190/266 192/192/271
f 190/190/267 193/193/272 192/192/271
f 192/192/271 193/193/273 194/194/274
f 193/193/272 195/195/275 194/194/276
f 194/194/276 195/195/275 196/196/277
f 195/195/275 197/197/278 196/196/277
f 196/196/277 197/197/278 198/198/279
f 197/197/280 199/199/281 198/198/279
f 198/198/279 199/199/281 200/200/282
f 199/199/283 201/201/284 200/200/282
f 200/200/282 201/201/285 202/202/286
f 201/201/284 203/203/287 202/202/288
f 193/193/273 190/190/267 195/195/275
f 190/190/266 199/199/283 195/195/275
f 195/195/275 199/199/283 197/197/280
f 201/201/285 199/199/281 203/203/289
f 199/199/283 204/204/290 203/203/289
f 203/203/289 204/204/290 205/205/291
f 202/202/286 203/203/289 206/206/292
f 203/203/289 205/205/291 206/206/293
f 206/206/293 205/205/291 207/207/294
f 205/205/295 204/204/296 207/207/294
f 207/207/294 204/204/290 208/208/297
f 204/204/296 209/209/298 208/208/299
f 208/208/297 209/209/298 210/210/300
f 209/209/298 211/211/301 210/210/300
f 210/210/300 211/211/301 212/212/302
f 211/211/301 213/213/303 212/212/302
f 212/212/302 213/213/303 214/214/304
f 213/213/303 215/215/305 214/214/304
f 214/214/304 215/215/306 216/216/307
f 215/215/306 217/217/308 216/216/309
f 209/209/298 204/204/310 211/211/301
f 204/204/290 215/215/306 211/211/301
f 211/211/311 215/215/306 213/213/312
f 216/216/313 217/217/308 218/218/314
f 217/217/315 219/219/316 218/218/314
f 218/218/314 219/219/317 220/220/318
f 219/219/319 221/221/320 220/220/321
f 220/220/321 221/221/320 177/177/322
f 177/177/322 221/221/320 178/178/238
f 221/221/320 219/219/317 178/178/240
f 178/178/265 219/219/317 215/215/306
f 219/219/316 217/217/308 215/215/305
f 199/199/281 190/190/267 204/204/290
f 190/190/266 178/178/240 204/204/290
f 204/204/290 178/178/240 215/215/306
f 222/222/323 223/223/324 224/224/325
f 223/223/324 225/225/81 224/224/82
f 226/226/78 225/225/81 227/227/326
f 225/225/81 223/223/324 227/227/326
f 227/227/326 223/223/324 228/228/288
f 228/228/286 223/223/324 229/229/282
f 223/223/327 222/222/328 229/229/282
f 229/229/282 222/222/328 230/230/279
f 222/222/323 231/231/329 230/230/279
f 230/230/279 231/231/329 232/232/277
f 231/231/329 233/233/330 232/232/277
f 232/232/277 233/233/330 234/234/276
f 233/233/330 235/235/331 234/234/276
f 234/234/276 235/235/331 236/236/271
f 235/235/331 237/237/332 236/236/271
f 236/236/271 237/237/332 238/238/333
f 224/224/334 239/239/85 222/222/323
f 222/222/323 239/239/85 231/231/329
f 239/239/85 240/240/87 231/231/329
f 231/231/329 240/240/87 233/233/330
f 240/240/87 241/241/89 233/233/330
f 233/233/330 241/241/89 235/235/331
f 241/241/89 242/242/335 235/235/336
f 235/235/336 242/242/92 237/237/337
f 242/242/92 243/243/94 237/237/337
f 237/237/337 243/243/94 244/244/338
f 243/243/94 245/245/231 244/244/338
f 244/244/338 245/245/231 246/246/339
f 245/245/231 247/247/228 246/246/339
f 247/247/228 248/248/340 246/246/339
f 237/237/337 244/244/338 238/238/333
f 238/238/270 244/244/338 249/249/260
f 244/244/338 246/246/339 249/249/260
f 249/249/260 246/246/339 250/250/257
f 246/246/339 248/248/340 250/250/257
f 250/250/257 248/248/340 251/251/254
f 248/248/340 252/252/341 251/251/254
f 251/251/256 252/252/341 253/253/342
f 252/252/341 254/254/343 253/253/344
f 253/253/345 254/254/343 255/255/249
f 254/254/343 256/256/346 255/255/249
f 255/255/249 256/256/346 257/257/243
f 257/257/243 256/256/346 258/258/347
f 256/256/346 259/259/348 258/258/347
f 247/247/228 260/260/226 248/248/340
f 248/248/340 260/260/349 252/252/350
f 260/260/226 261/261/225 252/252/350
f 252/252/350 261/261/225 254/254/351
f 261/261/225 262/262/224 254/254/343
f 254/254/343 262/262/224 256/256/346
f 256/256/346 262/262/224 259/259/348
f 262/262/224 263/263/223 259/259/348
f 259/259/348 263/263/223 264/264/352
f 263/263/223 265/265/353 264/264/352
f 264/264/352 265/265/220 266/266/354
f 265/265/220 267/267/210 266/266/354
f 266/266/354 267/267/206 268/268/355
f 267/267/206 269/269/204 268/268/355
f 258/258/239 259/259/348 270/270/356
f 259/259/348 264/264/352 270/270/356
f 270/270/237 264/264/352 271/271/321
f 264/264/352 266/266/354 271/271/357
f 271/271/318 266/266/354 272/272/358
f 266/266/354 268/268/355 272/272/314
f 272/272/314 268/268/355 273/273/307
f 268/268/355 274/274/359 273/273/313
f 273/273/360 274/274/359 275/275/304
f 274/274/359 276/276/361 275/275/304
f 275/275/362 276/276/363 277/277/302
f 276/276/361 278/278/364 277/277/365
f 277/277/302 278/278/364 279/279/300
f 278/278/364 280/280/366 279/279/300
f 268/268/355 269/269/204 274/274/367
f 269/269/204 281/281/200 274/274/367
f 274/274/367 281/281/200 276/276/361
f 281/281/200 282/282/199 276/276/361
f 276/276/361 282/282/199 278/278/364
f 282/282/199 283/283/368 278/278/364
f 278/278/364 283/283/198 280/280/366
f 283/283/198 284/284/197 280/280/366
f 280/280/366 284/284/197 285/285/369
f 284/284/197 286/286/179 285/285/369
f 285/285/369 286/286/370 287/287/371
f 286/286/179 288/288/177 287/287/371
f 287/287/371 288/288/177 289/289/372
f 288/288/177 290/290/175 289/289/372
f 279/279/300 280/280/366 291/291/299
f 280/280/366 285/285/369 291/291/299
f 291/291/299 285/285/373 292/292/294
f 285/285/373 287/287/371 292/292/294
f 292/292/294 287/287/371 293/293/292
f 287/287/371 289/289/372 293/293/292
f 293/293/374 289/289/372 294/294/286
f 294/294/288 289/289/372 295/295/326
f 289/289/372 290/290/175 295/295/326
f 295/295/326 290/290/375 296/296/78
usemtl arm_switch
f 297/297/376 298/298/377 299/299/378
f 298/298/377 300/300/379 299/299/378
f 299/299/378 300/300/379 301/301/380
f 300/300/379 302/302/381 301/301/380
f 301/301/380 302/302/381 303/303/382
f 302/302/381 304/304/383 303/303/382
f 298/298/384 297/297/376 305/305/385
f 297/297/376 306/306/386 305/305/385
f 305/305/385 306/306/386 307/307/387
f 306/306/386 308/308/388 307/307/387
f 307/307/387 308/308/388 309/309/389
f 308/308/388 310/310/390 309/309/389
f 309/309/391 310/310/392 311/311/393
f 310/310/392 312/312/394 311/311/393
f 311/311/393 312/312/394 313/313/395
f 312/312/394 314/314/396 313/313/395
f 313/313/395 314/314/396 315/315/397
f 314/314/396 316/316/398 315/315/397
f 315/315/397 316/316/398 317/317/399
f 316/316/398 318/318/400 317/317/399
f 317/317/399 318/318/401 319/319/402
f 318/318/401 320/320/403 319/319/402
f 319/319/402 320/320/403 321/321/404
f 320/320/403 322/322/405 321/321/404
f 321/321/406 322/322/407 323/323/408
f 322/322/407 324/324/409 323/323/408
f 323/323/408 324/324/409 325/325/410
f 324/324/409 326/326/411 325/325/410
f 325/325/410 326/326/411 327/327/412
f 326/326/411 328/328/413 327/327/412
f 327/327/414 328/328/413 329/329/415
f 328/328/413 330/330/416 329/329/415
f 329/329/415 330/330/416 331/331/417
f 330/330/416 332/332/418 331/331/417
f 331/331/417 332/332/418 333/333/419
f 332/332/418 334/334/420 333/333/419
f 333/333/421 334/334/422 335/335/423
f 334/334/422 336/336/424 335/335/423
f 335/335/423 336/336/424 337/337/425
f 336/336/424 338/338/426 337/337/425
f 337/337/425 338/338/426 339/339/427
f 338/338/426 340/340/428 339/339/427
f 339/339/427 340/340/429 341/341/430
f 340/340/429 342/342/431 341/341/430
f 341/341/430 342/342/431 343/343/432
f 342/342/431 344/344/433 343/343/432
f 343/343/432 344/344/433 345/345/434
f 344/344/433 346/346/435 345/345/434
